<svg width="37" height="37" viewBox="0 0 37 37" fill="none" xmlns="http://www.w3.org/2000/svg">
<rect x="0.5" y="0.5" width="36" height="36" rx="18" fill="#00A478"/>
<path d="M16.6102 17.7213V14.5019H12.2437V11.6799H24.4455V14.5417H20.079V17.7213H16.6102Z" fill="white"/>
<path fill-rule="evenodd" clip-rule="evenodd" d="M10.3665 18.079C10.3665 17.0059 13.876 16.1315 18.2426 16.1315C22.6091 16.1315 26.1187 17.0059 26.1187 18.079C26.1187 19.1522 22.6091 20.0266 18.2426 20.0266C13.876 20.0266 10.3665 19.1522 10.3665 18.079ZM25.4657 18.079C25.1801 17.6816 22.8132 16.4494 18.2426 16.4494C13.672 16.4494 11.3051 17.6418 11.0194 18.079C11.3051 18.4765 13.672 19.0727 18.2426 19.0727C22.854 19.0727 25.1801 18.4765 25.4657 18.079Z" fill="white"/>
<path d="M20.079 18.715V16.4892C19.5077 16.4495 18.8955 16.4097 18.2834 16.4097C17.7121 16.4097 17.1816 16.4097 16.651 16.4495V18.6753C17.1408 18.6753 17.7121 18.715 18.2834 18.715C18.8955 18.7547 19.5077 18.7547 20.079 18.715Z" fill="white"/>
<path d="M18.2426 20.0266C17.6713 20.0266 17.1408 20.0266 16.6102 19.9869V25.9091H20.0382V19.9471C19.4669 19.9869 18.8547 20.0266 18.2426 20.0266Z" fill="white"/>
<rect x="0.5" y="0.5" width="36" height="36" rx="18" stroke="white"/>
</svg>
