<svg width="1302" height="391" viewBox="0 0 1302 391" fill="none" xmlns="http://www.w3.org/2000/svg">
<path d="M45.2632 515.764C45.2632 515.764 120.555 366.195 625.22 360.752C1129.88 355.31 1348.83 118.776 1381.94 11.7214" stroke="#707070" stroke-width="0.658254" stroke-miterlimit="10"/>
<path d="M47.8799 518.414C47.8799 518.414 101.416 410.119 428.74 363.637C485.356 355.503 550.374 350.644 624.436 349.502C924.605 344.962 1133.92 274.722 1249.01 187.076C1328.53 127.056 1372.86 57.9934 1385.34 17.665" stroke="#707070" stroke-width="0.658254" stroke-miterlimit="10"/>
<path d="M50.501 521.054C50.501 521.054 102.8 413.262 428.206 355.705C484.659 345.537 549.76 339.735 623.661 338.259C922.146 332.434 1140.88 277.354 1252.53 194.048C1331.56 135.076 1377.1 61.2576 1388.75 23.6161" stroke="#707070" stroke-width="0.658254" stroke-miterlimit="10"/>
<path d="M53.1229 523.696C53.1229 523.696 104.186 416.416 427.677 347.765C483.966 335.562 549.15 328.819 622.882 327.001C919.685 319.9 1147.99 280.286 1256.05 200.993C1334.71 143.268 1381.34 64.4875 1392.15 29.5328" stroke="#707070" stroke-width="0.658254" stroke-miterlimit="10"/>
<path d="M55.7441 526.336C55.7441 526.336 105.572 419.567 427.141 339.824C483.274 325.585 548.528 317.902 622.098 315.75C917.218 307.365 1155.12 283.258 1259.56 207.957C1337.85 151.495 1385.58 67.7437 1395.55 35.4759" stroke="#707070" stroke-width="0.658254" stroke-miterlimit="10"/>
<path d="M58.3674 528.986C58.3674 528.986 107.211 423.69 426.613 331.892C482.628 315.794 547.92 306.994 621.329 304.507C914.766 294.837 1162.28 286.281 1263.08 214.919C1341.02 159.745 1389.82 70.9992 1398.97 41.4183" stroke="#707070" stroke-width="0.658254" stroke-miterlimit="10"/>
<path d="M60.9888 531.626C60.9888 531.626 108.631 426.908 426.077 323.952C481.939 305.836 547.302 296.068 620.544 293.249C912.297 282.294 1169.44 289.32 1266.59 221.875C1344.18 168.006 1394.04 74.2404 1402.36 47.3538" stroke="#707070" stroke-width="0.658254" stroke-miterlimit="10"/>
<path d="M63.6035 534.268C63.6035 534.268 110.039 430.1 425.541 316.01C481.248 295.868 546.685 285.151 619.767 281.997C909.838 269.766 1176.63 292.398 1270.1 228.837C1347.37 176.289 1398.28 77.4955 1405.77 53.2959" stroke="#707070" stroke-width="0.658254" stroke-miterlimit="10"/>
<path d="M66.227 536.918C66.227 536.918 111.453 433.256 425.007 308.079C480.551 285.903 546.065 274.245 618.983 270.748C907.371 257.233 1183.83 295.522 1273.61 235.792C1350.56 184.599 1402.52 80.7435 1409.18 59.2307" stroke="#707070" stroke-width="0.658254" stroke-miterlimit="10"/>
<path d="M68.8484 539.559C68.8484 539.559 112.844 436.37 424.48 300.146C479.867 275.934 545.457 263.336 618.215 259.504C904.918 244.704 1191.07 298.693 1277.14 242.763C1353.78 192.948 1406.77 83.9979 1412.59 65.1808" stroke="#707070" stroke-width="0.658254" stroke-miterlimit="10"/>
<path d="M71.4697 542.199C71.4697 542.199 114.229 439.458 423.944 292.206C479.172 265.95 544.841 252.419 617.431 248.255C902.451 232.17 1198.31 301.9 1280.65 249.718C1357 201.325 1411 87.2465 1415.98 71.1177" stroke="#707070" stroke-width="0.658254" stroke-miterlimit="10"/>
<path d="M74.0913 544.841C74.0913 544.841 115.6 442.512 423.414 284.265C478.475 255.957 544.231 241.501 616.658 236.994C899.997 219.634 1205.58 305.148 1284.17 256.672C1360.25 209.743 1415.24 90.493 1419.39 77.0512" stroke="#707070" stroke-width="0.658254" stroke-miterlimit="10"/>
<path d="M76.7084 547.491C76.7084 547.491 116.652 444.786 422.874 276.335C477.718 245.838 543.611 230.595 615.871 225.755C897.525 207.11 1212.86 308.458 1287.67 263.638C1363.5 218.214 1419.47 93.7517 1422.79 82.9967" stroke="#707070" stroke-width="0.658254" stroke-miterlimit="10"/>
<path d="M79.3295 550.131C79.3295 550.131 118.035 447.928 422.344 268.393C477.025 235.862 542.994 219.678 615.1 214.502C895.071 194.572 1220.17 311.797 1291.2 270.597C1366.8 226.74 1423.72 96.9954 1426.21 88.9361" stroke="#707070" stroke-width="0.658254" stroke-miterlimit="10"/>
<path d="M81.951 552.773C81.951 552.773 119.421 451.081 421.809 260.453C476.326 225.888 542.378 208.761 614.314 203.244C892.602 182.029 1227.48 315.183 1294.7 277.545C1370.1 235.331 1427.94 100.237 1429.6 94.8635" stroke="#707070" stroke-width="0.658254" stroke-miterlimit="10"/>
<path d="M84.5738 555.421C84.5738 555.421 120.808 454.24 421.283 252.527C475.643 215.927 541.772 197.859 613.547 192.008C890.153 169.517 1234.83 318.653 1298.23 284.523C1373.45 244.038 1432.19 103.508 1433.02 100.812" stroke="#707070" stroke-width="0.658254" stroke-miterlimit="10"/>
<path d="M87.1954 558.062C87.1954 558.062 122.192 457.384 420.747 244.587C683.018 57.6515 1226.66 330.139 1301.74 291.479C1376.82 252.817 1436.42 106.748 1436.42 106.748" stroke="#707070" stroke-width="0.658254" stroke-miterlimit="10"/>
<path d="M92.1918 558.353C93.193 557.172 137.447 461.061 425.802 257.34C454.288 237.405 485.744 222.315 519.271 211.595C787.243 125.889 1217.78 317.35 1292.16 279.564C1368.23 240.649 1428.11 101.892 1428.11 101.892" stroke="#707070" stroke-width="0.658254" stroke-miterlimit="10"/>
<path d="M97.1885 558.641C99.1843 556.281 152.08 463.402 430.864 270.089C459.209 250.434 490.276 235.319 523.061 224.319C778.625 138.581 1200.72 308.756 1282.57 267.647C1359.63 228.479 1419.79 97.0237 1419.79 97.0237" stroke="#707070" stroke-width="0.658254" stroke-miterlimit="10"/>
<path d="M102.185 558.932C105.182 555.392 167.087 466.533 435.92 282.843C464.161 263.543 494.803 248.337 526.846 237.055C770.033 151.418 1183.76 300.474 1272.99 255.733C1351.12 216.56 1411.49 92.1665 1411.49 92.1665" stroke="#707070" stroke-width="0.658254" stroke-miterlimit="10"/>
<path d="M107.182 559.221C111.18 554.5 182.135 469.755 440.976 295.594C469.115 276.658 499.334 261.369 530.631 249.789C761.456 164.388 1166.72 291.958 1263.41 243.817C1342.54 204.424 1403.18 87.2991 1403.18 87.2991" stroke="#707070" stroke-width="0.658254" stroke-miterlimit="10"/>
<path d="M112.179 559.511C117.178 553.609 197.237 473.067 446.038 308.344C474.077 289.781 503.874 274.409 534.416 262.524C752.91 177.5 1149.68 283.426 1253.82 231.911C1333.94 192.273 1394.86 82.4424 1394.86 82.4424" stroke="#707070" stroke-width="0.658254" stroke-miterlimit="10"/>
<path d="M117.175 559.801C123.169 552.72 212.378 476.472 451.093 321.097C479.038 302.906 508.402 287.463 538.199 275.251C744.392 190.773 1132.63 274.868 1244.24 219.988C1325.34 180.106 1386.55 77.5771 1386.55 77.5771" stroke="#707070" stroke-width="0.658254" stroke-miterlimit="10"/>
<path d="M122.172 560.091C129.167 551.828 227.567 479.968 456.149 333.848C484.004 316.046 512.935 300.532 541.984 287.985C735.918 204.21 1115.58 266.301 1234.65 208.071C1316.75 167.926 1378.24 72.7099 1378.24 72.7099" stroke="#707070" stroke-width="0.658254" stroke-miterlimit="10"/>
<path d="M127.168 560.379C135.164 550.936 242.796 483.556 461.204 346.599C488.97 329.187 517.472 313.627 545.768 300.719C727.482 217.823 1098.51 257.726 1225.06 196.165C1308.14 155.75 1369.93 67.8601 1369.93 67.8601" stroke="#707070" stroke-width="0.658254" stroke-miterlimit="10"/>
<path d="M132.165 560.669C141.162 550.045 258.077 487.254 466.266 359.349C493.952 342.343 522.027 326.739 549.558 313.444C719.111 231.608 1081.46 249.132 1215.49 184.239C1299.54 143.545 1361.62 62.9833 1361.62 62.9833" stroke="#707070" stroke-width="0.658254" stroke-miterlimit="10"/>
<path d="M137.161 560.96C147.154 549.157 273.399 491.054 471.324 372.111C498.932 355.519 526.577 339.889 553.338 326.19C710.786 245.606 1064.38 240.534 1205.9 172.334C1290.93 131.361 1353.3 58.128 1353.3 58.128" stroke="#707070" stroke-width="0.658254" stroke-miterlimit="10"/>
<path d="M142.156 561.24C153.15 548.256 288.763 494.946 476.377 384.853C503.912 368.693 531.137 353.054 557.121 338.915C702.534 259.78 1047.18 231.537 1196.31 160.419C1282.24 118.944 1344.98 53.2709 1344.98 53.2709" stroke="#707070" stroke-width="0.658254" stroke-miterlimit="10"/>
<path d="M147.153 561.531C159.148 547.367 304.175 498.968 481.44 397.605C508.911 381.893 535.728 366.27 560.913 351.651C694.378 274.176 1030.12 222.954 1186.73 148.504C1273.65 106.766 1336.68 48.4047 1336.68 48.4047" stroke="#707070" stroke-width="0.658254" stroke-miterlimit="10"/>
<path d="M152.149 561.82C165.139 546.477 319.624 503.099 486.495 410.356C513.909 395.119 540.329 379.527 564.695 364.376C686.308 288.781 1013.06 214.37 1177.15 136.587C1265.05 94.5967 1328.37 43.5461 1328.37 43.5461" stroke="#707070" stroke-width="0.658254" stroke-miterlimit="10"/>
<path d="M157.146 562.11C171.136 545.586 335.118 507.341 491.55 423.108C518.919 408.371 544.956 392.844 568.474 377.112C678.359 303.601 995.99 205.788 1167.56 124.673C1256.45 82.4198 1320.06 38.6797 1320.06 38.6797" stroke="#707070" stroke-width="0.658254" stroke-miterlimit="10"/>
<path d="M162.142 562.399C177.134 544.694 350.648 511.714 496.612 435.858C523.95 421.654 549.632 406.233 572.265 389.845C670.561 318.645 978.938 197.21 1157.98 112.757C1247.85 70.251 1311.74 33.8125 1311.74 33.8125" stroke="#707070" stroke-width="0.658254" stroke-miterlimit="10"/>
<path d="M167.139 562.69C186.353 539.992 446.833 504.73 576.048 402.572C705.264 300.414 1303.43 28.9468 1303.43 28.9468" stroke="#707070" stroke-width="0.658254" stroke-miterlimit="10"/>
</svg>
