<svg width="151" height="151" viewBox="0 0 151 151" fill="none" xmlns="http://www.w3.org/2000/svg">
<g filter="url(#filter0_d_111_2349)">
<rect x="20" y="16" width="110.651" height="110.651" rx="55.3253" fill="#00A478"/>
<path d="M69.6751 68.9967V59.3688H56.6167V50.9296H93.107V59.4877H80.0486V68.9967H69.6751Z" fill="white"/>
<path fill-rule="evenodd" clip-rule="evenodd" d="M51.0023 70.0663C51.0023 66.8571 61.4978 64.2421 74.5562 64.2421C87.6146 64.2421 98.1101 66.8571 98.1101 70.0663C98.1101 73.2756 87.6146 75.8906 74.5562 75.8906C61.4978 75.8906 51.0023 73.2756 51.0023 70.0663ZM96.1571 70.0664C95.3028 68.8778 88.2245 65.193 74.5559 65.193C60.8873 65.193 53.8089 68.7589 52.9546 70.0664C53.8089 71.255 60.8873 73.038 74.5559 73.038C88.3465 73.038 95.3028 71.255 96.1571 70.0664Z" fill="white"/>
<path d="M80.0481 71.968V65.3117C78.3395 65.1928 76.5089 65.074 74.6782 65.074C72.9697 65.074 71.3831 65.074 69.7966 65.1928V71.8492C71.2611 71.8492 72.9697 71.968 74.6782 71.968C76.5089 72.0869 78.3395 72.0869 80.0481 71.968Z" fill="white"/>
<path d="M74.5557 75.8904C72.8471 75.8904 71.2606 75.8904 69.674 75.7716V93.4821H79.9255V75.6527C78.2169 75.7716 76.3863 75.8904 74.5557 75.8904Z" fill="white"/>
<rect x="21.4953" y="17.4953" width="107.66" height="107.66" rx="53.83" stroke="white" stroke-width="2.99056"/>
</g>
<defs>
<filter id="filter0_d_111_2349" x="0" y="0" width="150.651" height="150.651" filterUnits="userSpaceOnUse" color-interpolation-filters="sRGB">
<feFlood flood-opacity="0" result="BackgroundImageFix"/>
<feColorMatrix in="SourceAlpha" type="matrix" values="0 0 0 0 0 0 0 0 0 0 0 0 0 0 0 0 0 0 127 0" result="hardAlpha"/>
<feOffset dy="4"/>
<feGaussianBlur stdDeviation="10"/>
<feComposite in2="hardAlpha" operator="out"/>
<feColorMatrix type="matrix" values="0 0 0 0 0 0 0 0 0 0.643137 0 0 0 0 0.470588 0 0 0 1 0"/>
<feBlend mode="normal" in2="BackgroundImageFix" result="effect1_dropShadow_111_2349"/>
<feBlend mode="normal" in="SourceGraphic" in2="effect1_dropShadow_111_2349" result="shape"/>
</filter>
</defs>
</svg>
