<svg width="1202" height="389" viewBox="0 0 1202 389" fill="none" xmlns="http://www.w3.org/2000/svg">
<path d="M-226.737 317.764C-226.737 317.764 -151.445 168.195 353.22 162.752C857.885 157.31 1076.83 -79.2236 1109.94 -186.279" stroke="#707070" stroke-width="0.658254" stroke-miterlimit="10"/>
<path d="M-224.12 320.414C-224.12 320.414 -170.584 212.119 156.74 165.637C213.356 157.503 278.374 152.644 352.436 151.502C652.605 146.962 861.923 76.7216 977.009 -10.924C1056.53 -70.9443 1100.86 -140.007 1113.34 -180.335" stroke="#707070" stroke-width="0.658254" stroke-miterlimit="10"/>
<path d="M-221.499 323.054C-221.499 323.054 -169.2 215.262 156.206 157.705C212.659 147.537 277.76 141.735 351.661 140.259C650.146 134.434 868.875 79.354 980.527 -3.95248C1059.56 -62.924 1105.1 -136.742 1116.75 -174.384" stroke="#707070" stroke-width="0.658254" stroke-miterlimit="10"/>
<path d="M-218.877 325.696C-218.877 325.696 -167.814 218.416 155.677 149.765C211.966 137.562 277.15 130.819 350.882 129.001C647.685 121.9 875.988 82.2862 984.046 2.99338C1062.71 -54.7319 1109.34 -133.513 1120.15 -168.467" stroke="#707070" stroke-width="0.658254" stroke-miterlimit="10"/>
<path d="M-216.256 328.336C-216.256 328.336 -166.428 221.567 155.141 141.824C211.274 127.585 276.528 119.902 350.098 117.75C645.218 109.365 883.117 85.258 987.555 9.95666C1065.85 -46.5047 1113.58 -130.256 1123.55 -162.524" stroke="#707070" stroke-width="0.658254" stroke-miterlimit="10"/>
<path d="M-213.633 330.986C-213.633 330.986 -164.789 225.69 154.613 133.892C210.628 117.794 275.92 108.994 349.329 106.507C642.766 96.8372 890.277 88.2805 991.078 16.9191C1069.02 -38.2547 1117.82 -127.001 1126.97 -156.582" stroke="#707070" stroke-width="0.658254" stroke-miterlimit="10"/>
<path d="M-211.011 333.626C-211.011 333.626 -163.369 228.908 154.077 125.952C209.939 107.836 275.302 98.0684 348.544 95.2491C640.297 84.2943 897.44 91.3199 994.585 23.8748C1072.18 -29.9938 1122.04 -123.76 1130.36 -150.646" stroke="#707070" stroke-width="0.658254" stroke-miterlimit="10"/>
<path d="M-208.397 336.268C-208.397 336.268 -161.961 232.1 153.541 118.01C209.248 97.8678 274.685 87.1507 347.767 83.9971C637.838 71.7664 904.632 94.3984 998.101 30.8371C1075.37 -21.7115 1126.28 -120.504 1133.77 -144.704" stroke="#707070" stroke-width="0.658254" stroke-miterlimit="10"/>
<path d="M-205.773 338.918C-205.773 338.918 -160.547 235.256 153.007 110.079C208.551 87.903 274.065 76.2451 346.983 72.7484C635.371 59.233 911.834 97.5224 1001.61 37.7921C1078.56 -13.4012 1130.52 -117.257 1137.18 -138.769" stroke="#707070" stroke-width="0.658254" stroke-miterlimit="10"/>
<path d="M-203.152 341.559C-203.152 341.559 -159.156 238.37 152.48 102.146C207.867 77.9344 273.457 65.3355 346.215 61.5045C632.918 46.7044 919.074 100.693 1005.14 44.7626C1081.78 -5.05187 1134.77 -114.002 1140.59 -132.819" stroke="#707070" stroke-width="0.658254" stroke-miterlimit="10"/>
<path d="M-200.53 344.199C-200.53 344.199 -157.771 241.458 151.944 94.2061C207.172 67.9498 272.841 54.4187 345.431 50.2548C630.451 34.1701 926.314 103.9 1008.65 51.7182C1085 3.32529 1139 -110.754 1143.98 -126.882" stroke="#707070" stroke-width="0.658254" stroke-miterlimit="10"/>
<path d="M-197.909 346.841C-197.909 346.841 -156.4 244.512 151.414 86.2652C206.475 57.9571 272.231 43.5015 344.658 38.9944C627.997 21.6338 933.584 107.148 1012.17 58.672C1088.25 11.7433 1143.24 -107.507 1147.39 -120.949" stroke="#707070" stroke-width="0.658254" stroke-miterlimit="10"/>
<path d="M-195.292 349.491C-195.292 349.491 -155.348 246.786 150.874 78.335C205.718 47.8384 271.611 32.5948 343.871 27.7548C625.525 9.10953 940.861 110.458 1015.67 65.6376C1091.5 20.2145 1147.47 -104.248 1150.79 -115.003" stroke="#707070" stroke-width="0.658254" stroke-miterlimit="10"/>
<path d="M-192.671 352.131C-192.671 352.131 -153.965 249.928 150.344 70.3927C205.025 37.8619 270.994 21.6775 343.1 16.5018C623.071 -3.42814 948.171 113.797 1019.2 72.5974C1094.8 28.74 1151.72 -101.005 1154.21 -109.064" stroke="#707070" stroke-width="0.658254" stroke-miterlimit="10"/>
<path d="M-190.049 354.773C-190.049 354.773 -152.579 253.081 149.809 62.4528C204.326 27.888 270.378 10.7614 342.314 5.24396C620.602 -15.9707 955.485 117.183 1022.7 79.5449C1098.1 37.3312 1155.94 -97.7627 1157.6 -103.136" stroke="#707070" stroke-width="0.658254" stroke-miterlimit="10"/>
<path d="M-187.426 357.421C-187.426 357.421 -151.192 256.24 149.283 54.5272C203.643 17.9268 269.772 -0.140589 341.547 -5.99232C618.153 -28.4828 962.83 120.653 1026.23 86.5227C1101.45 46.0381 1160.19 -94.4921 1161.02 -97.1878" stroke="#707070" stroke-width="0.658254" stroke-miterlimit="10"/>
<path d="M-184.805 360.062C-184.805 360.062 -149.808 259.384 148.747 46.5873C411.018 -140.348 954.662 132.139 1029.74 93.4788C1104.82 54.8174 1164.42 -91.2519 1164.42 -91.2519" stroke="#707070" stroke-width="0.658254" stroke-miterlimit="10"/>
<path d="M-179.808 360.353C-178.807 359.172 -134.553 263.061 153.802 59.3404C182.288 39.4046 213.744 24.3152 247.271 13.5952C515.243 -72.1113 945.777 119.35 1020.16 81.5644C1096.23 42.6491 1156.11 -96.1083 1156.11 -96.1083" stroke="#707070" stroke-width="0.658254" stroke-miterlimit="10"/>
<path d="M-174.812 360.641C-172.816 358.281 -119.92 265.402 158.864 72.0894C187.209 52.4339 218.276 37.3193 251.061 26.3186C506.625 -59.4193 928.715 110.756 1010.57 69.6473C1087.63 30.4795 1147.79 -100.976 1147.79 -100.976" stroke="#707070" stroke-width="0.658254" stroke-miterlimit="10"/>
<path d="M-169.815 360.932C-166.818 357.392 -104.913 268.533 163.92 84.843C192.161 65.543 222.803 50.3366 254.846 39.0552C498.033 -46.5819 911.762 102.474 1000.99 57.7333C1079.12 18.5602 1139.49 -105.834 1139.49 -105.834" stroke="#707070" stroke-width="0.658254" stroke-miterlimit="10"/>
<path d="M-164.818 361.221C-160.82 356.5 -89.8649 271.755 168.976 97.594C197.115 78.6583 227.334 63.369 258.631 51.7893C489.456 -33.612 894.723 93.9584 991.407 45.8168C1070.54 6.42363 1131.18 -110.701 1131.18 -110.701" stroke="#707070" stroke-width="0.658254" stroke-miterlimit="10"/>
<path d="M-159.821 361.511C-154.822 355.609 -74.7634 275.067 174.038 110.344C202.077 91.7814 231.874 76.4094 262.416 64.524C480.91 -20.5005 877.682 85.4255 981.82 33.911C1061.94 -5.72731 1122.86 -115.558 1122.86 -115.558" stroke="#707070" stroke-width="0.658254" stroke-miterlimit="10"/>
<path d="M-154.825 361.801C-148.831 354.72 -59.6217 278.472 179.093 123.097C207.038 104.906 236.402 89.4628 266.198 77.2511C472.392 -7.22747 860.634 76.8677 972.235 21.9877C1053.34 -17.8943 1114.55 -120.423 1114.55 -120.423" stroke="#707070" stroke-width="0.658254" stroke-miterlimit="10"/>
<path d="M-149.828 362.091C-142.833 353.828 -44.4327 281.968 184.149 135.848C212.004 118.046 240.935 102.532 269.984 89.9852C463.918 6.20974 843.578 68.3005 962.652 10.0712C1044.75 -30.0736 1106.24 -125.29 1106.24 -125.29" stroke="#707070" stroke-width="0.658254" stroke-miterlimit="10"/>
<path d="M-144.832 362.379C-136.836 352.936 -29.2038 285.556 189.204 148.599C216.97 131.187 245.472 115.627 273.768 102.719C455.482 19.8231 826.513 59.7259 953.065 -1.83516C1036.14 -42.2501 1097.93 -130.14 1097.93 -130.14" stroke="#707070" stroke-width="0.658254" stroke-miterlimit="10"/>
<path d="M-139.835 362.669C-130.838 352.045 -13.9233 289.254 194.266 161.349C221.952 144.343 250.027 128.739 277.558 115.444C447.111 33.6083 809.458 51.1317 943.487 -13.761C1027.54 -54.4549 1089.62 -135.017 1089.62 -135.017" stroke="#707070" stroke-width="0.658254" stroke-miterlimit="10"/>
<path d="M-134.839 362.96C-124.846 351.157 1.39948 293.054 199.324 174.111C226.932 157.519 254.577 141.889 281.338 128.19C438.786 47.6058 792.381 42.5337 933.899 -25.6657C1018.93 -66.6385 1081.3 -139.872 1081.3 -139.872" stroke="#707070" stroke-width="0.658254" stroke-miterlimit="10"/>
<path d="M-129.844 363.24C-118.85 350.256 16.763 296.946 204.377 186.853C231.912 170.693 259.137 155.054 285.121 140.915C430.534 61.7798 775.177 33.5372 924.31 -37.5806C1010.24 -79.056 1072.98 -144.729 1072.98 -144.729" stroke="#707070" stroke-width="0.658254" stroke-miterlimit="10"/>
<path d="M-124.847 363.531C-112.852 349.367 32.1749 300.968 209.44 199.605C236.911 183.893 263.728 168.27 288.913 153.651C422.378 76.1757 758.123 24.9535 914.734 -49.4959C1001.65 -91.2341 1064.68 -149.595 1064.68 -149.595" stroke="#707070" stroke-width="0.658254" stroke-miterlimit="10"/>
<path d="M-119.851 363.82C-106.862 348.477 47.6242 305.099 214.495 212.356C241.909 197.119 268.329 181.527 292.695 166.376C414.308 90.7808 741.057 16.3699 905.151 -61.4127C993.049 -103.403 1056.37 -154.454 1056.37 -154.454" stroke="#707070" stroke-width="0.658254" stroke-miterlimit="10"/>
<path d="M-114.854 364.11C-100.864 347.586 63.1185 309.341 219.55 225.108C246.919 210.371 272.956 194.844 296.474 179.112C406.359 105.601 723.99 7.7875 895.562 -73.3267C984.447 -115.58 1048.06 -159.32 1048.06 -159.32" stroke="#707070" stroke-width="0.658254" stroke-miterlimit="10"/>
<path d="M-109.858 364.399C-94.866 346.694 78.6478 313.714 224.612 237.858C251.95 223.654 277.632 208.233 300.265 191.845C398.561 120.645 706.938 -0.789715 885.979 -85.243C975.846 -127.749 1039.74 -164.188 1039.74 -164.188" stroke="#707070" stroke-width="0.658254" stroke-miterlimit="10"/>
<path d="M-104.861 364.69C-85.6472 341.992 174.833 306.73 304.048 204.572C433.264 102.414 1031.43 -169.053 1031.43 -169.053" stroke="#707070" stroke-width="0.658254" stroke-miterlimit="10"/>
</svg>
