<svg width="37" height="37" viewBox="0 0 37 37" fill="none" xmlns="http://www.w3.org/2000/svg">
<path d="M18.5 0.5C28.4396 0.5 36.5 8.56044 36.5 18.5C36.5 28.4396 28.4396 36.5 18.5 36.5C8.56044 36.5 0.5 28.4396 0.5 18.5C0.5 8.56044 8.56044 0.5 18.5 0.5Z" fill="#211F6D" stroke="white"/>
<path fill-rule="evenodd" clip-rule="evenodd" d="M12.1729 9.58301H24.4939C26.1293 9.58301 27.4539 10.9076 27.4539 12.543V24.864C27.4539 26.2959 26.2958 27.454 24.8639 27.454H12.1729C10.741 27.454 9.58293 26.2959 9.58293 24.864V12.173C9.58293 10.7411 10.741 9.58301 12.1729 9.58301Z" fill="white"/>
<path d="M14.2932 17.0495C13.1647 17.0495 12.2471 16.1319 12.2471 14.9998C12.2471 13.8676 13.1647 12.95 14.2932 12.95C15.4217 12.95 16.3393 13.8676 16.3393 14.9998C16.3393 16.1319 15.4217 17.0495 14.2932 17.0495Z" fill="#211F6D"/>
<path d="M22.707 17.0495C21.5785 17.0495 20.6609 16.1319 20.6609 14.9998C20.6609 13.8676 21.5785 12.95 22.707 12.95C23.8355 12.95 24.7531 13.8676 24.7531 14.9998C24.7531 16.1319 23.8355 17.0495 22.707 17.0495Z" fill="#211F6D"/>
<path d="M14.2932 24.0499C13.1647 24.0499 12.2471 23.1323 12.2471 22.0001C12.2471 20.8679 13.1647 19.9503 14.2932 19.9503C15.4217 19.9503 16.3393 20.8679 16.3393 22.0001C16.3393 23.1323 15.4217 24.0499 14.2932 24.0499Z" fill="#211F6D"/>
<path d="M22.707 24.0499C21.5785 24.0499 20.6609 23.1323 20.6609 22.0001C20.6609 20.8679 21.5785 19.9503 22.707 19.9503C23.8355 19.9503 24.7531 20.8679 24.7531 22.0001C24.7531 23.1323 23.8355 24.0499 22.707 24.0499Z" fill="#211F6D"/>
</svg>
