<svg width="1512" height="982" viewBox="0 0 1512 982" fill="none" xmlns="http://www.w3.org/2000/svg">
<path opacity="0.54" d="M-410.891 1050.62C-438.764 986.06 -392.78 908.285 -329.024 878.679C-265.26 849.042 -190.895 855.853 -121.751 868.792C-52.5995 881.7 17.2167 900.183 87.0436 891.914C231.56 874.771 336.653 750.713 422.832 633.548C509.012 516.383 604.433 388.17 746.179 355.147C857.316 329.274 972.25 368.666 1086.25 373.728C1285.26 382.579 1485.41 277.28 1590.66 108.269" stroke="url(#paint0_linear_111_2489)" stroke-width="1.59361" stroke-miterlimit="10"/>
<path opacity="0.54" d="M-407.506 1069.28C-435.401 1004.82 -390.031 927.096 -326.726 896.878C-321.076 894.163 -315.307 891.778 -309.49 889.605C-250.155 867.76 -183.05 873.65 -120.154 884.682C-108.01 886.807 -95.841 889.106 -83.6725 891.405C-26.5391 902.218 31.0035 912.998 88.4454 905.884C107.06 903.593 125.047 899.511 142.407 893.904C259.548 856.151 348.453 748.81 422.624 646.32C428.006 638.862 433.427 631.381 438.887 623.876C519.727 512.777 610.091 399.249 739.889 363.848C777.013 353.728 814.78 349.813 853.715 351.196C899.679 352.809 946.282 361.594 992.112 369.72C1023.4 375.263 1054.5 380.493 1085.7 383.142C1100.37 384.387 1115.09 385.011 1129.84 384.973C1223.75 384.779 1318.28 357.518 1400.43 309.867C1482.77 262.097 1552.94 194.26 1602.52 113.028" stroke="url(#paint1_linear_111_2489)" stroke-width="1.59361" stroke-miterlimit="10"/>
<path opacity="0.54" d="M-404.12 1087.96C-432.062 1023.55 -387.314 945.904 -324.46 915.074C-318.834 912.32 -313.112 909.856 -307.319 907.644C-248.347 885.242 -181.41 890.322 -118.525 900.583C-106.381 902.575 -94.2445 904.732 -82.0763 906.897C-24.9845 917.065 32.5562 927.311 89.8711 919.898C108.446 917.497 126.41 913.375 143.754 907.698C260.775 869.481 349.199 762.055 422.472 659.143C427.791 651.67 433.156 644.142 438.522 636.614C518.235 525.069 606.87 412.317 733.709 372.647C770.765 361.041 808.595 354.569 848.542 355.099C895.754 355.718 943.88 365.646 990.408 375.414C1022.16 382.073 1053.56 388.678 1085.18 392.6C1100.07 394.435 1114.98 395.639 1130.04 396.112C1225.86 399.161 1324.19 371.801 1408.52 322.318C1493.04 272.749 1564.09 201.786 1614.36 117.752" stroke="url(#paint2_linear_111_2489)" stroke-width="1.59361" stroke-miterlimit="10"/>
<path opacity="0.54" d="M-400.767 1106.62C-428.733 1042.31 -384.63 964.703 -322.203 933.3C-316.632 930.498 -310.957 927.956 -305.188 925.705C-246.541 902.722 -179.804 906.984 -116.937 916.506C-104.825 918.356 -92.6495 920.356 -80.5133 922.38C-23.4631 931.903 34.0443 941.606 91.2637 933.903C109.791 931.423 127.707 927.223 145.027 921.506C261.89 882.849 349.865 775.346 422.247 671.981C427.51 664.46 432.782 656.909 438.084 649.365C516.678 537.344 603.638 425.282 727.433 381.42C764.46 368.304 802.305 359.331 843.296 359.017C891.764 358.608 941.406 369.712 988.624 381.153C1020.87 388.935 1052.52 396.94 1084.57 402.104C1099.65 404.551 1114.82 406.321 1130.16 407.297C1227.88 413.588 1330.01 386.161 1416.53 334.847C1503.24 283.446 1575.15 209.39 1626.14 122.561" stroke="url(#paint3_linear_111_2489)" stroke-width="1.59361" stroke-miterlimit="10"/>
<path opacity="0.54" d="M-397.388 1125.32C-425.369 1061.07 -381.888 983.547 -319.943 951.524C-314.388 948.652 -308.777 946.094 -303.055 943.764C-244.764 920.193 -178.203 923.677 -115.354 932.459C-103.235 934.144 -91.0991 936.034 -78.9319 937.932C-21.9232 946.81 35.5902 955.947 92.7064 947.984C111.194 945.395 129.086 941.155 146.359 935.36C263.094 896.271 350.565 788.643 422.111 684.872C427.312 677.336 432.528 669.737 437.744 662.139C515.21 549.673 600.52 438.072 721.247 390.247C758.222 375.582 796.144 364.123 838.14 362.988C887.896 361.561 939.021 373.832 986.937 386.915C1019.63 395.844 1051.59 405.193 1084.09 411.637C1099.36 414.666 1114.79 417.002 1130.43 418.519C1230.06 428.085 1335.99 400.528 1424.7 347.414C1513.59 294.213 1586.37 217.031 1638.08 127.408" stroke="url(#paint4_linear_111_2489)" stroke-width="1.59361" stroke-miterlimit="10"/>
<path opacity="0.54" d="M-394.003 1143.99C-422.039 1079.83 -379.164 1002.32 -317.677 969.72C-312.177 966.801 -306.582 964.172 -300.884 961.803C-242.949 937.643 -176.564 940.349 -113.726 948.36C-101.607 949.912 -89.4715 951.668 -77.3363 953.424C-20.3692 961.658 37.1424 970.259 94.1316 961.998C112.572 959.33 130.417 955.012 147.705 949.154C264.32 909.601 351.303 801.92 421.958 697.695C427.103 690.112 432.217 682.522 437.378 674.876C513.717 561.966 597.382 450.661 715.042 399.007C752.035 382.777 789.926 368.872 832.942 366.852C883.946 364.43 936.594 377.844 985.24 392.577C1018.43 402.63 1050.68 413.354 1083.58 421.064C1099.06 424.681 1114.69 427.599 1130.63 429.626C1232.17 442.435 1341.9 414.812 1432.79 359.866C1523.84 304.825 1597.52 224.558 1649.95 132.14" stroke="url(#paint5_linear_111_2489)" stroke-width="1.59361" stroke-miterlimit="10"/>
<path opacity="0.54" d="M-390.617 1162.66C-418.668 1098.56 -376.446 1021.13 -315.378 987.922C-309.934 984.955 -304.355 982.256 -298.712 979.84C-241.11 955.13 -174.916 956.987 -112.136 964.283C-100.017 965.701 -87.9062 967.284 -75.7714 968.906C-18.8535 976.527 38.6324 984.554 95.5263 976.002C113.927 973.224 131.756 968.836 148.989 962.931C265.476 922.945 351.987 815.148 421.743 710.5C426.825 702.902 431.884 695.265 436.95 687.596C512.162 574.24 594.222 463.074 708.768 407.78C745.756 389.945 783.646 373.602 827.698 370.769C879.958 367.32 934.121 381.91 983.458 398.316C1017.11 409.484 1049.65 421.584 1082.97 430.567C1098.64 434.798 1114.53 438.28 1130.78 440.818C1234.22 456.869 1347.76 429.148 1440.83 372.402C1534.07 315.561 1608.61 232.168 1661.77 136.956" stroke="url(#paint6_linear_111_2489)" stroke-width="1.59361" stroke-miterlimit="10"/>
<path opacity="0.54" d="M-387.262 1181.32C-415.369 1117.31 -373.729 1039.94 -313.151 1006.14C-307.731 1003.13 -302.207 1000.39 -296.58 997.9C-239.334 972.601 -173.316 973.681 -110.546 980.205C-98.4597 981.482 -86.3176 982.939 -74.2147 984.42C-17.307 991.403 40.1534 998.856 96.9125 990.038C115.266 987.181 133.078 982.722 150.264 976.738C266.624 936.321 352.654 828.438 421.52 723.337C426.515 715.684 431.51 708.031 436.514 700.347C510.599 586.546 590.998 475.338 702.494 416.553C739.492 397.051 777.358 378.364 822.462 374.654C875.977 370.179 931.656 385.944 981.691 403.992C1015.83 416.284 1048.64 429.751 1082.41 440.015C1098.31 444.835 1114.38 448.899 1130.95 451.947C1236.29 471.272 1353.62 443.453 1448.89 384.875C1544.31 326.203 1619.72 239.716 1673.57 141.701" stroke="url(#paint7_linear_111_2489)" stroke-width="1.59361" stroke-miterlimit="10"/>
<path opacity="0.54" d="M-383.883 1200.02C-412.013 1136.11 -371.018 1058.77 -310.86 1024.37C-305.487 1021.29 -299.986 1018.5 -294.414 1015.97C-237.493 990.088 -171.707 990.342 -108.923 996.135C-96.8297 997.246 -84.7195 998.562 -72.6171 999.909C-15.751 1006.25 41.7076 1013.17 98.3397 1004.05C116.677 1001.12 134.411 996.576 151.604 990.561C267.813 949.672 353.394 841.712 421.361 736.189C426.293 728.521 431.233 720.821 436.15 713.082C509.076 598.828 587.838 487.483 696.284 425.342C733.299 404.14 771.174 383.117 817.251 378.578C872.014 373.109 929.216 390.017 979.949 409.707C1014.55 423.114 1047.65 437.988 1081.84 449.525C1097.93 454.926 1114.26 459.588 1131.1 463.139C1238.35 485.706 1359.45 457.781 1456.93 397.411C1554.54 336.939 1630.82 247.295 1685.38 146.517" stroke="url(#paint8_linear_111_2489)" stroke-width="1.59361" stroke-miterlimit="10"/>
<path opacity="0.54" d="M-380.5 1218.7C-408.676 1154.84 -368.272 1077.59 -308.596 1042.57C-303.246 1039.45 -297.794 1036.58 -292.277 1034C-235.72 1007.56 -170.101 1007.01 -107.336 1012.06C-95.2431 1013.04 -83.1334 1014.22 -71.0315 1015.44C-14.2069 1021.13 43.2183 1027.5 99.755 1018.1C118.053 1015.06 135.762 1010.47 152.908 1004.38C268.99 963.06 354.091 855.015 421.198 749.047C426.067 741.363 430.92 733.608 435.774 725.853C507.573 611.155 584.641 499.493 690.062 434.167C727.072 411.227 764.946 387.899 812.067 382.516C868.086 376.02 926.811 394.072 978.266 415.443C1013.35 430.004 1046.72 446.215 1081.37 459.032C1097.63 465.047 1114.23 470.274 1131.38 474.335C1240.53 500.177 1365.43 472.153 1465.1 409.952C1564.89 347.68 1642.08 254.918 1697.33 151.338" stroke="url(#paint9_linear_111_2489)" stroke-width="1.59361" stroke-miterlimit="10"/>
<path opacity="0.54" d="M-377.114 1237.37C-405.314 1173.6 -365.547 1096.36 -306.337 1060.79C-301.043 1057.62 -295.645 1054.71 -290.113 1052.07C-233.881 1025.05 -168.462 1023.68 -105.715 1027.99C-93.6535 1028.83 -81.5443 1029.87 -69.4429 1030.95C-12.6676 1036.03 44.7713 1041.81 101.173 1032.14C119.423 1029.02 137.086 1024.36 154.215 1018.19C270.17 976.441 354.79 868.31 421.006 761.889C425.82 754.157 430.611 746.387 435.37 738.609C506.042 623.466 581.385 511.345 683.82 442.945C720.831 418.235 758.69 392.666 806.855 386.438C864.13 378.915 924.37 398.143 976.515 421.187C1012.09 436.872 1045.73 454.451 1080.8 468.541C1097.28 475.144 1114.07 480.953 1131.53 485.524C1242.58 514.609 1371.29 486.487 1473.15 422.454C1575.13 358.35 1653.18 262.495 1709.15 156.12" stroke="url(#paint10_linear_111_2489)" stroke-width="1.59361" stroke-miterlimit="10"/>
<path opacity="0.54" d="M-373.759 1256.03C-402.007 1192.32 -362.861 1115.16 -304.07 1078.99C-298.824 1075.74 -293.45 1072.79 -287.973 1070.1C-232.097 1042.49 -166.854 1040.34 -104.157 1043.91C-92.096 1044.61 -79.9795 1045.49 -67.91 1046.43C-11.1763 1050.86 46.2607 1056.11 102.567 1046.14C120.778 1042.92 138.416 1038.21 155.53 1031.98C271.365 989.761 355.473 881.538 420.822 774.702C425.573 766.955 430.277 759.13 434.98 751.305C504.526 635.717 578.064 523.051 677.584 451.694C714.574 425.176 752.448 397.372 801.625 390.291C860.149 381.774 921.912 402.145 974.756 426.831C1010.79 443.631 1044.73 462.586 1080.21 477.949C1096.89 485.166 1113.93 491.539 1131.7 496.621C1244.66 528.949 1377.17 500.729 1481.21 434.896C1585.37 368.991 1664.29 270.011 1720.99 160.842" stroke="url(#paint11_linear_111_2489)" stroke-width="1.59361" stroke-miterlimit="10"/>
<path opacity="0.54" d="M-370.381 1274.73C-398.651 1211.12 -360.119 1134.01 -301.811 1097.21C-296.588 1093.93 -291.262 1090.9 -285.801 1088.13C-230.281 1059.94 -165.206 1056.98 -102.527 1059.81C-90.4593 1060.34 -78.3825 1061.12 -66.3135 1061.92C-9.62139 1065.71 47.7823 1070.41 103.993 1060.15C122.156 1056.85 139.786 1052.05 156.845 1045.76C272.552 1003.11 356.18 894.806 420.638 787.517C425.334 779.723 429.975 771.882 434.584 764.034C503.01 647.97 574.672 534.641 671.35 460.445C708.325 432.086 746.231 402.119 796.421 394.186C856.2 384.642 919.478 406.189 973.052 432.524C1009.58 450.448 1043.8 470.809 1079.72 487.414C1096.61 495.22 1113.88 502.183 1131.93 507.767C1246.79 543.369 1383.1 515.05 1489.33 447.386C1595.68 379.65 1675.46 277.576 1732.85 165.604" stroke="url(#paint12_linear_111_2489)" stroke-width="1.59361" stroke-miterlimit="10"/>
<path opacity="0.54" d="M-366.996 1293.41C-395.314 1229.84 -357.403 1152.82 -299.514 1115.42C-294.347 1112.08 -289.044 1109.01 -283.631 1106.17C-228.444 1077.43 -163.568 1073.65 -100.907 1075.74C-88.8398 1076.14 -76.7872 1076.74 -64.7264 1077.44C-8.0758 1080.59 49.3338 1084.72 105.41 1074.2C123.526 1070.82 141.108 1065.93 158.151 1059.58C273.699 1016.49 356.886 908.076 420.445 800.364C425.046 792.547 429.632 784.66 434.178 776.796C501.477 660.287 571.217 546.216 665.13 469.269C702.035 439.022 740.005 406.9 791.239 398.121C852.274 387.551 917.067 410.273 971.332 438.281C1008.31 457.352 1042.84 479.058 1079.18 496.935C1096.26 505.323 1113.76 512.844 1132.11 518.97C1248.88 557.814 1388.99 529.398 1497.4 459.933C1605.93 390.397 1686.59 285.197 1744.7 170.431" stroke="url(#paint13_linear_111_2489)" stroke-width="1.59361" stroke-miterlimit="10"/>
<path opacity="0.54" d="M-363.642 1312.06C-391.982 1248.6 -354.717 1171.61 -297.287 1133.63C-292.174 1130.25 -286.888 1127.11 -281.53 1124.22C-226.699 1094.89 -161.991 1090.3 -99.3489 1091.65C-87.3132 1091.91 -75.2296 1092.39 -63.1615 1092.92C-6.52871 1095.46 50.8553 1099.02 106.805 1088.2C124.88 1084.71 142.439 1079.79 159.458 1073.39C274.879 1029.87 357.586 921.37 420.285 813.213C424.831 805.349 429.354 797.446 433.805 789.559C499.977 672.605 567.754 557.683 658.919 478.054C695.763 445.888 733.78 411.673 786.027 402.043C848.31 390.477 914.595 414.335 969.589 443.993C1007.06 464.187 1041.85 487.261 1078.64 506.419C1095.91 515.419 1113.67 523.506 1132.33 530.142C1251.01 572.229 1394.91 543.746 1505.51 472.45C1616.23 401.082 1697.75 292.789 1756.59 175.228" stroke="url(#paint14_linear_111_2489)" stroke-width="1.59361" stroke-miterlimit="10"/>
<path opacity="0.54" d="M-360.255 1330.74C-388.643 1267.32 -351.968 1190.43 -295.02 1151.83C-289.924 1148.37 -284.692 1145.19 -279.358 1142.26C-224.851 1112.35 -160.351 1106.97 -97.7511 1107.54C-85.7159 1107.67 -73.6643 1108 -61.5967 1108.41C-5.00547 1110.3 52.3452 1113.32 108.199 1102.21C126.227 1098.63 143.739 1093.63 160.742 1087.17C276.043 1043.19 358.269 934.599 420.07 826.02C424.553 818.14 428.981 810.214 433.385 802.248C498.43 684.849 564.133 568.982 652.652 486.797C689.371 452.696 727.508 416.373 780.798 405.898C844.337 393.306 912.137 418.339 967.829 449.639C1005.76 470.949 1040.85 495.398 1078.06 515.829C1095.55 525.418 1113.5 534.086 1132.47 541.233C1253.05 586.594 1400.76 557.981 1513.54 484.885C1626.45 411.718 1708.84 300.298 1768.39 179.943" stroke="url(#paint15_linear_111_2489)" stroke-width="1.59361" stroke-miterlimit="10"/>
<path opacity="0.54" d="M-356.878 1349.44C-385.29 1286.12 -349.252 1209.23 -292.731 1170.06C-287.69 1166.56 -282.514 1163.33 -277.195 1160.33C-223.045 1129.83 -158.721 1123.67 -96.1389 1123.51C-84.0964 1123.47 -72.0452 1123.67 -60.0095 1123.93C-3.45987 1125.18 53.8967 1127.63 109.616 1116.25C127.604 1112.57 145.092 1107.53 162.047 1100.99C277.221 1056.57 358.967 947.899 419.877 838.866C424.304 830.939 428.669 822.997 432.979 815.008C496.897 697.165 560.495 580.344 646.408 495.579C682.979 459.505 721.282 421.152 775.584 409.824C840.379 396.206 909.694 422.414 966.116 455.363C1004.54 477.796 1039.88 503.645 1077.53 525.317C1095.2 535.52 1113.41 544.753 1132.65 552.403C1255.14 601.006 1406.65 572.327 1521.62 497.399C1636.72 422.4 1719.97 307.887 1780.25 184.737" stroke="url(#paint16_linear_111_2489)" stroke-width="1.59361" stroke-miterlimit="10"/>
<path opacity="0.54" d="M-353.494 1368.11C-381.921 1304.86 -346.537 1228.04 -290.474 1188.29C-285.456 1184.75 -280.328 1181.44 -275.033 1178.4C-221.247 1147.34 -157.083 1140.35 -94.5193 1139.44C-82.4772 1139.27 -70.458 1139.32 -58.4228 1139.45C-1.9147 1140.06 55.4401 1141.97 111.032 1130.3C128.973 1126.54 146.445 1121.43 163.384 1114.81C278.431 1069.96 359.696 961.207 419.715 851.72C424.08 843.778 428.358 835.781 432.604 827.777C495.395 709.488 556.77 591.652 640.187 504.401C676.586 466.314 715.055 425.931 770.362 413.782C836.405 399.169 907.244 426.521 964.356 461.144C1003.24 484.692 1038.88 511.916 1076.98 534.869C1094.87 545.661 1113.31 555.484 1132.86 563.644C1257.25 615.521 1412.56 586.712 1529.72 509.984C1646.99 433.185 1731.12 315.547 1792.09 189.595" stroke="url(#paint17_linear_111_2489)" stroke-width="1.59361" stroke-miterlimit="10"/>
<path opacity="0.54" d="M-350.139 1386.77C-378.62 1323.6 -343.818 1246.84 -288.206 1206.48C-283.236 1202.86 -278.132 1199.51 -272.892 1196.43C-219.431 1164.78 -155.474 1157.01 -92.9285 1155.36C-80.9184 1155.05 -68.8604 1154.95 -56.8649 1154.96C-0.398435 1154.92 56.923 1156.3 112.451 1144.34C130.345 1140.5 147.777 1135.28 164.692 1128.63C279.588 1083.3 360.404 974.471 419.524 864.562C423.834 856.573 428.049 848.561 432.201 840.533C493.864 721.799 553.001 602.877 633.946 513.18C670.141 473.071 708.8 430.698 765.159 417.672C832.457 402.033 904.819 430.529 962.622 466.825C1001.99 491.528 1037.93 520.096 1076.41 544.346C1094.5 555.719 1113.16 566.131 1133.01 574.801C1259.34 629.929 1418.42 601.046 1537.77 522.455C1657.23 443.856 1742.23 323.092 1803.92 194.345" stroke="url(#paint18_linear_111_2489)" stroke-width="1.59361" stroke-miterlimit="10"/>
<path opacity="0.54" d="M-346.753 1405.44C-375.25 1342.34 -341.101 1265.65 -285.94 1224.67C-281.025 1221.01 -275.944 1217.62 -270.752 1214.46C-217.647 1182.23 -153.858 1173.64 -91.331 1171.25C-79.3213 1170.8 -67.2953 1170.56 -55.261 1170.42C1.15622 1169.77 58.4913 1170.55 113.893 1158.29C131.746 1154.34 149.155 1149.08 166.015 1142.38C280.783 1096.63 361.087 987.699 419.379 877.353C423.594 869.34 427.786 861.289 431.882 853.214C492.419 734.035 549.214 614.035 627.781 521.914C663.71 479.769 702.629 435.389 760.025 421.551C828.579 404.885 902.456 434.556 960.957 472.493C1000.82 498.32 1037.03 528.256 1075.92 553.779C1094.23 565.773 1113.12 576.742 1133.28 585.923C1261.52 644.294 1424.4 615.312 1545.93 534.921C1667.58 454.49 1753.47 330.64 1815.85 199.091" stroke="url(#paint19_linear_111_2489)" stroke-width="1.59361" stroke-miterlimit="10"/>
<path opacity="0.54" d="M-343.375 1424.15C-371.927 1361.13 -338.391 1284.49 -283.681 1242.9C-278.79 1239.2 -273.756 1235.73 -268.588 1232.53C-215.815 1199.75 -152.226 1190.34 -89.7413 1187.18C-77.7244 1186.57 -65.7065 1186.22 -53.7042 1185.94C2.67144 1184.64 60.0047 1184.88 115.279 1172.33C133.085 1168.3 150.446 1162.96 167.29 1156.19C281.931 1110.01 361.763 1000.96 419.156 890.194C423.316 882.134 427.412 874.059 431.446 865.969C490.824 746.338 545.246 625.251 621.499 530.723C657.161 486.542 696.365 440.194 754.749 425.464C824.551 407.803 899.951 438.617 959.175 478.236C999.496 505.178 1036 536.49 1075.35 563.293C1093.84 575.869 1112.99 587.436 1133.43 597.118C1263.57 658.764 1430.25 629.684 1553.97 547.461C1677.8 465.23 1764.57 338.223 1827.67 203.911" stroke="url(#paint20_linear_111_2489)" stroke-width="1.59361" stroke-miterlimit="10"/>
<path opacity="0.54" d="M-339.99 1442.82C-368.558 1379.86 -335.636 1303.27 -281.392 1261.14C-276.556 1257.38 -271.539 1253.84 -266.426 1250.6C-214.009 1217.23 -150.588 1207.01 -88.1292 1203.14C-76.1128 1202.39 -64.119 1201.88 -52.1172 1201.46C4.24838 1199.53 61.5168 1199.22 116.696 1186.37C134.462 1182.23 151.799 1176.85 168.628 1170.01C283.148 1123.36 362.492 1014.27 418.994 903.045C423.091 894.971 427.133 886.849 431.072 878.735C489.33 758.627 541.285 636.431 615.287 539.511C650.626 493.246 690.146 444.94 749.566 429.396C820.625 410.709 897.54 442.698 957.461 483.959C998.274 512.024 1035.03 544.735 1074.82 572.78C1093.5 585.937 1112.86 598.093 1133.62 608.286C1265.66 673.174 1436.11 643.988 1562.05 559.973C1688.07 475.911 1775.7 345.81 1839.52 208.704" stroke="url(#paint21_linear_111_2489)" stroke-width="1.59361" stroke-miterlimit="10"/>
<path opacity="0.54" d="M-336.635 1461.48C-365.258 1398.61 -332.95 1322.07 -279.156 1279.32C-274.337 1275.5 -269.382 1271.95 -264.317 1268.62C-212.256 1234.66 -149.011 1223.67 -86.5625 1219.02C-74.578 1218.14 -62.5533 1217.49 -50.5834 1216.94C5.74055 1214.36 63.0072 1213.51 118.059 1200.37C135.778 1196.15 153.099 1190.7 169.88 1183.78C284.273 1136.7 363.144 1027.49 418.748 915.844C422.789 907.722 426.736 899.577 430.613 891.448C487.744 770.895 537.137 647.567 608.982 548.278C643.96 499.953 683.827 449.695 744.299 433.274C816.645 413.569 895.044 446.726 955.664 489.628C996.929 518.841 1033.99 552.896 1074.23 582.221C1093.13 595.999 1112.72 608.713 1133.78 619.416C1267.74 687.547 1441.98 658.294 1570.11 572.448C1698.31 486.585 1786.81 353.359 1851.32 213.451" stroke="url(#paint22_linear_111_2489)" stroke-width="1.59361" stroke-miterlimit="10"/>
<path opacity="0.54" d="M-333.249 1480.15C-361.887 1417.35 -330.232 1340.88 -276.858 1297.53C-272.094 1293.66 -267.187 1290.02 -262.114 1286.66C-210.378 1252.12 -147.332 1240.31 -84.9097 1234.96C-72.9256 1233.94 -60.9251 1233.13 -48.9634 1232.47C7.31127 1229.28 64.5915 1227.83 119.509 1214.42C137.188 1210.09 154.454 1204.6 171.219 1197.61C285.453 1150.09 363.875 1040.8 418.588 928.698C422.566 920.561 426.458 912.369 430.247 904.185C486.252 783.187 533.075 658.757 602.778 557.036C637.34 506.605 677.618 454.411 739.095 437.169C812.688 416.469 892.61 450.769 953.96 495.321C995.717 525.657 1033.05 561.08 1073.7 591.678C1092.79 606.038 1112.62 619.309 1133.98 630.554C1269.83 701.959 1447.88 672.577 1578.19 584.93C1708.55 497.228 1797.95 360.916 1863.18 218.213" stroke="url(#paint23_linear_111_2489)" stroke-width="1.59361" stroke-miterlimit="10"/>
<path opacity="0.54" d="M-329.872 1498.85C-358.565 1436.13 -327.492 1359.72 -274.608 1315.78C-269.899 1311.86 -265.008 1308.16 -259.99 1304.76C-208.618 1269.66 -145.741 1257.04 -83.3602 1250.91C-71.3766 1249.75 -59.3765 1248.8 -47.4075 1247.98C8.82556 1244.14 66.0725 1242.16 120.894 1228.45C138.526 1224.05 155.776 1218.48 172.525 1211.42C286.639 1163.44 364.573 1054.09 418.395 941.542C422.318 933.357 426.115 925.142 429.842 916.942C484.719 795.5 528.878 669.946 596.558 565.855C630.696 513.349 671.423 459.195 733.912 441.1C808.762 419.374 890.199 454.85 952.239 501.075C994.457 532.526 1032.08 569.324 1073.16 601.196C1092.46 616.176 1112.52 630.005 1134.19 641.761C1271.95 716.408 1453.8 686.959 1586.3 597.481C1718.84 507.979 1809.1 368.542 1875.06 223.044" stroke="url(#paint24_linear_111_2489)" stroke-width="1.59361" stroke-miterlimit="10"/>
<path opacity="0.54" d="M-326.487 1517.52C-355.195 1454.86 -324.775 1378.53 -272.31 1333.98C-267.617 1329.99 -262.789 1326.27 -257.78 1322.77C-206.733 1287.09 -144.054 1273.65 -81.6924 1266.78C-69.733 1265.45 -57.7412 1264.4 -45.7727 1263.45C10.4188 1258.96 67.664 1256.44 122.39 1242.45C139.975 1237.96 157.185 1232.29 173.902 1225.22C287.889 1176.8 365.35 1067.34 418.305 954.376C422.165 946.176 425.899 937.945 429.539 929.691C483.289 807.804 524.744 681.149 590.417 574.626C624.075 519.998 665.269 463.954 728.801 445.015C804.907 422.262 887.859 458.913 950.598 506.78C993.308 539.354 1031.22 577.56 1072.73 610.673C1092.22 626.234 1112.53 640.661 1134.48 652.919C1274.14 730.84 1459.8 701.261 1594.52 609.96C1729.24 518.658 1820.38 376.095 1887.06 227.802" stroke="url(#paint25_linear_111_2489)" stroke-width="1.59361" stroke-miterlimit="10"/>
<path opacity="0.54" d="M-323.133 1536.18C-351.896 1473.61 -322.051 1397.3 -270.076 1352.17C-265.438 1348.13 -260.626 1344.34 -255.672 1340.79C-204.981 1304.52 -142.479 1290.31 -80.1348 1282.7C-68.1759 1281.24 -56.1767 1280.02 -44.2479 1278.95C11.9021 1273.82 69.1531 1270.74 123.745 1256.48C141.289 1251.88 158.476 1246.17 175.146 1239.02C289.005 1190.17 365.986 1080.63 418.05 967.207C421.823 958.952 425.494 950.706 429.079 942.404C481.702 820.072 520.414 692.34 584.111 583.393C617.281 526.674 658.956 468.678 723.502 448.886C800.855 425.138 885.331 462.933 948.768 512.442C991.938 546.132 1030.15 585.713 1072.07 620.099C1091.76 636.242 1112.29 651.257 1134.55 664.026C1276.12 745.19 1465.57 715.513 1602.48 622.411C1739.39 529.277 1831.39 383.621 1898.79 232.534" stroke="url(#paint26_linear_111_2489)" stroke-width="1.59361" stroke-miterlimit="10"/>
<path opacity="0.54" d="M-319.747 1554.86C-348.525 1492.35 -319.333 1416.11 -267.809 1370.36C-263.195 1366.29 -258.43 1362.42 -253.531 1358.82C-203.173 1322 -140.87 1306.97 -78.5369 1298.59C-66.5784 1297 -54.6113 1295.64 -42.6752 1294.4C13.4332 1288.63 70.6509 1285 125.147 1270.45C142.644 1265.78 159.815 1259.99 176.469 1252.78C290.201 1203.49 366.677 1093.82 417.874 979.99C421.584 971.72 425.2 963.426 428.69 955.102C480.186 832.325 516.085 703.532 577.884 592.113C610.504 533.287 652.747 473.394 718.305 452.75C796.914 427.975 882.913 466.914 947.064 518.135C990.718 552.98 1029.2 593.897 1071.58 629.564C1091.48 646.327 1112.24 661.901 1134.81 675.18C1278.29 759.586 1471.53 729.843 1610.63 634.909C1749.72 539.975 1842.59 391.194 1910.72 237.312" stroke="url(#paint27_linear_111_2489)" stroke-width="1.59361" stroke-miterlimit="10"/>
<path opacity="0.54" d="M-316.37 1573.56C-345.203 1511.14 -316.625 1434.95 -265.528 1388.63C-260.969 1384.51 -256.228 1380.6 -251.345 1376.93C-201.343 1339.52 -139.208 1323.68 -76.9012 1314.59C-64.9432 1312.86 -52.9687 1311.34 -41.0723 1310C15.0183 1303.62 72.2104 1299.42 126.58 1284.57C144.037 1279.78 161.152 1273.95 177.79 1266.66C291.371 1216.91 367.391 1107.19 417.696 992.908C421.352 984.591 424.873 976.274 428.3 967.933C478.669 844.712 511.715 714.881 571.648 600.998C603.718 540.066 646.505 478.236 713.107 456.747C792.972 430.946 880.486 471.06 945.335 523.923C989.481 559.891 1028.23 602.176 1071.03 639.116C1091.12 656.461 1112.14 672.631 1134.98 686.413C1280.36 774.094 1477.42 744.221 1618.69 647.487C1759.97 550.722 1853.71 398.846 1922.52 242.162" stroke="url(#paint28_linear_111_2489)" stroke-width="1.59361" stroke-miterlimit="10"/>
<path opacity="0.54" d="M-313.016 1592.22C-341.865 1529.86 -313.908 1453.76 -263.293 1406.82C-258.782 1402.62 -254.065 1398.67 -249.237 1394.95C-199.591 1356.96 -137.632 1340.33 -75.3671 1330.47C-63.4333 1328.57 -51.4671 1326.94 -39.5319 1325.44C16.5171 1318.42 73.7151 1313.65 127.95 1298.53C145.359 1293.67 162.459 1287.77 179.049 1280.4C292.503 1230.22 368.05 1120.38 417.457 1005.67C421.049 997.341 424.515 988.977 427.847 980.614C477.089 856.947 507.243 726.103 565.357 609.701C596.806 546.678 640.201 482.927 707.815 460.585C788.928 433.789 877.965 475.047 943.512 529.552C988.119 566.635 1027.16 610.296 1070.38 648.54C1090.69 666.475 1111.9 683.227 1135.05 697.518C1282.33 788.442 1483.19 758.502 1626.65 659.937C1770.12 561.371 1864.72 406.37 1934.26 246.891" stroke="url(#paint29_linear_111_2489)" stroke-width="1.59361" stroke-miterlimit="10"/>
<path opacity="0.54" d="M-309.629 1610.89C-338.501 1548.63 -311.19 1472.56 -260.994 1425.02C-256.506 1420.78 -251.868 1416.75 -247.033 1413C-197.711 1374.42 -135.952 1356.98 -73.7128 1346.41C-61.7795 1344.37 -49.8137 1342.61 -37.9105 1340.97C18.0969 1333.3 75.2617 1327.99 129.401 1312.58C146.795 1307.65 163.815 1301.66 180.413 1294.26C293.739 1243.65 368.806 1133.73 417.353 1018.58C420.89 1010.2 424.262 1001.81 427.539 993.397C475.661 869.254 502.907 737.459 559.202 618.538C590.03 553.425 634.04 487.721 702.698 464.535C785.067 436.713 875.619 479.145 941.865 535.292C986.963 573.499 1026.26 618.559 1069.94 658.052C1090.44 676.599 1111.9 693.917 1135.36 708.719C1284.56 802.885 1489.21 772.847 1634.86 672.482C1780.51 572.085 1876.01 413.998 1946.24 251.717" stroke="url(#paint30_linear_111_2489)" stroke-width="1.59361" stroke-miterlimit="10"/>
<path opacity="0.54" d="M-306.243 1629.56C-337.739 1561.81 -303.261 1477.69 -244.892 1431.03C-186.531 1384.39 -110.28 1367.42 -36.3457 1356.46C37.5885 1345.49 113.623 1338.75 181.728 1308.05C303.131 1253.28 380.154 1130.68 427.11 1006.12C474.106 881.529 498.382 748.768 552.928 627.311C583.104 560.1 627.784 492.491 697.454 468.452C781.079 439.603 873.146 483.211 940.114 541.039C1007.08 598.867 1061.16 671.954 1135.51 719.911C1286.61 817.352 1495.06 787.215 1642.9 685.018C1790.74 582.821 1887.11 421.609 1958.06 256.533" stroke="url(#paint31_linear_111_2489)" stroke-width="1.59361" stroke-miterlimit="10"/>
<defs>
<linearGradient id="paint0_linear_111_2489" x1="1559.01" y1="57.2732" x2="-289.504" y2="1237.76" gradientUnits="userSpaceOnUse">
<stop stop-color="white"/>
<stop offset="0.2294" stop-color="white"/>
<stop offset="0.711" stop-color="white"/>
<stop offset="1" stop-color="white"/>
</linearGradient>
<linearGradient id="paint1_linear_111_2489" x1="1570.86" y1="61.5484" x2="-295.813" y2="1242.95" gradientUnits="userSpaceOnUse">
<stop stop-color="white"/>
<stop offset="0.2294" stop-color="white"/>
<stop offset="0.711" stop-color="white"/>
<stop offset="1" stop-color="white"/>
</linearGradient>
<linearGradient id="paint2_linear_111_2489" x1="1582.69" y1="65.7879" x2="-302.06" y2="1248.01" gradientUnits="userSpaceOnUse">
<stop stop-color="white"/>
<stop offset="0.2294" stop-color="white"/>
<stop offset="0.711" stop-color="white"/>
<stop offset="1" stop-color="white"/>
</linearGradient>
<linearGradient id="paint3_linear_111_2489" x1="1594.47" y1="70.1148" x2="-308.138" y2="1253.09" gradientUnits="userSpaceOnUse">
<stop stop-color="white"/>
<stop offset="0.2294" stop-color="white"/>
<stop offset="0.711" stop-color="white"/>
<stop offset="1" stop-color="white"/>
</linearGradient>
<linearGradient id="paint4_linear_111_2489" x1="1606.4" y1="74.4781" x2="-314.002" y2="1258.23" gradientUnits="userSpaceOnUse">
<stop stop-color="white"/>
<stop offset="0.2294" stop-color="white"/>
<stop offset="0.711" stop-color="white"/>
<stop offset="1" stop-color="white"/>
</linearGradient>
<linearGradient id="paint5_linear_111_2489" x1="1618.25" y1="78.7253" x2="-319.88" y2="1263.11" gradientUnits="userSpaceOnUse">
<stop stop-color="white"/>
<stop offset="0.2294" stop-color="white"/>
<stop offset="0.711" stop-color="white"/>
<stop offset="1" stop-color="white"/>
</linearGradient>
<linearGradient id="paint6_linear_111_2489" x1="1630.06" y1="83.0596" x2="-325.585" y2="1267.98" gradientUnits="userSpaceOnUse">
<stop stop-color="white"/>
<stop offset="0.2294" stop-color="white"/>
<stop offset="0.711" stop-color="white"/>
<stop offset="1" stop-color="white"/>
</linearGradient>
<linearGradient id="paint7_linear_111_2489" x1="1641.85" y1="87.3214" x2="-331.267" y2="1272.71" gradientUnits="userSpaceOnUse">
<stop stop-color="white"/>
<stop offset="0.2294" stop-color="white"/>
<stop offset="0.711" stop-color="white"/>
<stop offset="1" stop-color="white"/>
</linearGradient>
<linearGradient id="paint8_linear_111_2489" x1="1653.66" y1="91.6543" x2="-336.785" y2="1277.45" gradientUnits="userSpaceOnUse">
<stop stop-color="white"/>
<stop offset="0.2294" stop-color="white"/>
<stop offset="0.711" stop-color="white"/>
<stop offset="1" stop-color="white"/>
</linearGradient>
<linearGradient id="paint9_linear_111_2489" x1="1665.59" y1="95.9915" x2="-342.104" y2="1282.26" gradientUnits="userSpaceOnUse">
<stop stop-color="white"/>
<stop offset="0.2294" stop-color="white"/>
<stop offset="0.711" stop-color="white"/>
<stop offset="1" stop-color="white"/>
</linearGradient>
<linearGradient id="paint10_linear_111_2489" x1="1677.4" y1="100.291" x2="-347.404" y2="1286.85" gradientUnits="userSpaceOnUse">
<stop stop-color="white"/>
<stop offset="0.2294" stop-color="white"/>
<stop offset="0.711" stop-color="white"/>
<stop offset="1" stop-color="white"/>
</linearGradient>
<linearGradient id="paint11_linear_111_2489" x1="1689.23" y1="104.527" x2="-352.664" y2="1291.35" gradientUnits="userSpaceOnUse">
<stop stop-color="white"/>
<stop offset="0.2294" stop-color="white"/>
<stop offset="0.711" stop-color="white"/>
<stop offset="1" stop-color="white"/>
</linearGradient>
<linearGradient id="paint12_linear_111_2489" x1="1701.08" y1="108.804" x2="-357.79" y2="1295.82" gradientUnits="userSpaceOnUse">
<stop stop-color="white"/>
<stop offset="0.2294" stop-color="white"/>
<stop offset="0.711" stop-color="white"/>
<stop offset="1" stop-color="white"/>
</linearGradient>
<linearGradient id="paint13_linear_111_2489" x1="1712.91" y1="113.15" x2="-362.74" y2="1300.35" gradientUnits="userSpaceOnUse">
<stop stop-color="white"/>
<stop offset="0.2294" stop-color="white"/>
<stop offset="0.711" stop-color="white"/>
<stop offset="1" stop-color="white"/>
</linearGradient>
<linearGradient id="paint14_linear_111_2489" x1="1724.79" y1="117.463" x2="-367.6" y2="1304.85" gradientUnits="userSpaceOnUse">
<stop stop-color="white"/>
<stop offset="0.2294" stop-color="white"/>
<stop offset="0.711" stop-color="white"/>
<stop offset="1" stop-color="white"/>
</linearGradient>
<linearGradient id="paint15_linear_111_2489" x1="1736.58" y1="121.693" x2="-372.467" y2="1309.08" gradientUnits="userSpaceOnUse">
<stop stop-color="white"/>
<stop offset="0.2294" stop-color="white"/>
<stop offset="0.711" stop-color="white"/>
<stop offset="1" stop-color="white"/>
</linearGradient>
<linearGradient id="paint16_linear_111_2489" x1="1748.43" y1="126.003" x2="-377.176" y2="1313.41" gradientUnits="userSpaceOnUse">
<stop stop-color="white"/>
<stop offset="0.2294" stop-color="white"/>
<stop offset="0.711" stop-color="white"/>
<stop offset="1" stop-color="white"/>
</linearGradient>
<linearGradient id="paint17_linear_111_2489" x1="1760.25" y1="130.379" x2="-381.715" y2="1317.8" gradientUnits="userSpaceOnUse">
<stop stop-color="white"/>
<stop offset="0.2294" stop-color="white"/>
<stop offset="0.711" stop-color="white"/>
<stop offset="1" stop-color="white"/>
</linearGradient>
<linearGradient id="paint18_linear_111_2489" x1="1772.07" y1="134.645" x2="-386.261" y2="1322.01" gradientUnits="userSpaceOnUse">
<stop stop-color="white"/>
<stop offset="0.2294" stop-color="white"/>
<stop offset="0.711" stop-color="white"/>
<stop offset="1" stop-color="white"/>
</linearGradient>
<linearGradient id="paint19_linear_111_2489" x1="1783.99" y1="138.906" x2="-390.665" y2="1326.23" gradientUnits="userSpaceOnUse">
<stop stop-color="white"/>
<stop offset="0.2294" stop-color="white"/>
<stop offset="0.711" stop-color="white"/>
<stop offset="1" stop-color="white"/>
</linearGradient>
<linearGradient id="paint20_linear_111_2489" x1="1795.8" y1="143.243" x2="-395.008" y2="1330.43" gradientUnits="userSpaceOnUse">
<stop stop-color="white"/>
<stop offset="0.2294" stop-color="white"/>
<stop offset="0.711" stop-color="white"/>
<stop offset="1" stop-color="white"/>
</linearGradient>
<linearGradient id="paint21_linear_111_2489" x1="1807.64" y1="147.552" x2="-399.226" y2="1334.57" gradientUnits="userSpaceOnUse">
<stop stop-color="white"/>
<stop offset="0.2294" stop-color="white"/>
<stop offset="0.711" stop-color="white"/>
<stop offset="1" stop-color="white"/>
</linearGradient>
<linearGradient id="paint22_linear_111_2489" x1="1819.42" y1="151.814" x2="-403.437" y2="1338.62" gradientUnits="userSpaceOnUse">
<stop stop-color="white"/>
<stop offset="0.2294" stop-color="white"/>
<stop offset="0.711" stop-color="white"/>
<stop offset="1" stop-color="white"/>
</linearGradient>
<linearGradient id="paint23_linear_111_2489" x1="1831.28" y1="156.092" x2="-407.507" y2="1342.67" gradientUnits="userSpaceOnUse">
<stop stop-color="white"/>
<stop offset="0.2294" stop-color="white"/>
<stop offset="0.711" stop-color="white"/>
<stop offset="1" stop-color="white"/>
</linearGradient>
<linearGradient id="paint24_linear_111_2489" x1="1843.14" y1="160.439" x2="-411.462" y2="1346.81" gradientUnits="userSpaceOnUse">
<stop stop-color="white"/>
<stop offset="0.2294" stop-color="white"/>
<stop offset="0.711" stop-color="white"/>
<stop offset="1" stop-color="white"/>
</linearGradient>
<linearGradient id="paint25_linear_111_2489" x1="1855.12" y1="164.712" x2="-415.311" y2="1350.91" gradientUnits="userSpaceOnUse">
<stop stop-color="white"/>
<stop offset="0.2294" stop-color="white"/>
<stop offset="0.711" stop-color="white"/>
<stop offset="1" stop-color="white"/>
</linearGradient>
<linearGradient id="paint26_linear_111_2489" x1="1866.84" y1="168.959" x2="-419.223" y2="1354.76" gradientUnits="userSpaceOnUse">
<stop stop-color="white"/>
<stop offset="0.2294" stop-color="white"/>
<stop offset="0.711" stop-color="white"/>
<stop offset="1" stop-color="white"/>
</linearGradient>
<linearGradient id="paint27_linear_111_2489" x1="1878.76" y1="173.253" x2="-422.928" y2="1358.79" gradientUnits="userSpaceOnUse">
<stop stop-color="white"/>
<stop offset="0.2294" stop-color="white"/>
<stop offset="0.711" stop-color="white"/>
<stop offset="1" stop-color="white"/>
</linearGradient>
<linearGradient id="paint28_linear_111_2489" x1="1890.55" y1="177.62" x2="-426.584" y2="1362.8" gradientUnits="userSpaceOnUse">
<stop stop-color="white"/>
<stop offset="0.2294" stop-color="white"/>
<stop offset="0.711" stop-color="white"/>
<stop offset="1" stop-color="white"/>
</linearGradient>
<linearGradient id="paint29_linear_111_2489" x1="1902.27" y1="181.866" x2="-430.252" y2="1366.57" gradientUnits="userSpaceOnUse">
<stop stop-color="white"/>
<stop offset="0.2294" stop-color="white"/>
<stop offset="0.711" stop-color="white"/>
<stop offset="1" stop-color="white"/>
</linearGradient>
<linearGradient id="paint30_linear_111_2489" x1="1914.24" y1="186.206" x2="-433.67" y2="1370.65" gradientUnits="userSpaceOnUse">
<stop stop-color="white"/>
<stop offset="0.2294" stop-color="white"/>
<stop offset="0.711" stop-color="white"/>
<stop offset="1" stop-color="white"/>
</linearGradient>
<linearGradient id="paint31_linear_111_2489" x1="1926.04" y1="190.541" x2="-437.091" y2="1374.58" gradientUnits="userSpaceOnUse">
<stop stop-color="white"/>
<stop offset="0.2294" stop-color="white"/>
<stop offset="0.711" stop-color="white"/>
<stop offset="1" stop-color="white"/>
</linearGradient>
</defs>
</svg>
