<svg width="131" height="131" viewBox="0 0 131 131" fill="none" xmlns="http://www.w3.org/2000/svg">
<path d="M122.2 37.9411C123.421 37.3478 123.933 35.8749 123.295 34.6774C117.332 23.4966 108.244 14.2682 97.1152 8.1351C85.2683 1.60603 71.6906 -1.09506 58.2469 0.402817C44.8033 1.9007 32.1531 7.52407 22.0338 16.5006C11.9146 25.4771 4.82277 37.3664 1.73235 50.5355C-1.35808 63.7046 -0.295481 77.5075 4.77419 90.0484C9.84386 102.589 18.6719 113.253 30.0459 120.575C41.4198 127.897 54.7816 131.518 68.2962 130.94C80.9912 130.398 93.236 126.176 103.55 118.815C104.655 118.026 104.851 116.479 104.021 115.405C103.192 114.331 101.652 114.136 100.545 114.921C91.0361 121.664 79.7673 125.531 68.0864 126.03C55.5858 126.564 43.2265 123.215 32.706 116.443C22.1855 109.67 14.0198 99.8065 9.33047 88.2066C4.64118 76.6066 3.65831 63.8393 6.51686 51.6583C9.37541 39.4773 15.9352 28.48 25.2951 20.177C34.6551 11.874 46.3562 6.67258 58.7911 5.28708C71.2261 3.90159 83.7851 6.40002 94.7431 12.4392C104.983 18.0824 113.355 26.5587 118.871 36.8275C119.514 38.023 120.979 38.5343 122.2 37.9411Z" fill="white"/>
<circle cx="118.841" cy="34.1228" r="10.5898" fill="white"/>
</svg>
