<svg width="1074" height="384" viewBox="0 0 1074 384" fill="none" xmlns="http://www.w3.org/2000/svg">
<path d="M28.7209 36.1135C66.3547 54.9852 99.6972 81.4074 126.669 113.733C166.422 161.968 164.259 191.519 202.441 219.073C239.55 245.834 290.484 253.207 331.807 243.098C388.192 229.293 390.742 191.722 463.021 132.214C505.527 97.248 585.235 31.6042 679.247 37.9616C726.743 41.1773 773.961 62.5041 817.853 82.3155C871.651 106.599 879.376 119.074 908.409 124.821C942.895 131.659 996.212 126.799 1072.89 65.6828" stroke="white" stroke-opacity="0.6" stroke-width="0.4" stroke-miterlimit="10"/>
<path d="M27.6679 43.0254C61.5795 59.6044 92.1508 82.2821 117.854 109.926C120.312 112.606 122.77 115.359 125.247 118.187C165.406 164.906 163.816 193.126 201.517 219.998C217.951 231.756 236.558 240.13 256.258 244.632C270.368 247.845 284.839 249.187 299.299 248.624C310.113 248.198 320.844 246.555 331.29 243.727C342.93 240.735 353.995 235.839 364.038 229.238C382.519 217.041 395.455 200.574 415.359 179.913C430.352 164.363 446.664 150.141 464.112 137.407C473.352 130.569 484.145 122.327 496.62 113.881C529.996 91.2233 572.705 66.6069 623.953 58.1057C641.342 55.1386 659.011 54.1466 676.623 55.1488C679.321 55.2966 682.001 55.5184 684.644 55.7771C710.813 58.309 735.743 65.0175 761.21 73.9253C780.264 80.5045 798.283 88.7099 816.154 96.4164C823.638 99.706 830.328 102.7 836.372 105.509C872.871 122.53 882.352 131.659 907.283 135.651C926.225 138.682 950.731 138.146 981.834 127.353C1007.34 118.519 1037.54 102.607 1072.89 76.2908" stroke="white" stroke-opacity="0.6" stroke-width="0.4" stroke-miterlimit="10"/>
<path d="M26.6886 49.9741C60.249 65.9266 90.632 87.8434 116.358 114.657C118.822 117.244 121.286 119.893 123.75 122.604C164.408 167.826 163.428 194.679 200.612 220.922C217.085 232.834 235.751 241.369 255.537 246.037C269.73 249.27 284.297 250.563 298.838 249.881C309.667 249.329 320.39 247.467 330.773 244.337C342.355 240.989 353.36 235.898 363.41 229.238C382.63 216.671 396.269 200.74 415.951 181.447C431.014 166.803 447.515 153.714 465.202 142.378C474.443 136.316 484.995 128.887 497.34 121.532C530.236 101.924 570.34 81.3545 621.07 74.646C638.596 72.2312 656.308 71.4393 673.98 72.2804C676.716 72.4283 679.414 72.6131 682.075 72.8534C708.687 75.1819 732.99 80.9295 758.974 88.8577C778.545 94.8455 796.398 102.903 814.416 110.499C821.901 113.64 828.665 116.505 834.856 119.185C871.467 135.097 881.28 143.487 906.118 146.444C925.043 148.699 949.364 147.46 980.633 136.538C1006.17 127.593 1036.76 111.977 1072.89 86.9357" stroke="white" stroke-opacity="0.6" stroke-width="0.4" stroke-miterlimit="10"/>
<path d="M25.5241 56.812C58.8101 72.1604 89.0692 93.3617 114.861 119.406C117.319 121.92 119.795 124.47 122.253 127.076C163.447 170.783 162.985 196.305 199.669 221.846C217.041 233.932 234.154 242.636 254.761 247.46C269.049 250.72 283.724 251.964 298.357 251.156C309.207 250.474 319.923 248.387 330.236 244.947C341.767 241.246 352.726 235.959 362.8 229.238C382.722 216.301 397.045 200.944 416.524 183.036C431.671 169.29 448.374 157.363 466.292 147.497C475.625 142.212 485.864 135.596 498.061 129.331C530.643 112.587 567.974 96.1946 618.187 91.2417C635.851 89.3866 653.626 88.7998 671.374 89.4861C674.128 89.6154 676.919 89.7818 679.506 90.0035C705.617 92.1421 731.462 96.7899 756.682 103.883C776.771 109.261 794.475 117.244 812.716 124.637C820.201 127.667 827.02 130.384 833.378 132.934C870.081 147.719 880.245 155.333 904.972 157.311C923.897 158.826 948.088 156.83 979.469 145.779C1005.06 136.834 1035.98 121.328 1072.89 97.4698" stroke="white" stroke-opacity="0.6" stroke-width="0.4" stroke-miterlimit="10"/>
<path d="M24.452 63.7053C57.4162 78.457 87.5158 98.9154 113.363 124.138C115.821 126.577 118.316 129.016 120.756 131.53C162.393 173.795 162.578 197.82 198.745 222.788C216.505 235.004 233.045 243.949 254.021 248.883C268.392 252.175 283.164 253.364 297.876 252.413C308.776 251.622 319.512 249.315 329.774 245.556C341.227 241.533 352.13 236.088 362.227 229.349C382.851 216.024 397.95 201.295 417.152 184.607C430.698 172.853 446.721 162.578 467.438 152.598C476.845 148.052 486.861 142.23 498.855 137.074C531.308 123.121 565.682 111.016 615.285 107.819C633.062 106.508 650.895 106.119 668.713 106.655C671.504 106.766 674.257 106.913 676.9 107.098C703.059 108.813 729.025 112.745 754.52 118.852C775.163 123.62 792.609 131.548 811.034 138.682C818.426 141.602 825.431 144.226 831.936 146.61C868.713 160.36 879.228 167.105 903.882 168.085C922.806 168.843 946.831 166.126 978.341 154.963C1003.94 145.889 1035.23 130.661 1072.89 108.022" stroke="white" stroke-opacity="0.6" stroke-width="0.4" stroke-miterlimit="10"/>
<path d="M23.399 70.5986C56.034 84.7636 85.9665 104.479 111.867 128.869C114.325 131.216 116.82 133.544 119.259 135.947C161.395 176.604 162.153 199.428 197.784 223.694C215.932 236.057 231.9 245.242 253.227 250.287C267.693 253.607 282.575 254.741 297.378 253.651C308.28 252.746 318.987 250.224 329.146 246.166C340.531 241.803 351.386 236.167 361.506 229.367C382.852 215.691 398.745 201.646 417.632 186.178C431.586 174.793 447.96 165.849 468.436 157.68C477.954 153.873 487.749 148.883 499.484 144.744C532.066 133.47 563.28 125.764 612.365 124.285C629.423 123.768 648.292 123.121 666.052 123.731C668.88 123.823 671.596 123.953 674.295 124.101C700.461 125.391 726.496 128.603 752.191 133.711C773.352 137.869 790.669 145.742 809.297 152.727C816.782 155.536 823.749 157.957 830.421 160.249C867.272 173.056 878.194 179.34 902.681 178.952C921.605 178.656 945.483 175.496 977.103 164.167C1002.72 154.927 1034.39 140.013 1072.82 118.612" stroke="white" stroke-opacity="0.6" stroke-width="0.4" stroke-miterlimit="10"/>
<path d="M22.3268 77.4735C54.6387 91.066 84.4091 110.044 110.37 133.6C112.828 135.854 115.341 138.091 117.762 140.382C160.416 179.561 161.746 200.981 196.842 224.618C215.322 237.092 230.754 246.536 252.469 251.71C267.003 255.038 281.962 256.117 296.823 254.908C307.761 253.877 318.469 251.133 328.555 246.776C339.846 242.054 350.648 236.235 360.804 229.404C382.851 215.34 399.613 201.905 418.094 187.73C432.472 176.641 449.216 169.138 469.416 162.762C479.081 159.695 489.597 157.92 500.094 152.579C534.154 151.156 560.951 137.795 609.353 140.937C626.447 142.064 645.612 140.493 663.298 140.937C666.163 141.029 668.935 141.121 671.596 141.251C700.094 142.6 721.901 144.171 749.844 148.643C771.522 152.173 788.654 160.009 807.486 166.773C814.878 169.471 821.993 171.763 828.831 173.925C865.7 185.605 877.011 190.558 901.461 189.633C920.404 188.876 944.133 184.699 975.865 173.278C1001.52 164.038 1033.53 149.253 1072.74 129.09" stroke="white" stroke-opacity="0.6" stroke-width="0.4" stroke-miterlimit="10"/>
<path d="M21.2552 84.3669C53.2402 97.3861 82.847 115.615 108.873 138.312C111.349 140.493 113.863 142.618 116.265 144.799C159.529 182.463 161.414 202.515 195.973 225.542C214.916 238.146 229.701 247.83 251.767 253.134C266.427 256.503 281.53 257.52 296.509 256.146C308.688 255.13 318.686 251.47 328.185 247.368C339.393 242.296 350.156 236.293 360.36 229.423C383.11 214.989 400.815 202.256 418.871 189.282C433.655 178.619 450.843 172.465 470.617 167.826C480.486 165.516 490.761 164.98 500.944 160.323C535.004 162.947 558.66 155.61 606.581 157.477C623.768 158.161 643.154 157.754 660.785 158.142C663.668 158.142 666.477 158.272 669.12 158.364C698.098 159.454 719.277 160.009 747.719 163.724C769.896 166.643 786.862 174.424 805.897 180.985C813.289 183.572 820.46 185.716 827.464 187.749C864.426 198.43 876.087 202.533 900.445 200.556C919.388 199.059 942.951 194.161 974.812 182.611C1000.48 173.37 1032.86 158.734 1072.85 139.809" stroke="white" stroke-opacity="0.6" stroke-width="0.4" stroke-miterlimit="10"/>
<path d="M20.2012 91.2417C51.8445 103.708 81.2781 121.179 107.375 142.988C109.852 145.095 112.384 147.128 114.879 149.179C158.586 185.327 161.081 203.993 195.049 226.392C214.38 239.125 228.591 249.068 251.027 254.464C265.758 257.871 280.946 258.845 295.991 257.347C308.336 256.22 318.168 252.265 327.612 247.922C339.273 242.562 348.865 236.279 359.676 229.441C383.147 214.656 404.381 205.767 419.406 190.835C436.427 183.572 452.339 169.711 471.725 172.908C481.816 174.572 491.87 172.021 501.701 168.066C535.78 174.719 556.423 170.524 603.734 174.036C620.995 175.311 640.696 175.015 658.179 175.292C661.117 175.292 663.926 175.292 666.588 175.459C696.009 176.29 716.578 175.773 745.501 178.693C768.251 180.966 784.994 188.709 804.215 195.067C811.607 197.543 818.851 199.558 826.003 201.443C862.965 211.145 875.089 214.268 899.354 211.367C918.315 209.094 941.731 203.476 973.684 191.796C999.391 182.444 1032.05 168.066 1072.89 150.38" stroke="white" stroke-opacity="0.6" stroke-width="0.4" stroke-miterlimit="10"/>
<path d="M19.1296 98.1166C50.4495 110.055 79.7172 126.803 105.879 147.756C108.355 149.77 110.887 151.618 113.4 153.633C157.754 188.266 160.656 205.545 194.125 227.334C213.862 240.178 227.483 250.38 250.27 255.906C265.093 259.328 280.384 260.246 295.511 258.622C308.022 257.384 317.688 253.078 327.094 248.55C338.534 243.006 348.015 236.427 359.048 229.46C383.221 214.268 405.564 206.433 420.035 192.369C437.647 185.9 454.557 172.927 472.871 177.972C482.888 180.726 492.997 179.081 502.441 175.81C536.538 186.492 554.187 185.475 600.87 190.594C618.205 192.443 638.053 192.295 655.573 192.443H664.019C693.921 192.997 713.917 191.463 743.283 193.551C766.569 195.196 783.109 202.921 802.533 209.057C809.925 211.422 817.225 213.289 824.544 215.026C861.505 223.786 874.072 225.948 898.245 222.086C917.207 219.036 940.474 212.698 972.538 200.907C998.264 191.463 1031.36 177.325 1072.91 160.859" stroke="white" stroke-opacity="0.6" stroke-width="0.4" stroke-miterlimit="10"/>
<path d="M18.058 104.973C49.017 116.404 78.0895 132.407 104.308 152.45C106.803 154.298 109.335 156.146 111.848 157.994C156.683 191.094 160.213 206.987 193.164 228.221C213.308 241.158 226.43 251.637 249.494 257.273C264.4 260.74 279.792 261.609 294.994 259.842C307.69 258.493 317.171 253.947 326.522 249.123C337.74 243.283 347.128 236.538 358.383 229.46C383.277 213.899 406.71 207.079 420.515 193.903C438.738 188.211 455.629 186.178 473.87 183.017C484.33 185.013 493.977 186.104 503.106 183.535C537.204 198.32 551.822 200.426 597.913 207.098C615.322 209.63 635.429 209.759 652.875 209.556C655.869 209.556 658.734 209.556 661.376 209.556C691.759 209.168 711.09 207.246 740.973 208.539C764.814 209.556 781.132 217.244 800.777 223.176C808.17 225.412 815.562 227.168 822.955 228.72C859.916 236.538 872.853 237.702 896.989 232.879C915.969 229.072 939.07 222.012 971.282 210.092C997.026 200.574 1030.42 186.658 1072.8 171.412" stroke="white" stroke-opacity="0.6" stroke-width="0.4" stroke-miterlimit="10"/>
<path d="M17.0045 111.848C47.6581 122.765 76.5861 138.026 102.903 157.163C105.38 159.011 107.93 160.73 110.444 162.467C155.87 194.014 159.917 208.539 192.277 229.127C212.828 242.211 225.265 252.93 248.773 258.696C263.807 262.204 279.344 263.011 294.661 261.08C307.597 259.62 316.93 254.797 326.078 249.733C337.167 243.653 346.407 236.686 357.847 229.404C383.424 213.474 407.985 207.671 421.162 195.381C439.976 190.484 457.126 189.837 475.034 187.989C485.623 190.946 495.123 193.053 503.919 191.168C538.017 209.926 549.623 215.322 595.104 223.546C612.587 226.706 632.934 226.928 650.325 226.614C653.356 226.614 656.22 226.614 658.881 226.614C689.707 225.93 708.447 222.918 738.811 223.453C763.169 223.842 779.303 231.511 799.151 237.222C806.543 239.365 813.936 240.918 821.605 242.415C858.567 249.327 872.021 249.474 895.991 243.69C914.971 239.107 937.924 231.345 970.247 219.295C996.009 209.704 1029.85 196.009 1072.93 182.001" stroke="white" stroke-opacity="0.6" stroke-width="0.4" stroke-miterlimit="10"/>
<path d="M15.9329 118.704C46.2573 129.135 75.0145 143.66 101.407 161.875C103.902 163.723 106.452 165.239 108.965 166.884C155.001 196.86 159.566 210.018 191.353 230.033C212.31 243.209 224.157 254.187 248.034 260.082C263.123 263.612 278.728 264.37 294.088 262.319C307.025 260.729 316.413 255.628 325.506 250.306C336.298 243.986 345.465 236.797 357.182 229.497C383.48 213.178 409.131 208.41 421.698 196.989C441.122 192.868 458.457 193.496 476.088 193.163C486.788 197.063 496.158 200.205 504.604 199.003C538.719 221.809 547.294 230.421 592.184 240.197C609.741 244.004 630.329 244.041 647.627 243.893C650.695 243.893 653.578 243.893 656.239 243.893C687.545 242.914 705.675 239.661 736.52 238.608C761.395 237.758 777.344 246 797.396 251.544C804.861 253.557 812.431 255.161 820.072 256.349C857.033 262.374 870.931 261.487 894.808 254.741C913.807 249.382 936.594 240.918 969.027 228.739C994.901 219.073 1029.02 205.582 1072.87 192.812" stroke="white" stroke-opacity="0.6" stroke-width="0.4" stroke-miterlimit="10"/>
<path d="M14.8607 121.606C44.8599 131.592 73.4454 145.406 99.9096 162.707C102.405 164.37 104.973 165.886 107.505 167.42C154.132 195.825 159.252 207.615 190.429 227.039C211.793 240.345 223.048 251.581 247.276 257.587C262.456 261.152 278.168 261.86 293.607 259.676C306.803 257.957 315.988 252.598 325.025 247.016C335.54 240.326 344.559 232.934 356.553 225.542C383.554 208.909 410.332 205.083 422.271 194.568C442.286 191.223 459.824 193.182 477.178 194.254C487.989 199.114 497.211 203.272 505.324 202.773C539.458 229.608 545.021 241.583 589.283 252.672C606.932 257.125 627.76 257.218 645.021 256.941L653.67 256.774C685.457 256.22 702.958 250.491 734.283 249.382C759.731 248.458 775.44 256.127 795.695 261.394C803.243 263.304 810.895 264.778 818.611 265.811C855.481 270.949 869.914 268.99 893.681 261.302C912.698 255.166 935.337 246 967.881 233.692C993.755 223.952 1028.26 210.683 1072.89 199.151" stroke="white" stroke-opacity="0.6" stroke-width="0.4" stroke-miterlimit="10"/>
<path d="M13.7517 122.77C43.4149 132.249 71.8229 145.28 98.3571 161.58C100.87 163.169 103.439 164.574 105.971 165.997C153.282 192.868 158.845 203.365 189.505 222.141C211.294 235.54 221.939 247.053 246.537 253.189C261.815 256.759 277.633 257.386 293.145 255.037C306.488 253.189 315.563 247.645 324.47 241.731C334.801 234.948 343.764 227.297 355.888 219.776C383.609 202.718 411.478 199.964 422.807 190.336C443.432 187.767 461.82 188.174 478.249 193.551C490.022 197.414 498.264 204.64 505.971 204.64C540.105 235.503 542.637 250.842 586.307 263.427C604.012 268.565 625.117 268.694 642.286 268.306C645.427 268.306 648.347 268.158 650.99 268.085C683.258 267.234 700.131 260.452 731.955 258.53C757.92 256.959 773.444 264.629 793.903 269.618C801.523 271.447 809.251 272.793 817.041 273.647C853.891 277.935 868.787 274.885 892.461 266.255C911.478 259.325 933.969 249.456 966.624 237.037C992.498 227.223 1027.39 214.176 1072.8 203.771" stroke="white" stroke-opacity="0.6" stroke-width="0.4" stroke-miterlimit="10"/>
<path d="M12.735 123.897C42.0743 132.927 70.3103 145.213 96.9153 160.526C99.4472 162.023 102.035 163.317 104.548 164.647C152.45 189.855 158.512 198.948 188.58 217.244C210.757 230.735 220.811 242.525 245.871 248.772C261.228 252.448 277.158 253.076 292.757 250.62C306.285 248.643 315.23 242.766 324.027 236.686C334.154 229.681 343.006 221.772 355.444 214.139C383.849 196.712 412.827 194.993 423.564 186.233C444.762 184.385 463.52 186.436 479.487 192.978C491.482 197.894 499.484 205.915 506.913 206.821C541.047 241.731 540.548 260.415 583.646 274.423C601.424 280.245 622.733 280.393 639.883 279.968L648.643 279.672C681.372 278.545 697.635 270.69 729.958 267.992C756.478 265.756 771.781 273.536 792.461 278.249C800.154 280.013 807.959 281.248 815.82 281.945C852.634 285.401 868.01 281.243 891.592 271.67C910.609 263.963 932.934 253.392 965.719 240.844C1000.42 227.037 1036.29 216.349 1072.89 208.909" stroke="white" stroke-opacity="0.6" stroke-width="0.4" stroke-miterlimit="10"/>
<path d="M11.6635 124.267C40.6849 132.891 68.7491 144.459 95.4187 158.789C97.969 160.194 100.556 161.395 103.07 162.615C151.619 186.215 158.161 194.032 187.657 211.7C210.277 225.283 219.702 237.351 245.04 243.727C260.494 247.419 276.535 247.96 292.203 245.316C305.879 243.209 314.712 237.074 323.417 230.735C333.323 223.509 342.064 215.359 354.687 207.615C383.812 189.818 413.825 189.135 424.008 181.243C445.816 180.245 464.869 183.831 480.449 191.5C492.646 197.506 500.427 206.451 507.505 208.022C541.657 246.961 538.109 269.009 580.615 284.44C598.468 290.945 620.035 291.093 637.111 290.52C640.308 290.409 643.284 290.262 645.926 290.151C679.192 288.728 694.771 279.838 727.556 276.345C754.594 273.462 769.711 281.169 790.594 285.734C798.365 287.393 806.246 288.48 814.176 288.986C850.971 291.629 866.809 286.325 890.299 275.828C909.315 267.327 931.492 256.072 964.388 243.376C999.399 229.494 1035.76 219.305 1072.89 212.975" stroke="white" stroke-opacity="0.6" stroke-width="0.4" stroke-miterlimit="10"/>
<path d="M10.5913 123.214C39.3005 131.425 67.1944 142.257 93.9215 155.573C96.4718 156.886 99.0776 157.994 101.591 159.122C150.806 181.058 157.902 187.49 186.732 204.677C209.778 218.353 218.593 230.716 244.3 237.185C259.84 240.92 275.984 241.41 291.722 238.626C305.564 236.371 314.287 229.996 322.881 223.398C332.583 216.006 341.214 207.56 354.058 199.706C383.886 181.539 415.045 181.853 424.581 174.867C446.98 174.646 466.292 179.857 481.539 188.654C493.884 195.788 501.498 205.582 508.244 207.837C542.396 250.823 535.78 276.216 577.732 293.052C595.621 300.26 617.466 300.444 634.486 299.742C637.702 299.613 640.696 299.446 643.339 299.317C677.029 297.617 691.999 287.637 725.264 283.368C752.838 279.82 767.77 287.545 788.82 291.888C796.676 293.449 804.64 294.407 812.642 294.752C849.419 296.6 865.7 290.132 889.097 278.711C908.114 269.471 930.162 257.458 963.168 244.651C998.433 230.629 1035.25 220.881 1072.83 215.618" stroke="white" stroke-opacity="0.6" stroke-width="0.4" stroke-miterlimit="10"/>
<path d="M9.53833 122.16C37.9329 129.993 65.6513 140.097 92.425 152.376C94.9938 153.596 97.5996 154.575 100.113 155.61C150.011 175.939 157.404 181.022 185.809 197.654C209.261 211.404 217.485 224.063 243.543 230.661C259.174 234.45 275.431 234.885 291.242 231.936C305.25 229.515 313.863 222.936 322.364 216.061C331.863 208.392 340.364 199.761 353.43 191.796C383.979 173.315 416.265 174.572 425.154 168.473C445.556 168.716 465.473 174.719 482.611 185.79C495.086 194.069 502.571 204.695 508.965 207.652C543.136 254.667 533.434 283.424 574.849 301.664C592.776 309.592 614.897 309.74 631.844 308.964C635.115 308.816 638.109 308.631 640.77 308.465C674.904 306.432 689.32 295.529 723.066 290.391C751.138 286.196 765.923 293.921 787.176 298.042C794.568 299.465 802.367 299.687 811.201 300.5C847.83 303.882 864.703 293.939 888.007 281.576C907.024 271.485 928.924 258.844 962.042 245.908C997.596 231.746 1034.89 222.422 1072.93 218.186" stroke="white" stroke-opacity="0.6" stroke-width="0.4" stroke-miterlimit="10"/>
<path d="M8.46619 121.107C36.56 128.57 64.1113 137.943 90.9278 149.161C93.5151 150.269 96.1209 151.175 98.6528 152.099C149.179 170.58 157.145 174.553 184.884 190.631C208.78 204.474 216.302 217.41 242.803 224.137C258.552 227.976 274.945 228.354 290.854 225.246C305.01 222.659 313.511 215.858 321.92 208.724C331.16 200.833 339.588 191.962 352.875 183.886C384.145 164.962 417.558 167.253 425.801 162.097C446.747 163.196 466.897 170.483 483.701 183.036C496.25 192.443 503.642 203.919 509.685 207.56C543.875 258.604 531.068 290.723 571.947 310.387C589.929 319.018 612.31 319.147 629.238 318.278C632.528 318.112 635.559 317.89 638.201 317.724C672.816 315.377 686.603 303.346 720.848 297.506C749.474 292.645 763.982 300.426 785.531 304.288C793.577 305.408 801.677 306.099 809.796 306.358C846.48 308.742 863.723 297.839 886.954 284.551C905.952 273.666 927.722 260.341 960.877 247.275C996.697 233.004 1034.44 224.147 1072.87 220.995" stroke="white" stroke-opacity="0.6" stroke-width="0.4" stroke-miterlimit="10"/>
<path d="M7.39453 120.053C35.2002 127.166 62.5933 135.803 89.4495 145.926C92.0368 146.943 94.6426 147.774 97.1745 148.569C148.366 165.424 156.812 168.048 184.035 183.683C208.281 197.506 215.193 210.757 242.046 217.595C257.86 221.488 274.343 221.817 290.299 218.556C304.622 215.802 313.031 208.78 321.31 201.387C330.403 193.293 338.664 184.163 352.192 175.976C384.145 156.682 418.723 160.046 426.3 155.647C447.851 157.559 468.283 166.094 484.792 180.079C497.377 190.65 504.696 202.94 510.406 207.264C544.596 262.355 528.684 297.949 569.065 318.907C587.083 328.258 609.723 328.369 626.577 327.408C629.904 327.223 632.953 326.983 635.596 326.779C670.709 324.118 683.849 311.052 718.593 304.436C747.756 298.892 762.06 306.728 783.775 310.35C791.896 311.408 800.073 311.97 808.262 312.032C845.002 313.418 862.614 301.553 885.753 287.323C904.769 275.662 926.41 261.635 959.676 248.513C995.784 234.115 1034 225.706 1072.82 223.62" stroke="white" stroke-opacity="0.6" stroke-width="0.4" stroke-miterlimit="10"/>
<path d="M6.35919 119C38.0169 127.039 66.422 135.226 87.9706 142.729C90.5949 143.653 93.2007 144.356 95.7141 145.095C147.59 160.175 156.498 161.58 183.055 176.512C207.8 190.484 214.176 204.03 241.325 210.997C257.226 214.938 273.815 215.21 289.837 211.792C304.326 208.854 312.642 201.646 320.811 193.976C329.682 185.66 337.832 176.29 351.582 167.992C384.256 148.329 419.961 152.709 426.891 149.271C449.033 152.018 469.713 161.785 485.9 177.14C498.504 188.876 506.58 201.258 511.164 207.005C553.67 260.47 526.299 305.157 566.2 327.445C584.237 337.535 607.19 337.609 623.971 336.556C627.334 336.353 630.384 336.075 633.045 335.854C668.584 332.878 681.095 318.777 716.357 311.404C746.055 305.175 760.156 313.048 782.093 316.412C790.27 317.625 798.543 318.064 806.802 317.724C843.56 316.467 861.579 305.268 884.643 290.132C903.642 277.658 925.116 262.947 958.567 249.641C994.983 235.122 1033.68 227.158 1072.87 226.115" stroke="white" stroke-opacity="0.6" stroke-width="0.4" stroke-miterlimit="10"/>
<path d="M5.26941 117.947C37.2782 125.745 65.4985 133.138 86.4558 139.514C89.0986 140.327 91.7044 140.937 94.2178 141.583C146.814 154.89 156.147 155.093 182.113 169.545C207.302 183.59 213.05 197.469 240.549 204.548C256.549 208.54 273.259 208.755 289.357 205.176C303.994 202.034 312.199 194.642 320.257 186.695C328.943 178.157 336.89 168.547 350.935 160.138C384.312 140.087 421.033 145.501 427.464 142.933C452.857 146.629 472.816 159.861 486.973 174.35C499.558 187.287 507.524 200.648 511.867 206.876C552.986 265.774 523.879 312.494 563.28 336.131C581.336 346.942 604.603 346.979 621.31 345.833C624.711 345.593 627.797 345.316 630.44 345.076C666.459 341.767 678.361 326.595 714.102 318.482C744.319 311.588 758.216 319.517 780.356 322.621C788.617 323.741 796.967 324.044 805.287 323.527C842.064 321.55 860.508 309.13 883.498 293.052C902.478 279.783 923.823 264.388 957.421 250.953C983.461 240.548 1021.31 229.256 1072.89 228.776" stroke="white" stroke-opacity="0.6" stroke-width="0.4" stroke-miterlimit="10"/>
<path d="M4.19672 116.893C36.5382 124.507 64.5737 131.012 84.958 136.316C87.6193 137 90.2251 137.518 92.7385 138.164C145.945 149.567 155.814 148.588 181.188 162.522C206.562 176.457 211.94 190.816 239.809 198.005C255.894 202.066 272.715 202.23 288.876 198.486C303.66 195.122 311.792 187.582 319.739 179.377C328.222 170.635 336.113 160.766 350.306 152.247C384.403 131.918 422.234 138.257 428.037 136.575C454.039 141.047 474.017 155.832 488.062 171.504C500.611 185.512 508.391 199.946 512.587 206.617C552.117 270.838 521.439 319.72 560.397 344.669C578.452 356.238 602.015 356.219 618.685 354.981C622.104 354.722 625.209 354.408 627.925 354.15C664.407 350.453 675.699 334.338 711.921 325.43C742.673 317.872 756.386 325.855 778.729 328.702C787.074 329.734 795.502 329.907 803.882 329.219C840.677 326.502 859.509 312.863 882.444 295.861C901.405 281.797 922.621 265.719 956.367 252.154C982.444 241.675 1020.64 230.587 1073 231.382" stroke="white" stroke-opacity="0.6" stroke-width="0.4" stroke-miterlimit="10"/>
<path d="M3.1438 115.84C35.7995 123.232 63.6501 128.887 83.4616 133.138C86.1413 133.711 88.7471 134.154 91.2605 134.598C145.114 144.226 155.481 142.082 180.264 155.518C206.341 169.637 210.813 184.163 239.052 191.482C255.228 195.613 272.169 195.721 288.396 191.796C303.328 188.192 311.386 180.504 319.222 172.058C327.501 163.077 335.263 152.986 349.697 144.337C384.478 123.546 423.713 128.296 428.61 130.199C453.892 139.976 475.2 151.766 489.153 168.658C501.646 183.794 509.353 199.225 513.326 206.525C551.12 275.92 518.981 327.131 557.514 353.392C575.57 365.7 599.447 365.608 616.043 364.295C619.517 364.018 622.622 363.686 625.283 363.408C662.245 359.454 672.89 342.229 709.611 332.545C740.881 324.303 754.39 332.361 776.956 334.948C785.385 335.89 793.891 335.933 802.33 335.077C839.144 331.64 858.382 316.763 881.225 298.836C900.186 284.052 921.273 267.197 955.148 253.503C981.243 242.951 1019.83 232.102 1072.94 234.117" stroke="white" stroke-opacity="0.6" stroke-width="0.4" stroke-miterlimit="10"/>
<path d="M2.07166 114.786C35.06 122.049 62.7073 126.706 81.9644 129.885C84.6626 130.329 87.2684 130.698 89.8003 131.049C144.282 138.848 155.167 135.577 179.34 148.477C205.952 162.707 209.649 177.492 238.312 184.884C254.582 189.068 271.639 189.119 287.934 185.032C302.977 181.169 310.979 173.37 318.686 164.703C326.78 155.463 334.413 145.169 349.068 136.427C384.57 115.267 424.636 123.269 429.183 123.805C456.904 127.113 476.364 147.682 490.169 165.793C499.507 178.428 507.486 192.013 513.973 206.322C550.01 280.762 516.449 334.431 554.631 362.004C572.668 375.051 596.878 374.94 613.418 373.517C616.911 373.222 620.053 372.852 622.659 372.556C660.064 368.213 670.099 349.973 707.338 339.568C739.107 330.624 752.45 338.811 775.218 341.102C783.734 341.953 792.318 341.86 800.814 340.825C837.665 336.667 857.255 320.496 880.06 301.701C898.984 286.011 919.942 268.583 953.983 254.778C980.115 244.152 1019.04 233.507 1072.94 236.76" stroke="white" stroke-opacity="0.6" stroke-width="0.4" stroke-miterlimit="10"/>
<path d="M1 113.733C34.2655 120.682 61.7466 124.489 80.4677 126.669C142.415 133.877 153.763 128.518 178.416 141.454C205.398 155.629 208.595 170.857 237.555 178.416C253.916 182.67 271.093 182.67 287.453 178.416C318.464 169.915 319.314 145.853 348.44 128.518C384.644 106.969 425.801 116.45 429.756 117.429C482.463 130.366 507.043 188.229 514.768 206.137C549.013 285.457 514.028 341.731 551.729 370.616C573.611 387.378 605.102 383.553 620.109 381.705C657.976 377.084 667.401 357.79 705.12 346.591C747.626 333.95 756.996 352.135 799.373 346.591C866.976 337.665 877.824 286.713 952.764 256.035C978.914 245.335 1018.2 234.912 1072.89 239.402" stroke="white" stroke-opacity="0.6" stroke-width="0.4" stroke-miterlimit="10"/>
<path d="M1.99799 116.043C34.6721 122.992 61.6911 127.131 80.4122 129.423C140.715 137.037 152.488 132.01 176.993 144.965C203.476 159.011 207.006 173.795 235.245 181.41C251.263 185.642 268.079 185.857 284.201 182.038C314.805 174.812 315.988 151.341 344.67 134.672C380.098 113.936 420.016 122.567 424.637 123.324C467.863 130.329 491.704 172.927 503.439 195.658C505.841 200.297 507.579 204.289 508.983 207.172C544.097 282.259 510.942 336.334 548.089 363.612C570.266 379.856 602.016 375.772 617.651 374.016C631.978 372.444 645.866 368.113 658.549 361.265C671.485 354.778 683.59 347.46 703.494 342.599C709.593 341.121 715.026 340.307 719.905 339.605C749.474 335.336 760.877 345.852 796.508 339.513C810.292 337.093 823.565 332.35 835.762 325.486C868.861 307.005 889.559 273.74 940.807 249.456C943.813 248.027 946.955 246.634 950.232 245.279C976.623 234.302 1016.5 223.379 1072.02 227.575" stroke="white" stroke-opacity="0.6" stroke-width="0.4" stroke-miterlimit="10"/>
<path d="M2.99603 118.353C35.0049 125.302 61.6358 129.608 80.3754 132.158C138.997 140.16 151.139 135.503 175.57 148.495C201.573 162.245 205.417 176.9 232.861 184.385C248.551 188.606 265.017 189.049 280.911 185.679C311.053 179.635 312.661 156.922 340.881 140.807C375.552 121.014 414.417 127.39 419.481 129.22C459.473 143.542 485.42 175.884 497.507 197.303C499.965 201.664 501.665 205.49 503.051 208.188C538.978 279.136 507.782 330.882 544.337 356.607C566.699 372.316 598.8 367.992 615.063 366.31C629.503 364.828 643.578 360.857 656.664 354.575C669.804 348.716 682.093 342.377 701.757 338.626C707.874 337.443 713.345 336.999 718.224 336.297C747.7 332.028 758.604 340.326 793.515 332.416C807.14 329.276 820.187 324.013 832.176 316.818C864.037 298.338 885.771 263.908 938.053 238.811C941.103 237.369 944.281 235.928 947.589 234.523C974.202 223.269 1014.67 211.847 1071.04 215.728" stroke="white" stroke-opacity="0.6" stroke-width="0.4" stroke-miterlimit="10"/>
<path d="M3.99402 120.663C35.3375 127.594 61.5619 132.158 80.283 134.986C137.241 143.321 149.789 139.089 174.11 152.081C199.614 165.609 203.791 179.987 230.569 187.434C245.922 191.618 262.025 192.25 277.658 189.282C307.228 184.385 309.353 162.43 337.111 146.943C371.024 128.019 408.651 132.861 414.361 135.078C446.117 147.806 473.114 170.119 491.593 198.911C494.106 202.995 495.788 206.654 497.137 209.186C533.84 275.846 504.64 325.467 540.549 349.64C563.169 364.832 595.566 360.23 612.458 358.659C627.014 357.239 641.271 353.618 654.742 347.922C668.122 342.692 680.615 337.351 699.983 334.671C706.156 333.821 711.644 333.728 716.523 333.026C745.963 328.739 756.276 334.874 790.447 325.357C803.888 321.48 816.707 315.705 828.517 308.206C859.14 289.596 882.001 254.187 935.207 228.203C938.275 226.725 941.491 225.252 944.854 223.786C971.688 212.273 1012.77 200.352 1069.97 203.938" stroke="white" stroke-opacity="0.6" stroke-width="0.4" stroke-miterlimit="10"/>
<path d="M4.99207 122.955C35.6703 129.904 61.5065 134.709 80.2646 137.739C135.559 146.407 148.533 142.6 172.669 155.61C197.655 168.935 202.238 182.999 228.204 190.428C243.234 194.634 259 195.517 274.406 193.016C303.55 189.319 306.045 168.066 333.36 153.189C366.515 134.986 402.46 142.23 409.242 140.992C448.329 148.883 472.909 181.65 485.698 200.574C488.266 204.363 489.911 207.837 491.353 210.221C528.869 272.649 501.665 320.016 536.908 342.599C559.824 357.273 592.461 352.412 610 350.915C624.685 349.564 639.131 346.296 652.968 341.195C666.607 336.593 679.248 332.268 698.375 330.642C704.585 330.106 710.092 330.383 715.008 329.681C744.411 325.394 754.132 329.293 787.675 318.241C801.886 313.547 813.548 306.82 825.154 299.502C854.575 280.855 878.453 244.263 932.675 217.521C935.756 216.006 939.008 214.496 942.433 212.993C969.508 201.184 1011.18 188.765 1069.21 192.055" stroke="white" stroke-opacity="0.6" stroke-width="0.4" stroke-miterlimit="10"/>
<path d="M5.97137 125.265C35.9288 132.195 61.4324 137.24 80.2829 140.382C133.877 149.364 147.184 146.074 171.32 159.011C195.788 172.169 200.649 185.9 225.967 193.293C240.648 197.496 256.044 198.591 271.172 196.508C299.762 193.773 302.755 173.463 329.608 159.214C361.987 142.045 396.62 148.643 404.16 146.85C442.083 154.021 466.644 184.514 479.82 202.182C482.445 205.693 484.071 209.001 485.55 211.219C523.86 269.378 498.708 314.508 533.249 335.558C556.461 349.714 589.356 344.577 607.505 343.191C625.986 341.786 639.015 337.96 651.175 334.486C665.073 330.513 678.009 324.747 696.73 326.613C702.265 327.21 707.852 327.117 713.363 326.336C742.748 322.048 751.84 323.804 784.736 311.108C798.504 305.804 809.962 298.504 821.698 290.779C849.918 272.15 874.812 234.431 930.033 206.821C933.15 205.268 936.439 203.716 939.901 202.164C967.198 190.096 1009.46 177.177 1068.34 180.153" stroke="white" stroke-opacity="0.6" stroke-width="0.4" stroke-miterlimit="10"/>
<path d="M6.96887 127.594C36.3349 134.524 61.3765 139.809 80.153 143.154C132.14 152.395 145.871 149.586 169.896 162.559C193.921 175.533 199.077 188.913 223.638 196.324C245.039 202.773 262.873 201.387 267.992 200.186C295.289 193.718 299.502 179.026 325.911 165.405C357.514 149.105 390.872 155.111 399.114 152.783C435.854 159.251 460.378 187.397 473.998 203.845C476.66 207.079 478.268 210.221 479.765 212.291C518.87 266.181 495.824 309.02 529.663 328.609C553.207 342.248 586.307 336.833 605.102 335.539C623.897 334.246 637.074 330.771 649.456 327.833C663.594 324.488 676.974 319.48 695.159 322.677C700.647 323.692 706.262 323.823 711.792 323.065C741.139 318.777 749.622 318.389 781.853 304.067C795.196 298.153 806.395 290.262 818.149 282.204C845.186 263.723 871.115 224.729 927.315 196.25C930.457 194.66 933.784 193.071 937.295 191.482C964.831 179.136 1007.69 165.719 1067.4 168.381" stroke="white" stroke-opacity="0.6" stroke-width="0.4" stroke-miterlimit="10"/>
<path d="M7.96692 129.848C36.6677 136.834 61.3027 142.378 80.0977 145.853C130.421 155.315 144.559 153.042 168.473 166.015C191.944 178.767 197.488 191.888 221.328 199.281C242.138 205.73 259.473 204.936 264.666 203.79C291.426 197.839 296.083 184.533 322.067 171.541C352.894 156.091 384.902 161.543 393.921 158.604C429.497 164.352 453.928 190.022 468.011 205.416C470.089 207.921 472.039 210.53 473.851 213.234C513.714 262.854 492.831 303.383 525.856 321.531C549.752 334.634 583.054 328.923 602.477 327.759C621.162 326.613 634.893 323.453 647.515 321.069C661.912 318.352 675.735 314.231 693.366 318.611C698.824 320.057 704.512 320.421 710.11 319.683C739.439 315.377 747.293 312.882 778.877 296.896C791.814 290.372 802.717 281.927 814.564 273.462C840.437 254.982 867.382 214.878 924.562 185.531C927.728 183.904 931.092 182.278 934.652 180.652C962.373 168.029 1005.86 154.113 1066.42 156.479" stroke="white" stroke-opacity="0.6" stroke-width="0.4" stroke-miterlimit="10"/>
<path d="M8.9649 132.121C37.0004 139.07 61.2288 144.799 80.0607 148.569C128.702 158.29 143.247 156.534 167.143 169.508C190.114 182.056 195.991 194.845 219.092 202.201C239.421 208.65 256.165 208.447 261.506 207.357C287.749 201.979 292.923 190.003 318.39 177.621C348.44 163.04 379.21 167.919 388.894 164.481C423.287 169.508 447.589 192.886 462.208 206.987C464.305 209.285 466.274 211.697 468.103 214.213C508.761 259.546 490.04 297.728 522.252 314.471C546.499 327.057 579.986 321.088 600.038 320.016C618.888 318.981 632.934 316.153 645.778 314.324C661.045 312.224 676.533 312.305 691.777 314.564C698.282 315.395 703.753 317.022 708.576 316.412C737.868 312.087 745.094 307.523 776.031 289.855C788.487 282.74 799.188 273.684 811.145 264.85C835.891 246.517 863.797 205.139 922.03 174.923C925.209 173.278 928.628 171.596 932.25 169.915C960.23 156.978 1004.33 142.6 1065.66 144.67" stroke="white" stroke-opacity="0.6" stroke-width="0.4" stroke-miterlimit="10"/>
<path d="M10.0557 135.3C37.4259 142.23 61.2662 148.237 80.0982 152.173C127.003 162.097 141.954 160.859 165.628 173.888C188.119 186.233 194.31 198.708 216.69 206.044C236.354 212.494 252.654 212.864 258.143 211.847C283.905 207.098 289.468 196.379 314.546 184.625C343.801 170.912 373.297 175.218 383.683 171.245C416.949 175.551 440.974 196.49 456.202 209.537C458.319 211.624 460.312 213.834 462.171 216.153C503.476 257.199 487.102 293.015 518.464 308.373C543.099 320.441 576.734 314.213 597.433 313.233C616.412 312.328 630.791 309.833 643.857 308.557C658.752 307.097 672.631 308.336 690.059 311.496C696.656 312.697 702.108 314.638 706.913 313.935C736.168 309.611 742.785 302.976 773.075 283.59C785.087 275.883 795.529 266.255 807.578 257.015C831.215 238.866 860.083 196.213 919.221 165.109C922.437 163.409 925.874 161.709 929.552 159.972C957.754 146.813 1002.39 131.899 1064.63 133.655" stroke="white" stroke-opacity="0.6" stroke-width="0.4" stroke-miterlimit="10"/>
<path d="M10.9609 143.302C37.6658 150.232 61.0995 156.423 79.95 160.619C125.284 170.728 140.641 170.099 164.204 183.036C186.196 195.178 192.72 207.357 214.38 214.656C233.452 221.106 249.235 222.049 254.89 221.106C280.172 217.022 286.141 207.523 310.776 196.397C339.236 183.461 367.457 187.305 378.564 182.759C410.609 186.455 432.62 207.819 450.306 216.819C452.653 219.332 454.686 221.365 456.313 222.806C498.32 259.546 484.293 293.034 514.768 307.005C539.809 318.519 573.592 312.032 594.919 311.163C614.028 310.387 628.739 308.225 642.027 307.467C657.181 306.635 671.319 309.093 688.321 313.104C695.011 314.675 700.445 316.929 705.231 316.208C734.468 311.884 740.456 303.272 770.081 282.093C781.668 273.832 791.851 263.612 803.993 253.947C826.54 236.002 856.349 192.036 916.467 160.064C919.708 158.352 923.188 156.602 926.909 154.816C955.351 141.472 1000.63 126.059 1063.65 127.593" stroke="white" stroke-opacity="0.6" stroke-width="0.4" stroke-miterlimit="10"/>
<path d="M11.904 150.51C37.999 157.44 61.0261 163.834 79.8951 168.251C123.584 178.527 139.422 178.527 162.782 191.537C184.275 203.457 191.131 215.34 212.052 222.622C230.532 229.053 245.798 230.495 251.638 229.7C276.457 226.318 282.815 218.02 307.08 207.523C334.801 195.51 361.691 198.708 373.519 193.625C404.382 196.508 426.171 215.932 444.467 223.416C446.384 225.329 448.415 227.125 450.547 228.794C493.201 261.265 481.576 292.239 511.146 304.972C536.612 315.931 570.506 309.186 592.462 308.447C611.719 307.781 626.762 305.952 640.253 305.785C655.666 305.582 670.081 309.297 686.714 314.12C693.478 316.079 698.911 318.629 703.698 317.816C732.879 313.473 738.275 302.81 767.235 279.912C778.323 271.097 788.322 260.304 800.5 250.214C821.957 232.509 852.69 187.194 913.788 154.335C917.041 152.487 920.571 150.787 924.341 148.976C953.004 135.244 998.818 119.406 1062.74 120.497" stroke="white" stroke-opacity="0.6" stroke-width="0.4" stroke-miterlimit="10"/>
<path d="M12.9388 157.717C38.35 164.647 60.9891 171.245 79.8395 175.921C121.883 186.307 138.017 186.917 161.359 199.946C182.353 211.663 189.542 223.25 209.741 230.494C227.668 236.926 242.379 237.462 248.385 238.219C272.687 241.324 279.488 228.425 303.236 218.574C330.126 207.486 355.777 210.055 368.326 204.418C398.024 206.58 419.555 223.989 438.553 229.959C440.489 231.683 442.539 233.276 444.689 234.727C487.971 262.91 478.786 291.389 507.523 302.865C533.397 313.252 567.42 306.284 590.022 305.637C609.427 305.101 624.784 303.623 638.497 303.993C654.169 304.418 668.824 309.426 685.106 315.081C691.962 317.428 697.359 320.256 702.145 319.553C731.308 315.192 736.113 302.533 764.37 277.861C775.108 268.491 784.792 257.107 797.1 246.591C817.429 229.145 849.142 182.463 911.219 148.643C914.509 146.869 918.063 145.021 921.883 143.099C950.768 129.09 997.192 112.679 1061.95 113.53" stroke="white" stroke-opacity="0.6" stroke-width="0.4" stroke-miterlimit="10"/>
<path d="M13.9368 164.943C38.6827 171.947 60.8967 178.656 79.7841 183.572C120.183 194.069 136.705 195.326 159.936 208.373C180.431 219.868 187.953 231.086 207.413 238.478C224.766 244.909 238.978 245.87 245.114 246.85C268.806 250.546 276.143 238.94 299.466 229.718C325.561 219.388 349.956 221.494 363.206 215.303C391.722 216.763 413.105 232.121 432.584 236.593C434.538 238.135 436.608 239.525 438.775 240.751C482.648 264.665 476.014 290.649 503.679 300.869C530.052 310.646 564.13 303.457 587.342 302.939C606.895 302.514 622.585 301.387 636.52 302.311C652.45 303.364 667.346 309.703 683.276 316.042C690.207 318.814 695.603 321.919 700.371 321.198C729.497 316.837 733.748 302.2 761.358 275.735C771.67 265.811 781.095 253.854 793.478 242.895C812.846 225.726 845.372 177.658 908.428 143.099C911.743 141.263 915.334 139.415 919.203 137.555C948.329 123.287 995.326 106.377 1060.93 106.932" stroke="white" stroke-opacity="0.6" stroke-width="0.4" stroke-miterlimit="10"/>
<path d="M14.9348 172.151C38.9599 179.062 60.8228 186.048 79.7287 191.223C118.538 201.794 135.393 203.753 158.513 216.782C178.527 228.074 186.363 239.088 205.103 246.351C221.865 252.782 235.578 254.168 241.861 255.37C264.925 259.75 272.817 249.326 295.696 240.751C320.996 231.271 344.116 232.823 358.087 226.078C385.439 226.817 406.507 240.16 426.688 243.117C428.667 244.468 430.756 245.649 432.935 246.647C477.289 266.366 473.297 289.652 499.983 298.744C526.67 307.837 560.97 300.592 584.829 300.13C604.511 299.816 620.534 299.021 634.727 300.5C650.898 302.182 666.034 309.74 681.632 316.948C688.636 320.145 694.032 323.49 698.782 322.788C727.871 318.408 731.585 301.83 758.401 273.536C768.325 263.076 777.492 250.546 789.948 239.125C808.281 222.289 841.694 172.797 905.712 137.277C909.038 135.429 912.679 133.581 916.597 131.567C945.908 116.949 993.514 99.5396 1059.95 99.8722" stroke="white" stroke-opacity="0.6" stroke-width="0.4" stroke-miterlimit="10"/>
<path d="M15.9329 179.34C39.3481 186.252 60.7674 193.422 79.6918 198.837C116.801 209.482 134.081 212.125 157.09 225.172C176.605 236.261 184.811 246.961 202.774 254.131C218.982 260.563 232.196 262.374 238.609 263.797C261.063 268.768 269.472 259.639 291.944 251.692C316.432 243.043 338.276 244.078 352.931 236.778C379.1 236.778 399.928 248.107 420.738 249.548C422.755 250.709 424.87 251.693 427.058 252.487C472.077 268.048 470.599 288.598 496.287 296.582C523.62 305.065 557.81 297.543 582.316 297.284C602.127 297.062 618.483 296.619 632.861 298.652C649.29 300.962 664.629 309.944 679.913 317.798C686.991 321.494 692.369 325.024 697.119 324.303C726.189 319.942 729.368 301.405 755.444 271.282C764.962 260.286 773.925 247.257 786.381 235.3C803.716 218.796 837.98 167.882 902.977 131.474C906.34 129.589 910.006 127.643 913.973 125.635C943.542 110.85 991.74 92.9235 1059.03 92.868" stroke="white" stroke-opacity="0.6" stroke-width="0.4" stroke-miterlimit="10"/>
<path d="M16.9308 186.584C39.6808 193.496 60.6935 200.833 79.6364 206.525C115.12 217.207 132.787 220.57 155.667 233.655C174.683 244.503 183.185 254.926 200.464 262.06C211.776 266.496 223.45 269.946 235.356 272.372C257.2 277.916 266.127 270.08 288.174 262.781C311.848 254.963 332.528 255.388 347.849 247.608C372.835 246.924 393.441 256.201 414.879 256.146C416.929 257.111 419.063 257.884 421.255 258.456C466.681 269.84 467.938 287.6 492.591 294.494C520.442 302.274 554.668 295.085 579.784 294.494C599.743 294.032 616.413 294.309 631.031 296.878C647.664 299.816 663.262 310.165 678.231 318.722C685.365 322.788 690.761 326.632 695.492 325.911C724.526 321.531 727.205 301.073 752.524 269.101C761.635 257.587 770.321 243.949 782.87 231.548C799.188 215.396 834.302 163.04 900.279 125.745C903.661 123.897 907.357 121.846 911.367 119.795C941.177 104.696 989.966 86.2889 1058.09 85.9377" stroke="white" stroke-opacity="0.6" stroke-width="0.4" stroke-miterlimit="10"/>
<path d="M17.9289 193.81C40.1059 200.722 60.6381 208.207 79.581 214.139C113.438 224.821 131.475 228.924 154.262 242.027C172.743 252.653 181.595 262.799 198.136 269.896C209.16 274.451 220.515 278.158 232.104 280.984C253.375 287.064 262.782 280.541 284.404 273.924C307.265 266.902 326.615 266.883 342.73 258.493C366.552 257.07 386.918 264.333 408.965 262.762C411.053 263.524 413.205 264.093 415.397 264.462C461.34 271.762 465.295 286.639 488.895 292.479C517.282 299.502 551.508 292.22 577.27 291.777C597.378 291.444 614.361 292.054 629.202 295.177C646.13 298.744 661.857 310.461 676.568 319.72C683.72 324.229 689.154 328.313 693.866 327.593C722.881 323.194 725.062 300.814 749.586 266.994C758.327 254.945 766.773 240.77 779.34 227.889C794.716 212.106 830.643 158.29 897.618 120.09C901.018 118.15 904.77 116.117 908.835 114.01C938.885 98.6526 988.303 79.7467 1057.22 79.0814" stroke="white" stroke-opacity="0.6" stroke-width="0.4" stroke-miterlimit="10"/>
<path d="M18.9082 201.036C40.346 207.929 60.5825 215.581 79.5254 221.845C111.701 232.546 130.181 237.388 152.839 250.509C170.858 260.932 180.006 270.838 195.825 277.842C206.561 282.431 217.587 286.308 228.832 289.448C249.549 296.046 259.436 290.871 280.579 284.902C302.645 278.711 320.719 278.175 337.555 269.212C360.194 267.087 380.32 272.317 403.014 269.212C405.138 269.777 407.309 270.142 409.501 270.302C455.962 273.555 462.56 285.419 485.143 290.28C514.066 296.526 548.292 289.171 574.701 288.912C594.938 288.691 612.254 289.633 627.316 293.311C644.503 297.506 660.397 310.59 674.831 320.551C682.02 325.523 687.471 329.792 692.184 329.108C721.162 324.71 722.899 300.389 746.61 264.721C754.963 252.154 763.243 237.462 775.754 224.063C790.243 208.669 826.909 153.467 894.882 114.287C898.301 112.31 902.09 110.24 906.211 108.096C936.482 92.4799 986.455 73.0566 1056.26 72.151" stroke="white" stroke-opacity="0.6" stroke-width="0.4" stroke-miterlimit="10"/>
<path d="M19.9062 208.262C40.6787 215.174 60.5641 222.936 79.47 229.534C110.111 240.197 128.869 245.834 151.416 258.955C168.954 269.156 178.417 278.748 193.497 285.752C203.949 290.445 214.66 294.536 225.58 298.005C245.742 305.12 256.073 301.276 276.864 295.972C298.117 290.576 314.935 289.541 332.491 280.042C353.966 277.196 373.852 280.393 397.174 275.809C399.343 276.099 401.528 276.253 403.717 276.271C450.658 278.36 459.972 284.311 481.503 288.229C510.961 293.588 545.206 285.9 572.225 286.159C592.554 286.362 610.259 287.341 625.542 291.574C642.988 296.397 659.011 310.867 673.204 321.512C680.43 326.946 685.919 331.455 690.613 330.753C719.573 326.354 720.867 300.13 743.727 262.614C751.711 249.511 759.75 234.302 772.299 220.349C785.79 205.342 823.324 148.588 892.184 108.595C895.646 106.575 899.459 104.474 903.624 102.293C934.117 86.3628 984.699 66.459 1055.33 65.2023" stroke="white" stroke-opacity="0.6" stroke-width="0.4" stroke-miterlimit="10"/>
<path d="M20.9042 215.47C41.0114 222.363 60.5087 230.254 79.4146 237.166C108.467 247.774 127.557 254.206 149.993 267.364C167.032 277.344 176.809 286.658 191.187 293.625C204.493 300.093 215.212 303.79 222.327 306.562C241.954 314.157 252.728 311.662 273.094 307.061C291.516 302.831 309.647 297.417 327.372 290.853C346.814 284.015 367.106 277.214 391.261 282.37C393.453 282.675 395.681 282.626 397.858 282.222C445.428 277.528 457.311 283.146 477.806 286.159C507.819 290.557 542.046 282.98 569.712 283.387C590.244 283.682 608.207 285.032 623.713 289.8C641.399 295.344 657.57 311.126 671.523 322.455C678.767 328.351 684.311 333.082 689.006 332.361C717.91 327.944 718.797 299.798 740.752 260.434C748.366 246.795 756.22 231.105 768.713 216.616C781.207 202.127 819.665 143.875 889.43 102.848C892.905 100.833 896.823 98.6711 900.981 96.4349C931.715 80.2458 982.87 59.843 1054.37 58.2721" stroke="white" stroke-opacity="0.6" stroke-width="0.4" stroke-miterlimit="10"/>
<path d="M21.9017 222.696C41.3436 229.589 60.4713 237.48 79.3772 244.873C106.821 255.425 126.263 262.67 148.569 275.846C165.202 285.604 175.219 294.641 188.858 301.572C201.591 308.058 211.94 312.106 219.074 315.118C238.183 323.194 249.364 322.03 269.323 318.131C288.932 314.305 301.942 309.426 322.253 301.683C340.549 294.697 360.027 293.348 385.365 288.931C387.693 288.524 389.929 288.561 392.018 288.192C440.179 279.543 454.649 281.945 474.11 284.089C504.659 287.434 538.904 280.079 567.179 280.615C587.859 281.021 606.155 282.721 621.883 288.007C639.828 294.106 656.109 311.33 669.84 323.361C677.103 329.718 682.777 334.671 687.379 333.95C716.246 329.533 716.745 299.446 737.869 258.179C745.131 244.004 752.82 227.87 765.239 212.79C776.937 198.597 816.061 138.959 886.787 97.0448C890.299 94.9934 894.18 92.7942 898.449 90.5026C929.404 74.0546 981.169 53.1529 1053.48 51.2678" stroke="white" stroke-opacity="0.6" stroke-width="0.4" stroke-miterlimit="10"/>
<path d="M22.992 229.903C41.7686 236.797 60.5451 244.836 79.414 252.468C105.287 262.947 125.043 270.949 147.239 284.218C163.299 293.754 173.722 302.514 186.64 309.426C198.782 315.894 208.688 320.274 215.914 323.601C234.524 332.158 246.111 332.324 265.664 329.145C284.441 326.077 296.324 321.106 317.226 312.512C334.431 305.379 353.559 302.034 379.543 295.51C381.853 294.937 384.145 294.697 386.27 294.161C435.06 281.576 452.136 284.126 470.506 282.019C501.799 278.582 533.284 277.199 564.758 277.879C585.586 278.378 604.196 280.43 620.201 286.307C638.404 293.034 654.778 311.644 668.251 324.359C675.514 331.178 681.188 336.334 685.845 335.632C714.693 331.197 714.786 299.188 735.041 256.164C741.953 241.472 749.511 224.895 761.82 209.205C772.631 195.437 812.476 134.265 884.181 91.4821C887.711 89.3937 891.574 87.1575 895.954 84.829C927.149 68.0854 979.487 46.6846 1052.65 44.5223" stroke="white" stroke-opacity="0.6" stroke-width="0.4" stroke-miterlimit="10"/>
<path d="M23.8978 235.096C42.009 241.99 60.4344 250.084 79.3403 258.105C103.661 268.473 123.694 277.399 145.871 290.613C161.451 299.853 172.188 308.428 184.386 315.284C195.936 321.771 205.417 326.484 212.698 330.069C230.865 339.088 242.803 340.585 261.95 338.127C279.913 335.817 290.724 330.845 312.162 321.161C328.314 313.861 347.165 308.594 373.703 299.908C376.013 299.151 378.305 298.652 380.486 297.931C429.941 281.446 449.549 279.894 466.865 277.787C498.52 273.892 530.414 272.267 562.301 272.926C583.258 273.536 602.201 275.939 618.353 282.37C636.834 289.762 653.282 309.703 666.625 323.028C673.869 330.309 679.562 335.706 684.274 334.985C713.086 330.531 712.827 296.6 732.158 251.71C738.719 236.464 746.203 219.48 758.345 203.18C768.307 189.818 808.854 127.131 881.539 83.4613C885.087 81.336 889.06 79.0628 893.422 76.6973C924.839 59.6765 977.787 37.7767 1051.78 35.3003" stroke="white" stroke-opacity="0.6" stroke-width="0.4" stroke-miterlimit="10"/>
<path d="M24.8403 237.887C42.2862 244.78 60.3974 252.875 79.1555 261.321C101.924 271.577 122.327 281.317 144.245 294.586C159.344 303.66 170.377 311.921 181.854 318.722C192.831 325.227 201.887 330.235 209.242 334.19C226.965 343.671 239.255 346.48 257.976 344.761C275.126 343.19 284.94 338.349 306.84 327.537C321.957 320.145 340.586 312.9 367.586 302.034C369.915 301.11 372.225 300.352 374.424 299.446C424.618 279.025 446.61 273.315 462.966 271.263C494.808 267.29 529.386 264.739 559.565 265.719C580.67 266.403 599.927 269.175 616.32 276.161C635.041 284.144 651.563 305.49 664.74 319.609C671.984 327.371 677.806 332.952 682.444 332.231C711.238 327.796 710.609 291.906 729.035 245.187C735.244 229.404 742.692 212.032 754.612 195.085C763.742 182.149 804.972 117.946 878.637 73.3893C882.222 71.2455 886.214 68.9169 890.631 66.496C922.289 49.2164 975.809 26.8177 1050.66 23.9901" stroke="white" stroke-opacity="0.6" stroke-width="0.4" stroke-miterlimit="10"/>
<path d="M25.8751 240.548C42.6742 247.423 60.4898 255.517 79.1554 264.425C100.977 274.65 122.247 286.013 142.877 298.467C157.496 307.338 168.751 315.34 179.599 322.067C189.967 328.628 198.616 333.913 206.045 338.182C223.343 348.143 235.965 352.246 254.262 351.285C270.617 350.435 279.488 345.833 301.776 333.802C315.932 326.17 334.358 317.077 361.746 304.048C364.075 302.939 366.403 301.923 368.64 300.851C419.554 276.493 443.764 265.645 459.325 264.629C491.833 262.559 526.281 257.236 557.107 258.401C578.36 259.158 597.931 262.337 614.546 269.859C633.526 278.471 650.103 301.276 663.113 316.061C670.321 324.285 676.235 330.088 680.874 329.385C709.63 324.913 708.595 287.083 726.152 238.534C732.351 220.347 740.742 202.983 751.138 186.824C759.454 174.276 801.35 108.577 875.976 63.1324C879.58 60.9517 883.608 58.5861 888.081 56.1282C919.96 38.5714 974.091 15.6737 1049.77 12.5874" stroke="white" stroke-opacity="0.6" stroke-width="0.4" stroke-miterlimit="10"/>
<path d="M26.8731 243.098C66.4637 259.979 104.761 279.745 141.454 302.237C200.482 338.441 216.616 357.994 250.491 357.679C275.163 357.439 280.985 346.942 355.832 305.933C412.125 275.089 440.271 259.731 455.629 257.883C510.813 251.433 571.134 243.45 612.716 263.427C642.692 277.824 666.311 328.258 679.247 326.262C717.595 320.311 702.459 251.415 747.626 178.416C755.148 166.255 797.691 99.0776 873.296 52.7462C902.644 34.7644 961.561 4.86249 1048.86 1" stroke="white" stroke-opacity="0.6" stroke-width="0.4" stroke-miterlimit="10"/>
</svg>
