<svg width="37" height="37" viewBox="0 0 37 37" fill="none" xmlns="http://www.w3.org/2000/svg">
<path d="M1.0393 14.1477L1.03933 14.1476C3.44256 4.5037 13.2102 -1.36532 22.8524 1.03875L22.8524 1.03876C32.4969 3.44284 38.3655 13.2111 35.9611 22.8544C33.5568 32.4971 23.7891 38.3657 14.144 35.961C4.50296 33.5569 -1.36617 23.7898 1.0393 14.1477Z" fill="#F7931A" stroke="white"/>
<path d="M26.6575 15.8644C27.0258 13.4028 25.1513 12.0795 22.5882 11.1967L23.4197 7.86211L21.3897 7.35625L20.5802 10.603C20.0465 10.47 19.4984 10.3446 18.9538 10.2203L19.769 6.95214L17.7401 6.44629L16.9081 9.77972C16.4664 9.67913 16.0328 9.5797 15.6118 9.47506L15.6142 9.46465L12.8146 8.7657L12.2746 10.9336C12.2746 10.9336 13.7807 11.2788 13.7489 11.3002C14.5711 11.5054 14.7197 12.0494 14.6948 12.4807L13.7478 16.2795C13.8044 16.294 13.8779 16.3148 13.9588 16.3472C13.8912 16.3304 13.8189 16.3119 13.7443 16.294L12.4168 21.6156C12.3162 21.8653 12.0612 22.2399 11.4865 22.0977C11.5067 22.1272 10.011 21.7295 10.011 21.7295L9.00317 24.0529L11.6449 24.7114C12.1364 24.8345 12.618 24.9634 13.0921 25.0848L12.252 28.4576L14.2797 28.9635L15.1117 25.6265C15.6656 25.7769 16.2033 25.9156 16.7295 26.0463L15.9004 29.3676L17.9304 29.8734L18.7705 26.507C22.2321 27.162 24.8351 26.8978 25.9307 23.7673C26.8136 21.2467 25.8868 19.7928 24.0655 18.8446C25.3919 18.5388 26.391 17.6664 26.6575 15.8644ZM22.0193 22.3677C21.392 24.8883 17.1475 23.5257 15.7714 23.184L16.8862 18.7157C18.2623 19.0591 22.675 19.739 22.0193 22.3677ZM22.6472 15.828C22.0748 18.1208 18.5421 16.9559 17.3961 16.6703L18.4068 12.6177C19.5528 12.9033 23.2433 13.4363 22.6472 15.828Z" fill="white"/>
</svg>
