<svg width="37" height="37" viewBox="0 0 37 37" fill="none" xmlns="http://www.w3.org/2000/svg">
<circle cx="18.5" cy="18.5" r="18" fill="black" stroke="white"/>
<g clip-path="url(#clip0_111_2584)">
<path d="M27.6548 23.4209L24.6008 26.6471C24.5344 26.7171 24.454 26.773 24.3648 26.8112C24.2755 26.8494 24.1792 26.8691 24.0819 26.869H9.60455C9.53547 26.869 9.46789 26.8491 9.41013 26.8118C9.35236 26.7745 9.30692 26.7214 9.27938 26.659C9.25185 26.5966 9.24342 26.5276 9.25514 26.4606C9.26685 26.3935 9.2982 26.3313 9.34532 26.2815L12.4016 23.0554C12.4678 22.9855 12.5479 22.9297 12.6369 22.8916C12.7258 22.8534 12.8218 22.8336 12.9189 22.8334H27.3955C27.4645 22.8334 27.5321 22.8533 27.5899 22.8906C27.6476 22.9279 27.693 22.9811 27.7207 23.0435C27.7482 23.1059 27.7566 23.1748 27.7449 23.2419C27.7332 23.3089 27.7018 23.3712 27.6548 23.4209ZM24.6008 16.9244C24.5344 16.8543 24.454 16.7984 24.3648 16.7602C24.2755 16.7221 24.1792 16.7024 24.0819 16.7024H9.60455C9.53547 16.7024 9.46789 16.7223 9.41013 16.7596C9.35236 16.7969 9.30692 16.8501 9.27938 16.9124C9.25185 16.9749 9.24342 17.0438 9.25514 17.1109C9.26685 17.1779 9.2982 17.2402 9.34532 17.2899L12.4016 20.5161C12.4678 20.586 12.5479 20.6417 12.6369 20.6799C12.7258 20.7181 12.8218 20.7379 12.9189 20.738H27.3955C27.4645 20.738 27.5321 20.7181 27.5899 20.6808C27.6476 20.6435 27.693 20.5904 27.7207 20.528C27.7482 20.4656 27.7566 20.3966 27.7449 20.3296C27.7332 20.2625 27.7018 20.2003 27.6548 20.1505L24.6008 16.9244ZM9.60455 14.607H24.0819C24.1792 14.6071 24.2755 14.5874 24.3648 14.5492C24.454 14.511 24.5344 14.4551 24.6008 14.3851L27.6548 11.1589C27.7018 11.1092 27.7332 11.0469 27.7449 10.9799C27.7566 10.9128 27.7482 10.8438 27.7207 10.7814C27.693 10.719 27.6476 10.6659 27.5899 10.6286C27.5321 10.5913 27.4645 10.5714 27.3955 10.5714H12.9189C12.8218 10.5716 12.7258 10.5914 12.6369 10.6295C12.5479 10.6677 12.4678 10.7235 12.4016 10.7934L9.34611 14.0195C9.29903 14.0692 9.2677 14.1314 9.25596 14.1984C9.24422 14.2653 9.25258 14.3343 9.28001 14.3966C9.30745 14.459 9.35277 14.5121 9.41042 14.5495C9.46807 14.5869 9.53553 14.6068 9.60455 14.607Z" fill="url(#paint0_linear_111_2584)"/>
</g>
<defs>
<linearGradient id="paint0_linear_111_2584" x1="10.8116" y1="27.2574" x2="25.7372" y2="10.1757" gradientUnits="userSpaceOnUse">
<stop offset="0.08" stop-color="#9945FF"/>
<stop offset="0.3" stop-color="#8752F3"/>
<stop offset="0.5" stop-color="#5497D5"/>
<stop offset="0.6" stop-color="#43B4CA"/>
<stop offset="0.72" stop-color="#28E0B9"/>
<stop offset="0.97" stop-color="#19FB9B"/>
</linearGradient>
<clipPath id="clip0_111_2584">
<rect width="18.5" height="16.2976" fill="white" transform="translate(9.25 10.5714)"/>
</clipPath>
</defs>
</svg>
