<svg width="150" height="24" viewBox="0 0 150 24" fill="none" xmlns="http://www.w3.org/2000/svg">
<path d="M35.6339 22.3915C32.8505 22.3915 29.378 21.606 27.5316 19.5115C25.7127 17.3895 24.8032 14.8127 24.8032 11.7812V4.54697C24.8032 3.88556 24.817 3.40327 24.8446 3.10012C24.8997 2.79697 25.0237 2.4387 25.2166 2.02532C25.6024 1.28123 26.6772 0.90918 28.441 0.90918C30.3701 0.90918 31.5001 1.4328 31.8308 2.48004C31.9961 2.92099 32.0788 3.62374 32.0788 4.58831V11.8226C32.0788 12.9525 32.3957 13.8344 33.0296 14.4682C33.691 15.1021 34.5591 15.419 35.6339 15.419C36.7363 15.419 37.6182 15.0883 38.2796 14.4269C38.9686 13.7655 39.3131 12.8974 39.3131 11.8226V4.50564C39.3131 3.87178 39.3268 3.40327 39.3544 3.10012C39.4095 2.76941 39.5473 2.39737 39.7678 1.98398C40.1261 1.26745 41.1871 0.90918 42.9509 0.90918C44.6871 0.90918 45.7481 1.28123 46.1339 2.02532C46.3268 2.4387 46.4371 2.81075 46.4646 3.14146C46.5198 3.44461 46.5473 3.91311 46.5473 4.54697V11.8226C46.5473 14.985 45.5118 17.6168 43.6171 19.5115C41.7224 21.4062 38.1766 22.3086 35.6339 22.3915Z" fill="white"/>
<path d="M16.122 11.8229L20.7106 16.4528C21.7027 17.4449 22.1988 18.2992 22.1988 19.0158C22.1988 19.7048 21.7027 20.5453 20.7106 21.5374C19.7185 22.502 18.8779 22.9843 18.189 22.9843C17.5 22.9843 16.6594 22.4882 15.6673 21.4961L11.1201 16.9075L6.53149 21.4961C5.53937 22.4882 4.69882 22.9843 4.00984 22.9843C3.34842 22.9843 2.50787 22.502 1.48819 21.5374C0.496063 20.5453 0 19.7048 0 19.0158C0 18.2992 0.496063 17.4449 1.48819 16.4528L6.07677 11.8229L1.48819 7.19295C0.496063 6.20082 0 5.36027 0 4.6713C0 3.95476 0.496063 3.10043 1.48819 2.10831C2.50787 1.11618 3.34842 0.620117 4.00984 0.620117C4.69882 0.620117 5.53937 1.11618 6.53149 2.10831L11.1201 6.73823L15.6673 2.10831C16.6594 1.11618 17.5 0.620117 18.189 0.620117C18.8779 0.620117 19.7185 1.11618 20.7106 2.10831C21.7027 3.10043 22.1988 3.95476 22.1988 4.6713C22.1988 5.36027 21.7027 6.20082 20.7106 7.19295L16.122 11.8229Z" fill="white"/>
<path d="M59.1417 0.8611C61.9114 0.861101 64.3642 1.69476 66.2106 3.78925C68.0295 5.91129 68.939 8.48807 68.939 11.5196L68.939 18.7538C68.939 19.4152 68.9252 19.8975 68.8976 20.2007C68.8425 20.5038 68.7185 20.8621 68.5256 21.2755C68.1398 22.0196 67.065 22.3916 65.3012 22.3916C63.372 22.3916 62.2421 21.868 61.9114 20.8207C61.7461 20.3798 61.6634 19.677 61.6634 18.7125L61.6634 11.4782C61.6634 10.3483 61.3465 9.46641 60.7126 8.83255C60.0512 8.19869 59.252 8.22625 59.1417 8.22625C59.0315 8.22625 58.1909 8.21247 57.5295 8.87389C56.8405 9.53531 56.4961 10.4034 56.4961 11.4782L56.4961 18.7951C56.4961 19.429 56.4823 19.8975 56.4547 20.2007C56.3996 20.5314 56.2618 20.9034 56.0413 21.3168C55.6831 22.0333 54.622 22.3916 52.8583 22.3916C51.122 22.3916 50.061 22.0196 49.6752 21.2755C49.4823 20.8621 49.372 20.49 49.3445 20.1593C49.2894 19.8562 49.2618 19.3877 49.2618 18.7538L49.2618 11.4782C49.2618 8.31582 50.2973 5.68393 52.192 3.78925C54.0867 1.89456 56.372 0.8611 59.1417 0.8611Z" fill="white"/>
<path d="M71.5431 0.8611C74.3128 0.861101 76.7655 1.69476 78.612 3.78925C80.4309 5.91129 81.3403 8.48807 81.3403 11.5196L81.3403 18.7538C81.3403 19.4152 81.3266 19.8975 81.299 20.2007C81.2439 20.5038 81.1199 20.8621 80.9269 21.2755C80.5411 22.0196 79.4663 22.3916 77.7025 22.3916C75.7734 22.3916 74.6435 21.868 74.3128 20.8207C74.1474 20.3798 74.0647 19.677 74.0647 18.7125L74.0647 11.4782C74.0647 10.3483 73.7478 9.46641 73.114 8.83255C72.4525 8.19869 71.6533 8.22625 71.5431 8.22625C71.4329 8.22625 70.5923 8.21247 69.9309 8.87389C69.2419 9.53531 68.8974 10.4034 68.8974 11.4782L68.8974 18.7951C68.8974 19.429 68.8836 19.8975 68.8561 20.2007C68.801 20.5314 68.6632 20.9034 68.4427 21.3168C68.0844 22.0333 67.0234 22.3916 65.2596 22.3916C63.5234 22.3916 62.4624 22.0196 62.0766 21.2755C61.8837 20.8621 61.7734 20.49 61.7459 20.1593C61.6907 19.8562 61.6632 19.3877 61.6632 18.7538L61.6632 11.4782C61.6632 8.31582 62.6987 5.68393 64.5934 3.78925C66.4881 1.89456 68.7734 0.8611 71.5431 0.8611Z" fill="white"/>
<path d="M93.5905 0.8611C96.3601 0.861101 98.8129 1.69476 100.659 3.78925C102.478 5.91129 103.388 8.48807 103.388 11.5196L103.388 18.7538C103.388 19.4152 103.374 19.8975 103.346 20.2007C103.291 20.5038 103.167 20.8621 102.974 21.2755C102.588 22.0196 101.514 22.3916 99.7499 22.3916C97.8208 22.3916 96.6908 21.868 96.3601 20.8207C96.1948 20.3798 96.1121 19.677 96.1121 18.7125L96.1121 11.4782C96.1121 10.3483 95.7952 9.46641 95.1613 8.83255C94.4999 8.19869 93.7007 8.22625 93.5905 8.22625C93.4802 8.22625 92.6397 8.21247 91.9783 8.87389C91.2893 9.53531 90.9448 10.4034 90.9448 11.4782L90.9448 18.7951C90.9448 19.429 90.931 19.8975 90.9035 20.2007C90.8483 20.5314 90.7105 20.9034 90.4901 21.3168C90.1318 22.0333 89.0708 22.3916 87.307 22.3916C85.5708 22.3916 84.5098 22.0196 84.1239 21.2755C83.931 20.8621 83.8208 20.49 83.7932 20.1593C83.7381 19.8562 83.7105 19.3877 83.7105 18.7538L83.7105 11.4782C83.7105 8.31582 84.746 5.68393 86.6407 3.78925C88.5354 1.89456 90.8208 0.8611 93.5905 0.8611Z" fill="white"/>
<path d="M105.992 0.8611C108.762 0.861101 111.215 1.69476 113.061 3.78925C114.88 5.91129 115.789 8.48807 115.789 11.5196L115.789 18.7538C115.789 19.4152 115.776 19.8975 115.748 20.2007C115.693 20.5038 115.569 20.8621 115.376 21.2755C114.99 22.0196 113.915 22.3916 112.152 22.3916C110.222 22.3916 109.092 21.868 108.762 20.8207C108.596 20.3798 108.514 19.677 108.514 18.7125L108.514 11.4782C108.514 10.3483 108.197 9.46641 107.563 8.83255C106.902 8.19869 106.102 8.22625 105.992 8.22625C105.882 8.22625 105.041 8.21247 104.38 8.87389C103.691 9.53531 103.346 10.4034 103.346 11.4782L103.346 18.7951C103.346 19.429 103.333 19.8975 103.305 20.2007C103.25 20.5314 103.112 20.9034 102.892 21.3168C102.533 22.0333 101.472 22.3916 99.7086 22.3916C97.9724 22.3916 96.9114 22.0196 96.5255 21.2755C96.3326 20.8621 96.2224 20.49 96.1948 20.1593C96.1397 19.8562 96.1122 19.3877 96.1122 18.7538L96.1122 11.4782C96.1122 8.31582 97.1477 5.68393 99.0423 3.78925C100.937 1.89456 103.222 0.8611 105.992 0.8611Z" fill="white"/>
<path fill-rule="evenodd" clip-rule="evenodd" d="M147.29 1.31253C148.853 2.73242 148.969 5.15039 147.549 6.71323L134.602 20.9636C133.888 21.7496 132.879 22.2031 131.817 22.2156C130.755 22.2281 129.736 21.7984 129.004 21.0294L122.052 13.7304C120.596 12.2014 120.655 9.78134 122.184 8.3251C123.713 6.86887 126.133 6.92788 127.589 8.45691L131.706 12.7797L141.889 1.57137C143.309 0.00853087 145.727 -0.107355 147.29 1.31253Z" fill="white"/>
</svg>
