<svg width="1512" height="982" viewBox="0 0 1512 982" fill="none" xmlns="http://www.w3.org/2000/svg">
<path d="M1647.49 -141.649C1592.7 -61.3347 1532.83 16.0214 1462.51 83.1553C1439.71 104.922 1415.66 125.709 1388.36 141.482C1332.71 173.644 1267.21 183.085 1206.64 204.621C1129.72 231.969 1060.37 279.9 1006.96 341.572C966.765 387.979 924.936 448.845 871.485 480.936C822.927 510.088 748.253 484.135 694.893 483.492C640.24 482.836 585.891 499.415 539.929 528.753C515.851 544.123 493.979 563.028 475.534 584.856C457.897 605.731 447.227 635.909 413.758 628.577C402.695 626.153 393.1 619.501 382.674 615.073C346.444 599.689 299.854 615.617 280.628 649.964" stroke="white" stroke-opacity="0.6" stroke-width="0.387078" stroke-miterlimit="10"/>
<path d="M1644.82 -138.758C1592 -58.424 1533.13 19.1076 1463.21 85.9347C1439.94 108.206 1415.18 128.926 1387.58 145.409C1354.26 165.25 1317.4 177.16 1280.07 188.192C1254.59 195.724 1228.88 202.845 1203.92 211.794C1154.61 229.477 1108.05 254.718 1066.42 285.795C1042.07 303.968 1019.42 324.14 998.871 346.034C984.42 361.373 969.783 378.318 954.574 395.192C933.169 418.886 910.615 442.43 885.822 461.56C876.926 468.439 867.744 474.747 858.235 480.253C818.916 502.987 764.072 493.369 716.468 489.134C703.697 487.973 691.447 487.198 680.146 487.541C633.643 488.815 587.755 502.531 547.239 525.766C540.263 529.765 533.443 534.048 526.8 538.602C503.111 554.839 481.568 574.521 463.09 596.869C452.148 610.106 443.703 626.739 430.866 635.975C422.963 641.663 413.419 644.489 400.632 642.088C389.46 639.989 379.66 633.824 369.052 629.759C332.22 615.608 285.192 631.5 265.034 665.866" stroke="white" stroke-opacity="0.6" stroke-width="0.387078" stroke-miterlimit="10"/>
<path d="M1642.15 -135.87C1591.3 -55.514 1533.42 22.1897 1463.91 88.7114C1440.17 111.492 1414.7 132.143 1386.79 149.33C1353.23 169.895 1316.07 182.627 1278.34 194.314C1252.58 202.298 1226.54 209.793 1201.18 218.963C1151.1 237.066 1103.52 262.096 1060.66 292.323C1035.6 309.994 1012.17 329.456 990.777 350.491C975.686 365.224 960.418 381.46 944.6 397.596C922.305 420.25 898.887 442.702 873.3 461.278C864.138 467.957 854.712 474.129 844.97 479.572C804.608 502.062 749.411 494.082 701.708 491.727C688.932 491.051 676.689 490.806 665.389 491.597C619.019 494.843 573.634 510.154 533.766 534.873C526.904 539.123 520.2 543.659 513.664 548.454C490.36 565.559 469.147 586.018 450.64 608.888C439.676 622.442 431.034 639.218 418.001 648.739C409.968 654.607 400.316 657.612 387.501 655.604C376.212 653.834 366.216 648.157 355.425 644.451C317.994 631.532 270.521 647.39 249.437 681.77" stroke="white" stroke-opacity="0.6" stroke-width="0.387078" stroke-miterlimit="10"/>
<path d="M1639.48 -132.983C1590.59 -52.6072 1533.71 25.2755 1464.62 91.4855C1440.4 114.773 1414.23 135.354 1386.01 153.251C1352.2 174.544 1314.75 188.095 1276.62 200.438C1250.57 208.876 1224.21 216.745 1198.46 226.129C1147.6 244.654 1099 269.47 1054.91 298.842C1029.13 316.017 1004.98 334.826 982.689 354.942C966.994 369.109 951.054 384.594 934.635 399.992C911.447 421.607 887.173 442.965 860.789 460.984C851.366 467.462 841.688 473.5 831.723 478.881C790.313 501.128 734.767 494.91 686.961 494.309C674.177 494.146 661.944 494.38 650.643 495.636C604.407 500.776 559.52 517.762 520.308 543.966C513.558 548.471 506.968 553.254 500.543 558.292C477.628 576.263 456.744 597.499 438.21 620.892C427.224 634.762 418.388 651.681 405.155 661.488C396.995 667.538 387.236 670.727 374.383 669.103C362.979 667.665 352.785 662.469 341.81 659.121C303.777 647.436 255.864 663.254 233.85 697.657" stroke="white" stroke-opacity="0.6" stroke-width="0.387078" stroke-miterlimit="10"/>
<path d="M1636.81 -130.092C1589.89 -49.6965 1534.01 28.3618 1465.33 94.2686C1440.63 118.065 1413.8 138.63 1385.23 157.179C1351.22 179.261 1313.43 193.568 1274.9 206.571C1248.57 215.458 1221.88 223.706 1195.73 233.306C1144.1 252.254 1094.48 276.86 1049.17 305.378C1022.67 322.052 997.749 340.172 974.606 359.408C958.276 372.984 941.698 387.742 924.673 402.409C900.595 422.983 875.458 443.25 848.278 460.711C838.59 466.99 828.663 472.892 818.473 478.207C776.02 500.21 720.127 495.666 672.211 496.907C659.421 497.238 647.2 497.97 635.898 499.692C589.803 506.722 545.411 525.385 506.847 553.073C500.208 557.83 493.732 562.863 487.419 568.144C464.893 586.981 444.335 608.996 425.77 632.908C414.763 647.093 405.732 664.151 392.301 674.248C384.013 680.481 374.143 683.854 361.262 682.616C349.74 681.511 339.352 676.798 328.193 673.809C289.558 663.357 241.204 679.14 218.263 713.557" stroke="white" stroke-opacity="0.6" stroke-width="0.387078" stroke-miterlimit="10"/>
<path d="M1634.14 -127.205C1589.19 -46.788 1534.3 31.4458 1466.03 97.0436C1440.86 121.347 1413.33 141.855 1384.45 161.098C1350.2 183.916 1312.1 199.033 1273.17 212.692C1246.57 222.033 1219.54 230.655 1193 240.469C1140.6 259.839 1089.95 284.23 1043.41 311.899C1016.2 328.076 990.511 345.499 966.518 363.859C949.555 376.838 932.371 390.919 914.704 404.806C889.782 424.402 863.7 443.446 835.764 460.418C825.797 466.473 815.638 472.262 805.216 477.515C761.716 499.275 705.483 496.398 657.456 499.491C644.663 500.313 632.446 501.546 621.144 503.734C575.19 512.642 531.293 532.994 493.378 562.17C486.855 567.18 480.492 572.46 474.284 577.988C452.148 597.694 431.916 620.488 413.321 644.918C402.292 659.42 393.064 676.621 379.437 687.003C371.02 693.419 361.04 696.977 348.132 696.124C336.49 695.352 325.909 691.122 314.567 688.492C275.333 679.272 226.537 695.02 202.665 729.456" stroke="white" stroke-opacity="0.6" stroke-width="0.387078" stroke-miterlimit="10"/>
<path d="M1631.47 -124.314C1588.49 -43.8774 1534.6 34.5319 1466.74 99.823C1441.1 124.634 1412.86 145.08 1383.66 165.025C1349.18 188.58 1310.78 204.503 1271.44 218.821C1244.56 228.613 1217.21 237.613 1190.28 247.642C1137.1 267.436 1085.43 291.616 1037.66 318.427C1009.74 334.104 983.272 350.836 958.432 368.317C940.834 380.702 923.016 394.066 904.742 407.21C878.931 425.778 851.98 443.707 823.252 460.133C813.022 465.983 802.615 471.646 791.965 476.829C747.422 498.345 690.848 497.135 642.706 502.078C629.91 503.391 617.704 505.119 606.397 507.783C560.587 518.567 517.181 540.61 479.913 571.27C473.502 576.532 467.253 582.062 461.156 587.829C439.409 608.401 419.506 631.972 400.88 656.926C389.829 671.744 380.407 689.088 366.58 699.755C358.039 706.354 347.939 710.104 335.005 709.631C323.242 709.198 312.469 705.442 300.946 703.169C261.11 695.183 211.87 710.893 187.075 745.349" stroke="white" stroke-opacity="0.6" stroke-width="0.387078" stroke-miterlimit="10"/>
<path d="M1628.8 -121.426C1587.78 -40.9695 1534.89 37.614 1467.44 102.6C1441.32 127.917 1412.39 148.3 1382.88 168.946C1348.16 193.234 1309.45 209.971 1269.71 224.944C1242.55 235.19 1214.87 244.564 1187.54 254.807C1133.6 275.023 1080.9 298.99 1031.91 324.95C1003.26 340.128 976.027 356.166 950.336 372.771C932.098 384.562 913.647 397.21 894.767 409.614C868.066 427.15 840.252 443.967 810.732 459.846C800.239 465.492 789.581 471.024 778.703 476.143C733.113 497.416 676.203 497.867 627.947 504.663C615.147 506.465 602.949 508.692 591.64 511.826C545.975 524.478 503.056 548.222 466.441 580.368C460.14 585.882 454.008 591.666 448.02 597.672C426.663 619.111 407.085 643.461 388.429 668.934C377.357 684.068 367.737 701.555 353.714 712.507C345.044 719.285 334.83 723.233 321.871 723.131C309.983 723.038 299.023 719.759 287.316 717.845C246.881 711.087 197.201 726.766 171.472 761.238" stroke="white" stroke-opacity="0.6" stroke-width="0.387078" stroke-miterlimit="10"/>
<path d="M1626.13 -118.54C1587.09 -38.061 1535.19 40.6981 1468.15 105.377C1441.56 131.204 1411.93 151.52 1382.1 172.871C1347.14 197.888 1308.13 215.442 1267.99 231.075C1240.56 241.77 1212.55 251.522 1184.82 261.983C1130.1 282.622 1076.38 306.375 1026.16 331.485C996.798 346.164 968.784 361.504 942.253 377.236C923.374 388.43 904.294 400.364 884.807 412.025C857.217 428.533 828.539 444.237 798.223 459.568C787.463 465.01 776.562 470.409 765.455 475.464C718.821 496.492 661.576 498.601 613.199 507.256C600.395 509.546 588.209 512.271 576.897 515.876C531.375 530.389 488.949 555.839 452.986 589.472C446.802 595.239 440.783 601.27 434.9 607.522C413.931 629.827 394.679 654.955 375.995 680.95C364.901 696.401 355.086 714.027 340.865 725.268C332.067 732.229 321.736 736.378 308.755 736.646C296.744 736.896 285.593 734.087 273.704 732.535C232.667 727.01 182.545 742.653 155.892 777.143" stroke="white" stroke-opacity="0.6" stroke-width="0.387078" stroke-miterlimit="10"/>
<path d="M1623.45 -115.648C1586.38 -35.1505 1535.48 43.7841 1468.85 108.158C1441.78 134.491 1411.46 154.743 1381.31 176.797C1346.11 202.544 1306.79 220.915 1266.26 237.203C1238.54 248.353 1210.2 258.476 1182.08 269.152C1126.59 290.213 1071.85 313.756 1020.4 338.007C990.328 352.189 961.537 366.831 934.163 381.692C914.642 392.289 894.93 403.51 874.837 414.428C846.356 429.904 816.816 444.499 785.703 459.282C774.68 464.52 763.528 469.788 752.192 474.778C704.512 495.564 646.929 499.326 598.438 509.846C585.633 512.623 573.451 515.845 562.138 519.925C516.763 536.292 474.826 563.455 439.51 598.572C433.436 604.591 427.532 610.872 421.761 617.367C401.181 640.538 382.26 666.448 363.542 692.963C352.43 708.728 342.415 726.499 327.997 738.025C319.071 745.169 308.623 749.517 295.617 750.157C283.48 750.752 272.143 748.414 260.069 747.218C218.433 742.924 167.864 758.531 140.283 793.039" stroke="white" stroke-opacity="0.6" stroke-width="0.387078" stroke-miterlimit="10"/>
<path d="M1620.78 -112.762C1585.68 -32.245 1535.78 46.8686 1469.56 110.932C1442.02 137.775 1410.99 157.96 1380.53 180.719C1345.09 207.196 1305.48 226.382 1264.54 243.328C1236.54 254.929 1207.87 265.43 1179.35 276.323C1123.09 297.808 1067.32 321.136 1014.65 344.537C983.855 358.219 954.287 372.159 926.074 386.151C905.911 396.148 885.567 406.66 864.869 416.838C835.493 431.281 805.095 444.769 773.191 459.005C761.905 464.038 750.502 469.176 738.941 474.101C690.217 494.642 632.299 500.053 583.687 512.441C570.878 515.706 558.707 519.423 547.388 523.979C502.159 542.192 460.712 571.076 426.045 607.68C420.084 613.954 414.293 620.482 408.634 627.22C388.443 651.257 369.847 677.946 351.104 704.978C339.969 721.059 329.76 738.973 315.143 750.785C306.089 758.112 295.525 762.664 282.497 763.67C270.234 764.613 258.707 762.765 246.452 761.905C204.208 758.935 153.207 774.416 124.695 808.944" stroke="white" stroke-opacity="0.6" stroke-width="0.387078" stroke-miterlimit="10"/>
<path d="M1618.11 -109.874C1584.98 -29.3334 1536.06 49.9522 1470.26 113.707C1442.25 141.056 1410.52 161.176 1379.74 184.639C1344.06 211.841 1304.15 231.848 1262.81 249.45C1234.53 261.505 1205.53 272.379 1176.62 283.487C1119.59 305.393 1062.79 328.509 1008.9 351.058C977.388 364.242 947.034 377.48 917.985 390.602C897.18 399.998 876.204 409.798 854.903 419.234C824.636 432.642 793.379 445.028 760.676 458.712C749.125 463.546 737.478 468.546 725.684 473.409C675.914 493.708 617.658 500.764 568.931 515.022C556.119 518.769 543.955 522.982 532.634 528.021C487.548 548.075 446.59 578.687 412.575 616.773C406.728 623.298 401.053 630.08 395.5 637.059C375.699 661.962 357.428 689.429 338.657 716.984C327.501 733.381 317.093 751.435 302.281 763.536C293.103 771.044 282.418 775.805 269.367 777.169C256.976 778.466 245.265 777.081 232.825 776.576C189.982 774.838 138.536 790.285 109.099 824.83" stroke="white" stroke-opacity="0.6" stroke-width="0.387078" stroke-miterlimit="10"/>
<path d="M1615.44 -106.982C1584.28 -26.423 1536.36 53.0418 1470.96 116.491C1442.48 144.349 1410.04 164.4 1378.96 188.571C1343.04 216.499 1302.82 237.323 1261.08 255.584C1232.53 268.088 1203.2 279.341 1173.89 290.665C1116.09 312.995 1058.27 335.899 1003.15 357.595C970.918 370.279 939.786 382.816 909.895 395.071C888.447 403.866 866.839 412.953 844.933 421.649C813.771 434.023 781.658 445.307 748.16 458.437C736.346 463.066 724.448 467.936 712.431 472.736C661.617 492.791 603.022 501.488 554.182 517.624C541.369 521.854 529.212 526.564 517.891 532.08C472.945 553.97 432.483 586.313 399.116 625.887C393.382 632.667 387.82 639.696 382.376 646.919C362.964 672.692 345.022 700.933 326.218 729.012C315.041 745.725 304.439 763.921 289.427 776.308C280.12 783.996 269.314 788.97 256.243 790.695C243.73 792.348 231.829 791.424 219.205 791.278C175.765 790.775 123.875 806.18 93.5057 840.745" stroke="white" stroke-opacity="0.6" stroke-width="0.387078" stroke-miterlimit="10"/>
<path d="M1612.77 -104.096C1583.58 -23.5179 1536.53 55.9928 1471.67 119.265C1442.66 147.572 1409.57 167.611 1378.17 192.489C1342.01 221.141 1301.5 242.787 1259.36 261.707C1230.53 274.666 1200.87 286.294 1171.16 297.83C1112.59 320.583 1053.75 343.272 997.399 364.115C964.455 376.301 932.538 388.127 901.81 399.52C879.719 407.711 857.478 416.085 834.973 424.048C802.915 435.388 769.95 445.567 735.651 458.146C723.575 462.574 711.425 467.31 699.179 472.046C647.318 491.858 588.387 502.192 539.43 520.206C526.615 524.92 514.465 530.125 503.141 536.121C458.335 559.843 418.368 593.921 385.653 634.978C380.03 642.01 374.582 649.288 369.25 656.755C350.227 683.394 332.61 712.413 313.777 741.011C302.578 758.04 291.779 776.38 276.571 789.051C267.136 796.922 256.214 802.109 243.12 804.192C230.48 806.201 218.394 805.737 205.59 805.948C161.553 806.681 109.215 822.049 77.9221 856.63" stroke="white" stroke-opacity="0.6" stroke-width="0.387078" stroke-miterlimit="10"/>
<path d="M1610.1 -101.208C1582.87 -20.6073 1536.82 59.0753 1472.37 122.042C1442.88 150.855 1409.1 170.823 1377.39 196.41C1340.98 225.785 1300.17 248.255 1257.63 267.83C1228.51 281.24 1198.53 293.245 1168.43 304.999C1109.08 328.171 1049.22 350.654 991.641 370.642C957.977 382.329 925.276 393.447 893.716 403.978C870.975 411.562 848.109 419.23 824.998 426.452C792.044 436.755 758.226 445.838 723.127 457.861C710.786 462.09 698.393 466.692 685.916 471.36C633.012 490.928 573.742 502.9 524.668 522.793C511.847 527.991 499.708 533.691 488.38 540.167C443.707 565.715 404.243 601.533 372.177 644.078C366.668 651.36 361.335 658.889 356.111 666.6C337.477 694.105 320.188 723.907 301.325 753.023C290.102 770.365 279.11 788.847 263.703 801.808C254.14 809.863 243.099 815.266 229.986 817.702C217.218 820.073 204.949 820.058 191.958 820.63C147.323 822.594 94.5436 837.927 62.3171 872.525" stroke="white" stroke-opacity="0.6" stroke-width="0.387078" stroke-miterlimit="10"/>
<path d="M1607.43 -98.3182C1582.17 -17.6976 1537.12 62.1628 1473.08 124.82C1443.11 154.138 1408.63 174.037 1376.61 200.335C1339.96 230.434 1298.85 253.726 1255.91 273.957C1226.51 287.821 1196.2 300.2 1165.71 312.167C1105.59 335.761 1044.7 358.03 985.895 377.169C951.517 388.357 918.03 398.765 885.634 408.434C862.25 415.414 838.751 422.369 815.036 428.855C781.187 438.116 746.514 446.107 710.619 457.574C698.017 461.601 685.371 466.07 672.67 470.672C618.718 489.997 559.109 503.598 509.922 525.377C497.096 531.055 484.965 537.251 473.636 544.213C429.099 571.583 390.132 609.148 358.718 653.179C353.321 660.717 348.103 668.496 342.989 676.446C324.745 704.818 307.784 735.396 288.889 765.037C277.645 782.695 266.459 801.319 250.852 814.566C241.162 822.803 230.003 828.427 216.865 831.213C203.972 833.946 191.516 834.387 178.342 835.317C133.107 838.514 79.8816 853.81 46.7319 888.427" stroke="white" stroke-opacity="0.6" stroke-width="0.387078" stroke-miterlimit="10"/>
<path d="M1604.76 -95.4301C1581.47 -14.7906 1537.54 65.3748 1473.78 127.597C1443.4 157.486 1408.15 177.251 1375.82 204.256C1338.92 235.078 1297.52 259.193 1254.18 280.08C1224.51 294.394 1193.86 307.147 1162.97 319.336C1102.08 343.353 1040.17 365.408 980.139 383.691C945.041 394.38 910.773 404.076 877.538 412.888C853.507 419.257 829.379 425.506 805.065 431.259C770.32 439.482 734.793 446.377 698.099 457.288C685.235 461.114 672.337 465.449 659.407 469.987C604.412 489.068 544.46 504.299 495.16 527.968C482.333 534.128 470.204 540.818 458.88 548.261C414.473 577.451 376.011 616.763 345.245 662.278C339.963 670.066 334.856 678.097 329.85 686.292C311.995 715.529 295.36 746.887 276.435 777.046C265.169 795.02 253.786 813.788 237.987 827.318C228.171 835.733 216.893 841.583 203.732 844.715C190.715 847.811 178.068 848.676 164.712 849.993C118.869 854.331 65.2118 869.683 31.129 904.317" stroke="white" stroke-opacity="0.6" stroke-width="0.387078" stroke-miterlimit="10"/>
<path d="M1602.08 -92.5418C1580.77 -11.8799 1537.83 68.4612 1474.49 130.376C1443.63 160.77 1407.68 180.466 1375.04 208.183C1337.89 239.726 1296.2 264.663 1252.46 286.213C1222.5 300.981 1191.53 314.109 1160.24 326.51C1098.58 350.95 1035.64 372.795 974.387 390.225C938.575 400.416 903.52 409.397 869.451 417.351C844.774 423.113 820.017 428.648 795.097 433.669C759.457 440.85 723.075 446.654 685.585 457.008C672.46 460.633 659.313 464.832 646.154 469.306C590.113 488.144 529.815 504.999 480.412 530.558C467.577 537.2 455.457 544.38 444.133 552.309C399.851 583.317 361.9 624.379 331.782 671.382C326.613 679.424 321.623 687.701 316.724 696.136C299.257 726.24 282.951 758.375 263.995 789.058C252.707 807.348 241.129 826.255 225.131 840.075C215.187 848.673 203.793 854.747 190.61 858.224C177.471 861.688 164.632 862.998 151.093 864.674C104.651 870.243 50.5485 885.562 15.5376 920.215" stroke="white" stroke-opacity="0.6" stroke-width="0.387078" stroke-miterlimit="10"/>
<path d="M1599.42 -89.6516C1580.07 -8.97092 1538.13 71.5456 1475.2 133.154C1443.87 164.057 1407.2 183.678 1374.26 212.105C1336.87 244.367 1294.87 270.131 1250.73 292.337C1220.5 307.556 1189.2 321.061 1157.52 333.678C1095.09 358.541 1031.12 380.172 968.645 396.751C932.113 406.442 896.278 414.705 861.373 421.807C836.049 426.957 810.663 431.786 785.142 436.07C748.603 442.206 711.372 446.925 673.082 456.723C659.692 460.149 646.297 464.212 632.909 468.622C575.82 487.217 515.177 505.696 465.667 533.147C452.827 540.264 440.711 547.942 429.389 556.356C385.23 589.174 347.792 631.993 318.325 680.478C313.267 688.773 308.391 697.299 303.604 705.978C286.527 736.948 270.548 769.865 251.564 801.061C240.254 819.668 228.479 838.719 212.285 852.823C202.213 861.605 190.708 867.904 177.494 871.727C164.235 875.562 151.204 877.317 137.481 879.352C90.4351 886.151 35.8946 901.433 -0.0430048 936.108" stroke="white" stroke-opacity="0.6" stroke-width="0.387078" stroke-miterlimit="10"/>
<path d="M1596.74 -86.7639C1579.36 -6.06435 1538.42 74.6277 1475.9 135.931C1444.09 167.34 1406.72 186.889 1373.47 216.031C1335.83 249.013 1293.54 275.604 1249 298.465C1218.49 314.138 1186.86 328.017 1154.78 340.848C1091.58 366.133 1026.59 387.555 962.881 403.276C925.635 412.47 889.012 420.015 853.273 426.262C827.306 430.799 801.286 434.921 775.163 438.475C737.73 443.569 699.645 447.201 660.558 456.438C646.906 459.663 633.259 463.592 619.646 467.936C561.514 486.287 500.522 506.39 450.905 535.737C438.059 543.335 425.951 551.504 414.629 560.405C370.589 595.034 333.664 639.61 304.85 689.582C299.908 698.13 295.143 706.908 290.466 715.826C273.779 747.666 258.125 781.358 239.112 813.077C227.781 832 215.812 851.193 199.42 865.587C189.22 874.551 177.601 881.079 164.362 885.243C150.978 889.452 137.759 891.647 123.853 894.043C76.2088 902.075 21.2228 917.324 -15.6443 952.013" stroke="white" stroke-opacity="0.6" stroke-width="0.387078" stroke-miterlimit="10"/>
<path d="M1594.07 -83.8779C1578.66 -3.15449 1538.71 77.7131 1476.6 138.704C1444.33 170.624 1406.25 190.096 1372.68 219.949C1334.8 253.652 1292.22 281.068 1247.28 304.585C1216.49 320.709 1184.53 334.964 1152.06 348.012C1088.08 373.721 1022.07 394.927 957.137 409.797C919.172 418.491 881.769 425.319 845.193 430.713C818.58 434.639 791.932 438.05 765.203 440.874C726.874 444.921 687.937 447.47 648.049 456.147C634.133 459.176 620.24 462.965 606.394 467.246C547.215 485.354 485.873 507.079 436.154 538.319C423.302 546.393 411.199 555.059 399.884 564.448C355.959 600.89 319.555 647.22 291.388 698.676C286.557 707.476 281.91 716.503 277.338 725.667C261.036 758.374 245.715 792.842 226.671 825.085C215.321 844.322 203.15 863.657 186.563 878.339C176.235 887.487 164.503 894.245 151.237 898.745C137.734 903.328 124.321 905.964 110.231 908.716C61.9844 917.981 6.56029 933.194 -31.2349 967.901" stroke="white" stroke-opacity="0.6" stroke-width="0.387078" stroke-miterlimit="10"/>
<path d="M1591.4 -80.9862C1577.96 -0.243959 1539.01 80.7992 1477.31 141.489C1444.55 173.914 1405.77 193.31 1371.9 223.881C1333.77 258.3 1290.89 286.546 1245.55 310.722C1214.48 327.299 1182.19 341.931 1149.33 355.192C1084.58 381.322 1017.54 402.316 951.383 416.336C912.704 424.532 874.515 430.637 837.1 435.183C809.843 438.496 782.564 441.198 755.233 443.289C716.011 446.289 676.215 447.757 635.529 455.873C621.352 458.701 607.207 462.355 593.136 466.571C532.914 484.436 471.216 507.779 421.395 540.917C408.537 549.471 396.435 558.632 385.128 568.504C341.315 606.752 305.434 654.843 277.916 707.787C273.197 716.842 268.664 726.116 264.204 735.523C248.291 769.096 233.295 804.343 214.221 837.104C202.85 856.658 190.484 876.135 173.698 891.103C163.245 900.429 151.4 907.423 138.102 912.263C124.484 917.22 110.873 920.295 96.6032 923.408C47.7549 933.906 -8.11104 949.084 -46.8358 983.806" stroke="white" stroke-opacity="0.6" stroke-width="0.387078" stroke-miterlimit="10"/>
<path d="M1588.73 -78.0985C1577.26 2.66247 1539.3 83.8848 1478.01 144.264C1444.79 177.198 1405.29 196.519 1371.12 227.8C1332.73 262.938 1289.57 292.011 1243.82 316.844C1212.48 333.871 1179.86 348.877 1146.6 362.359C1081.07 388.913 1013.02 409.694 945.631 422.856C906.232 430.553 867.262 435.937 829.011 439.634C801.11 442.33 773.198 444.328 745.265 445.69C705.148 447.645 664.5 448.032 623.016 455.584C608.575 458.216 594.181 461.735 579.882 465.886C518.612 483.508 456.561 508.465 406.645 543.503C393.778 552.535 381.682 562.188 370.379 572.549C326.675 612.603 291.321 662.455 264.456 716.885C259.851 726.19 255.429 735.715 251.08 745.366C235.556 779.805 220.886 815.831 201.784 849.114C190.391 868.984 177.828 888.605 160.846 903.858C150.265 913.366 138.312 920.594 124.984 925.77C111.247 931.106 97.442 934.619 82.9871 938.087C33.5404 949.817 -22.7724 964.958 -62.4203 999.701" stroke="white" stroke-opacity="0.6" stroke-width="0.387078" stroke-miterlimit="10"/>
<path d="M1586.06 -75.2118C1576.56 5.57164 1539.6 86.9658 1478.72 147.039C1445.02 180.479 1404.75 199.658 1370.33 231.72C1331.63 267.501 1288.24 297.474 1242.1 322.965C1210.47 340.447 1177.52 355.827 1143.87 369.521C1077.57 396.497 1008.49 417.065 939.878 429.378C899.765 436.577 860.012 441.236 820.923 444.085C792.377 446.165 763.836 447.457 735.3 448.087C694.291 448.994 652.8 448.385 610.502 455.292C595.801 457.75 581.157 461.106 566.628 465.193C504.316 482.57 441.905 509.148 391.893 546.086C379.018 555.595 366.929 565.744 355.629 576.59C312.034 618.452 277.203 670.064 250.989 725.977C246.496 735.534 242.193 745.312 237.947 755.205C222.812 790.51 208.473 827.317 189.337 861.12C177.923 881.306 165.165 901.065 147.984 916.608C137.275 926.3 125.214 933.761 111.855 939.273C98.0011 944.988 84.0013 948.939 69.3626 952.766C19.3138 965.729 -37.4372 980.834 -78.0167 1015.6" stroke="white" stroke-opacity="0.6" stroke-width="0.387078" stroke-miterlimit="10"/>
<path d="M1583.39 -72.3201C1575.85 8.48353 1539.89 90.0519 1479.42 149.819C1445.25 183.769 1404.27 202.877 1369.55 235.647C1330.6 272.152 1286.92 302.947 1240.37 329.094C1208.47 347.027 1175.19 362.783 1141.14 376.696C1074.07 404.095 1003.97 424.452 934.13 435.91C893.297 442.609 852.767 446.545 812.839 448.547C783.649 450.01 754.477 450.543 725.336 450.496C683.434 450.28 641.081 448.658 597.992 455.01C583.03 457.267 568.133 460.489 553.376 464.512C490.016 481.646 427.249 509.839 377.141 548.677C364.257 558.663 352.17 569.306 340.883 580.642C297.392 624.309 263.093 677.683 237.528 735.084C233.147 744.896 228.957 754.921 224.823 765.056C210.077 801.228 196.063 838.813 176.898 873.136C165.462 893.638 152.51 913.539 135.13 929.368C124.293 939.243 112.124 946.937 98.7294 952.784C84.7627 958.879 70.562 963.262 55.741 967.452C5.09364 981.647 -52.1041 996.714 -93.6118 1031.49" stroke="white" stroke-opacity="0.6" stroke-width="0.387078" stroke-miterlimit="10"/>
<path d="M1580.72 -69.4339C1575.15 11.3886 1540.19 93.136 1480.13 152.596C1445.48 187.052 1403.8 206.092 1368.77 239.569C1329.58 276.8 1285.59 308.415 1238.65 335.221C1206.47 353.607 1172.86 369.74 1138.42 383.865C1070.57 411.688 999.446 431.83 928.38 442.438C886.833 448.639 845.519 451.848 804.749 453.006C774.918 453.851 745.115 453.684 715.367 452.905C672.571 451.648 629.363 448.935 585.474 454.731C570.247 456.788 555.102 459.874 540.12 463.832C475.717 480.722 412.584 510.53 362.385 551.269C349.492 561.733 337.408 572.869 326.128 584.693C282.737 630.166 248.974 685.301 224.056 744.186C219.79 754.248 215.711 764.525 211.689 774.903C197.332 811.941 183.644 850.305 164.454 885.149C152.996 905.966 139.847 926.012 122.27 942.125C111.306 952.183 99.0304 960.115 85.6036 966.294C71.5255 972.774 57.124 977.589 42.1178 982.133C-9.13166 997.562 -66.7677 1012.59 -109.203 1047.39" stroke="white" stroke-opacity="0.6" stroke-width="0.387078" stroke-miterlimit="10"/>
<path d="M1578.05 -66.5462C1574.45 14.2987 1540.48 96.2181 1480.83 155.373C1445.71 190.338 1403.32 209.305 1367.98 243.493C1328.55 281.448 1284.26 313.886 1236.92 341.348C1204.46 360.188 1170.53 376.694 1135.69 391.036C1067.07 419.281 994.919 439.21 922.629 448.962C880.362 454.664 838.271 457.15 796.662 457.46C766.187 457.689 735.757 456.824 705.403 455.305C661.718 453.008 617.645 449.202 572.966 454.443C557.477 456.3 542.08 459.252 526.869 463.145C461.419 479.793 397.926 511.217 347.638 553.854C334.733 564.796 322.654 576.425 311.383 588.736C268.091 636.012 234.864 692.911 210.595 753.283C206.442 763.601 202.48 774.123 198.566 784.746C184.599 822.654 171.239 861.791 152.017 897.159C140.537 918.293 127.194 938.477 109.418 954.88C98.3278 965.116 85.9487 973.292 72.4849 979.801C58.2941 986.662 43.6917 991.909 28.5031 996.816C-23.3484 1013.48 -81.4262 1028.47 -124.792 1063.29" stroke="white" stroke-opacity="0.6" stroke-width="0.387078" stroke-miterlimit="10"/>
<path d="M1575.37 -63.6547C1573.75 17.209 1540.78 99.3076 1481.54 158.152C1445.94 193.624 1402.85 212.521 1367.2 247.416C1327.52 286.095 1282.94 319.356 1235.19 347.475C1202.45 366.765 1168.19 383.649 1132.95 398.208C1063.56 426.873 990.39 446.595 916.872 455.493C873.891 460.697 831.018 462.388 788.571 461.925C757.455 461.486 726.393 459.97 695.431 457.717C650.853 454.38 605.922 449.477 560.445 454.166C544.691 455.823 529.049 458.638 513.609 462.467C447.116 478.87 383.176 511.82 332.88 556.452C319.944 567.846 307.89 579.994 296.626 592.792C253.431 641.876 220.739 700.536 197.125 762.389C193.083 772.959 189.237 783.734 185.43 794.598C171.852 833.372 158.817 873.288 139.566 909.175C128.063 930.621 114.523 950.953 96.5517 967.64C85.3335 978.06 72.8513 986.471 59.3484 993.316C45.0512 1000.56 30.243 1006.24 14.8706 1011.51C-37.5794 1029.4 -96.1005 1044.36 -140.393 1079.19" stroke="white" stroke-opacity="0.6" stroke-width="0.387078" stroke-miterlimit="10"/>
<path d="M1572.71 -60.768C1573.04 20.116 1541.07 102.39 1482.24 160.928C1446.17 196.908 1402.37 215.738 1366.41 251.34C1326.49 290.742 1281.61 324.822 1233.47 353.6C1200.45 373.345 1165.86 390.602 1130.22 405.376C1060.06 434.462 985.862 453.971 911.118 462.02C867.421 466.722 823.772 467.703 780.48 466.381C748.723 465.333 717.03 463.108 685.466 460.122C639.998 455.745 594.204 449.75 547.93 453.882C531.913 455.335 516.021 458.019 500.355 461.782C432.815 477.943 368.526 512.526 318.126 559.039C305.185 570.919 293.106 583.533 281.878 596.837C238.674 647.641 206.627 708.148 183.662 771.489C179.735 782.313 175.999 793.336 172.302 804.44C159.113 844.079 146.409 884.777 127.124 921.183C115.6 942.946 101.866 963.42 83.695 980.393C72.3489 990.995 59.7651 999.646 46.2239 1006.82C31.8189 1014.45 16.8047 1020.55 1.25222 1026.18C-51.7999 1045.3 -110.763 1060.23 -155.983 1095.08" stroke="white" stroke-opacity="0.6" stroke-width="0.387078" stroke-miterlimit="10"/>
<path d="M1570.03 -57.8797C1572.34 23.0266 1541.36 105.473 1482.94 163.703C1446.4 200.19 1401.9 218.951 1365.62 255.261C1325.46 295.39 1280.29 330.288 1231.74 359.723C1198.44 379.918 1163.51 397.551 1127.49 412.543C1056.56 442.053 981.334 461.348 905.366 468.541C860.951 472.748 816.523 473.014 772.392 470.832C739.995 469.178 707.667 466.246 675.497 462.52C629.136 457.105 582.485 450.015 535.416 453.59C519.134 454.843 502.993 457.391 487.099 461.09C418.515 477.007 353.874 513.229 303.37 561.62C290.422 573.98 278.345 587.092 267.124 600.879C224.044 653.518 192.508 715.754 170.191 780.583C166.376 791.658 162.758 802.93 159.169 814.278C146.369 854.784 133.991 896.26 114.678 933.189C103.131 955.268 89.1992 975.882 70.8331 993.144C59.3592 1003.93 46.6773 1012.82 33.0955 1020.32C18.5842 1028.34 3.36422 1034.87 -12.3721 1040.86C-66.0241 1061.21 -125.427 1076.1 -171.577 1110.97" stroke="white" stroke-opacity="0.6" stroke-width="0.387078" stroke-miterlimit="10"/>
<path d="M1567.36 -54.9901C1571.64 25.9351 1541.66 108.56 1483.65 166.486C1446.64 203.482 1401.43 222.17 1364.84 259.188C1324.43 300.04 1278.96 335.761 1230.01 365.855C1196.43 386.504 1161.18 404.511 1124.76 419.717C1053.06 449.649 976.813 468.733 899.614 475.074C854.483 478.779 809.275 478.337 764.3 475.297C731.261 473.033 698.302 469.392 665.525 464.931C618.275 458.476 570.759 450.291 522.895 453.312C506.351 454.364 489.963 456.78 473.839 460.411C404.208 476.085 339.218 513.944 288.611 564.217C275.657 577.062 263.588 590.67 252.367 604.935C209.407 659.41 178.386 723.377 156.719 789.693C153.014 801.02 149.511 812.543 146.034 824.134C133.623 865.506 121.57 907.761 102.228 945.208C90.6595 967.603 76.5337 988.359 57.9679 1005.91C46.3661 1016.88 33.6009 1026.03 19.9601 1033.84C5.35733 1042.27 -10.0848 1049.21 -26.0035 1055.55C-80.2576 1077.14 -140.103 1091.99 -187.18 1126.88" stroke="white" stroke-opacity="0.6" stroke-width="0.387078" stroke-miterlimit="10"/>
<path d="M1564.69 -52.102C1570.94 28.842 1541.95 111.643 1484.36 169.261C1446.86 206.764 1400.95 225.381 1364.06 263.111C1323.4 304.687 1277.64 341.231 1228.29 371.981C1127.78 434.616 1012.13 473.323 893.863 481.599C814.31 487.165 734.359 479.598 655.562 467.332C607.418 459.837 559.045 450.558 510.386 453.021C420.929 457.551 336.309 502.584 273.863 566.799C211.418 631.013 169.779 713.229 143.261 798.787C119.193 876.426 104.032 962.655 45.1182 1018.66C-22.2606 1082.7 -127.578 1088.1 -202.764 1142.77" stroke="white" stroke-opacity="0.6" stroke-width="0.387078" stroke-miterlimit="10"/>
<path d="M1576.28 470.486C1541.38 378.75 1473.3 300.042 1387.55 252.301C1363.16 238.719 1336.33 227.349 1308.42 228.128C1227.77 230.387 1174.03 315.506 1126.94 370.325C1070.11 436.477 1014.81 504.138 952.702 565.503C917.833 599.954 874.579 634.542 825.823 629.486C776.45 624.364 741.496 581.116 707.685 544.774C668.29 502.425 622.153 464.835 568.036 444.419C513.919 424.003 450.938 422.397 399.697 449.228C359.57 470.241 329.695 506.47 304.089 543.834C236.811 642.011 191.221 754.962 171.497 872.337" stroke="white" stroke-opacity="0.6" stroke-width="0.387078" stroke-miterlimit="10"/>
<path d="M1577.02 465.637C1546.19 384.559 1486.82 316.631 1409.9 268.554C1402.76 264.089 1395.52 259.781 1388.14 255.725C1363.87 242.408 1337.31 231.214 1309.71 231.79C1229.9 233.425 1176.18 315.187 1128.73 368.843C1086.66 416.412 1045.56 465.343 1001.54 512.302C986.282 528.629 970.733 544.688 954.751 560.352C920.082 594.326 877.331 628.48 829.26 624.282C780.586 620.03 745.871 578.891 712.251 544.416C673.073 504.247 627.356 468.654 573.859 449.6C555.234 442.967 535.56 438.53 515.678 436.683C478.472 433.216 440.529 438.8 407.382 455.991C367.567 476.641 337.632 511.9 311.826 548.095C259.567 621.341 219.796 702.435 194.293 787.899C186.68 813.401 180.34 839.286 175.331 865.469" stroke="white" stroke-opacity="0.6" stroke-width="0.387078" stroke-miterlimit="10"/>
<path d="M1577.77 460.794C1547.96 382.419 1488.8 319.462 1410.35 271.704C1403.23 267.372 1396.05 263.132 1388.72 259.159C1364.59 246.111 1338.28 235.088 1311 235.458C1232.02 236.469 1178.33 314.874 1130.52 367.37C1088.52 413.484 1047.58 461.482 1003.37 507.885C988.169 523.946 972.689 539.766 956.799 555.211C922.331 588.711 880.078 622.428 832.696 619.088C784.719 615.702 750.243 576.673 716.819 544.066C677.862 506.076 632.558 472.483 579.687 454.793C561.277 448.636 541.844 444.592 522.207 443.039C485.466 440.113 447.962 445.875 415.076 462.765C375.573 483.056 345.581 517.339 319.569 552.364C266.865 623.24 226.279 701.053 199.45 783.565C191.443 808.186 184.661 833.217 179.17 858.608" stroke="white" stroke-opacity="0.6" stroke-width="0.387078" stroke-miterlimit="10"/>
<path d="M1578.51 455.947C1549.73 380.275 1490.79 322.282 1410.8 274.85C1403.7 270.641 1396.58 266.473 1389.31 262.587C1365.31 249.802 1339.26 238.961 1312.31 239.122C1234.16 239.51 1180.51 314.555 1132.31 365.89C1090.39 410.547 1049.5 457.509 1005.22 503.463C990.03 519.227 974.656 534.84 958.856 550.066C924.587 583.09 882.834 616.374 836.145 613.889C788.864 611.369 754.629 574.453 721.395 543.713C682.656 507.903 637.772 476.308 585.525 459.978C567.327 454.299 548.139 450.645 528.744 449.384C492.466 447.001 455.408 452.937 422.776 469.532C383.586 489.463 353.536 522.772 327.32 556.625C274.168 625.137 232.769 699.664 204.616 779.227C196.214 802.968 188.993 827.144 183.024 851.745" stroke="white" stroke-opacity="0.6" stroke-width="0.387078" stroke-miterlimit="10"/>
<path d="M1579.26 451.103C1551.5 378.134 1492.8 325.092 1411.24 278.001C1404.17 273.919 1397.11 269.821 1389.89 266.021C1366.02 253.506 1340.23 242.837 1313.6 242.79C1236.29 242.555 1182.68 314.244 1134.1 364.417C1092.26 407.623 1051.48 453.616 1007.05 499.047C991.902 514.536 976.611 529.917 960.9 544.926C926.832 577.475 885.583 610.326 839.577 608.695C792.994 607.045 759 572.238 725.956 543.365C687.434 509.736 642.969 480.134 591.344 465.169C573.361 459.963 554.418 456.704 535.263 455.736C499.451 453.897 462.836 460.009 430.456 476.301C391.573 495.871 361.467 528.209 335.05 560.889C281.452 627.032 239.239 698.278 209.756 774.891C200.956 797.752 193.296 821.074 186.846 844.882" stroke="white" stroke-opacity="0.6" stroke-width="0.387078" stroke-miterlimit="10"/>
<path d="M1580 446.258C1553.27 375.991 1494.81 327.89 1411.69 281.148C1404.65 277.189 1397.64 273.169 1390.48 269.451C1366.74 257.199 1341.21 246.708 1314.89 246.458C1238.42 245.6 1184.87 313.932 1135.89 362.945C1094.15 404.706 1053.47 449.723 1008.88 494.633C993.782 509.848 978.571 524.998 962.953 539.787C929.086 571.859 888.336 604.277 843.019 603.504C797.133 602.72 763.383 570.025 730.526 543.019C692.224 511.565 648.177 483.965 597.173 470.366C579.406 465.637 560.704 462.77 541.791 462.093C506.445 460.795 470.269 467.084 438.151 483.079C399.581 502.29 369.419 533.656 342.796 565.165C288.755 628.941 245.725 696.903 214.918 770.568C205.723 792.549 197.621 815.017 190.69 838.032" stroke="white" stroke-opacity="0.6" stroke-width="0.387078" stroke-miterlimit="10"/>
<path d="M1580.75 441.409C1555.05 373.845 1496.85 330.666 1412.14 284.29C1405.12 280.451 1398.17 276.506 1391.06 272.876C1367.46 260.892 1342.19 250.573 1316.19 250.115C1240.55 248.636 1187.07 313.61 1137.68 361.459C1096.05 401.779 1055.46 445.818 1010.72 490.203C995.657 505.144 980.526 520.063 965 534.629C931.333 566.228 891.086 598.208 846.454 598.293C801.265 598.375 767.756 567.793 735.089 542.654C697.005 513.381 653.378 487.778 602.995 475.54C585.443 471.287 566.985 468.811 548.314 468.431C513.429 467.676 477.7 474.139 445.835 489.835C407.577 508.687 377.354 539.079 350.53 569.416C296.043 630.823 252.199 695.503 220.065 766.216C210.473 787.318 201.932 808.931 194.524 831.152" stroke="white" stroke-opacity="0.6" stroke-width="0.387078" stroke-miterlimit="10"/>
<path d="M1581.49 436.567C1556.82 371.706 1498.9 333.439 1412.58 287.441C1405.6 283.72 1398.7 279.854 1391.64 276.31C1368.17 264.591 1343.16 254.449 1317.48 253.787C1242.68 251.682 1189.28 313.311 1139.46 359.99C1097.97 398.873 1057.46 441.931 1012.55 485.793C997.537 500.463 982.483 515.144 967.051 529.495C933.584 560.617 893.837 592.164 849.894 593.105C805.402 594.058 772.131 565.581 739.66 542.311C701.797 515.217 658.586 491.612 608.829 480.738C591.491 476.959 573.276 474.878 554.847 474.789C520.428 474.575 485.143 481.218 453.531 496.616C415.584 515.104 385.305 544.525 358.273 573.693C303.342 632.733 258.682 694.13 225.22 761.896C215.232 782.117 206.25 802.876 198.36 824.305" stroke="white" stroke-opacity="0.6" stroke-width="0.387078" stroke-miterlimit="10"/>
<path d="M1582.23 431.718C1558.59 369.56 1500.97 336.187 1413.03 290.586C1406.08 286.981 1399.23 283.198 1392.23 279.738C1368.89 268.287 1344.14 258.322 1318.77 257.452C1244.81 254.724 1191.51 313.002 1141.26 358.511C1099.9 395.964 1059.45 438.036 1014.39 481.369C999.421 495.764 984.444 510.215 969.101 524.348C935.836 554.996 896.591 586.106 853.334 587.909C809.539 589.728 776.509 563.364 744.229 541.961C706.583 517.046 663.789 495.44 614.655 485.927C597.533 482.624 579.563 480.934 561.373 481.138C527.421 481.469 492.578 488.284 461.22 503.386C423.586 521.516 393.249 549.961 366.013 577.961C310.637 634.632 265.162 692.748 230.374 757.562C219.988 776.904 210.566 796.805 202.198 817.448" stroke="white" stroke-opacity="0.6" stroke-width="0.387078" stroke-miterlimit="10"/>
<path d="M1582.98 426.872C1560.36 367.416 1503.05 338.92 1413.48 293.733C1406.56 290.244 1399.76 286.541 1392.82 283.167C1369.6 271.981 1345.11 262.193 1320.07 261.114C1246.94 257.764 1193.75 312.699 1143.05 357.032C1101.84 393.064 1061.45 434.147 1016.23 476.951C1001.3 491.078 986.403 505.291 971.153 519.205C938.088 549.375 899.342 580.053 856.774 582.713C813.676 585.398 780.887 561.147 748.797 541.611C711.369 518.877 668.995 499.267 620.483 491.119C603.577 488.293 585.847 486.995 567.901 487.491C534.41 488.364 500.011 495.358 468.912 510.156C431.589 527.922 401.192 555.398 373.756 582.226C317.935 636.531 271.644 691.362 235.532 753.228C224.752 771.689 214.887 790.736 206.042 810.585" stroke="white" stroke-opacity="0.6" stroke-width="0.387078" stroke-miterlimit="10"/>
<path d="M1583.72 422.028C1562.14 365.275 1505.14 341.641 1413.93 296.88C1407.04 293.502 1400.29 289.884 1393.4 286.594C1370.32 275.676 1346.09 266.06 1321.36 264.779C1249.07 260.807 1196 312.401 1144.83 355.554C1103.78 390.171 1063.45 430.256 1018.05 472.528C1003.18 486.383 988.352 500.364 973.195 514.058C940.33 543.755 902.087 573.995 860.205 577.513C817.803 581.064 785.255 558.926 753.355 541.257C716.148 520.702 674.191 503.091 626.3 496.304C609.608 493.951 592.118 493.046 574.416 493.836C541.391 495.25 507.435 502.421 476.591 516.923C439.576 534.332 409.126 560.83 381.484 586.487C325.218 638.423 278.111 689.969 240.67 748.889C229.496 766.47 219.189 784.663 209.863 803.719" stroke="white" stroke-opacity="0.6" stroke-width="0.387078" stroke-miterlimit="10"/>
<path d="M1584.47 417.181C1563.91 363.13 1507.25 344.338 1414.37 300.026C1407.52 296.759 1400.82 293.231 1393.98 290.022C1371.03 279.37 1347.06 269.931 1322.66 268.441C1251.2 263.845 1198.27 312.111 1146.62 354.075C1105.75 387.285 1065.46 426.365 1019.9 468.107C1005.07 481.694 990.315 495.438 975.251 508.913C942.586 538.133 904.844 567.943 863.652 572.314C821.948 576.735 789.643 556.701 757.932 540.907C720.941 522.528 679.406 506.918 632.138 501.492C615.662 499.616 598.417 499.101 580.956 500.188C548.396 502.143 514.883 509.489 484.292 523.693C447.59 540.742 417.078 566.267 389.237 590.755C332.527 640.325 284.604 688.587 245.837 744.554C234.264 761.256 223.518 778.594 213.716 796.856" stroke="white" stroke-opacity="0.6" stroke-width="0.387078" stroke-miterlimit="10"/>
<path d="M1585.21 412.339C1565.68 360.992 1509.37 347.018 1414.82 303.177C1408.01 300.019 1401.36 296.563 1394.57 293.456C1371.77 283.026 1348.04 273.809 1323.95 272.111C1253.33 266.89 1200.55 311.835 1148.41 352.604C1107.73 384.42 1067.47 422.489 1021.73 463.693C1006.95 477.011 992.278 490.513 977.299 503.772C944.836 532.518 907.596 561.891 867.089 567.119C826.082 572.407 794.017 554.486 762.501 540.557C725.728 524.359 684.612 510.746 637.967 506.685C621.706 505.285 604.702 505.162 587.484 506.541C555.387 509.042 522.317 516.564 491.986 530.467C455.595 547.153 425.027 571.707 396.981 595.024C339.826 642.224 291.088 687.205 250.996 740.224C239.029 756.045 227.841 772.53 217.559 790.002" stroke="white" stroke-opacity="0.6" stroke-width="0.387078" stroke-miterlimit="10"/>
<path d="M1585.96 407.491C1567.45 358.846 1511.5 349.671 1415.27 306.323C1408.49 303.272 1401.89 299.909 1395.15 296.885C1372.49 286.719 1349.02 277.68 1325.25 275.774C1255.46 269.931 1202.84 311.565 1150.2 351.124C1109.71 381.551 1069.47 418.604 1023.57 459.27C1008.84 472.319 994.235 485.586 979.35 498.625C947.086 526.894 910.346 555.834 870.528 561.919C830.217 568.073 798.394 552.265 767.068 540.203C730.516 526.184 689.817 514.569 643.791 511.87C627.742 510.945 610.987 511.215 594.005 512.887C562.373 515.93 529.746 523.628 499.668 537.232C463.59 553.559 432.965 577.137 404.713 599.283C347.114 644.117 297.56 685.814 256.139 735.883C243.773 750.825 232.146 766.454 221.384 783.134" stroke="white" stroke-opacity="0.6" stroke-width="0.387078" stroke-miterlimit="10"/>
<path d="M1586.7 402.644C1569.22 356.701 1513.64 352.303 1415.71 309.47C1408.98 306.524 1402.42 303.252 1395.73 300.314C1373.2 290.413 1349.99 281.55 1326.54 279.441C1257.59 272.975 1205.14 311.306 1151.99 349.65C1111.71 378.702 1071.49 414.726 1025.4 454.853C1010.72 467.633 996.191 480.663 981.398 493.483C949.335 521.278 913.097 549.781 873.965 556.724C834.352 563.748 802.768 550.049 771.633 539.854C735.298 528.015 695.016 518.399 649.616 517.063C633.782 516.615 617.268 517.277 600.528 519.241C569.363 522.825 537.178 530.698 507.355 544.007C471.589 559.975 440.902 582.58 412.448 603.559C354.403 646.023 304.034 684.439 261.288 731.559C248.528 745.621 236.459 760.397 225.219 776.282" stroke="white" stroke-opacity="0.6" stroke-width="0.387078" stroke-miterlimit="10"/>
<path d="M1587.45 397.8C1571 354.56 1515.79 354.914 1416.16 312.615C1409.47 309.774 1402.95 306.592 1396.32 303.742C1373.92 294.104 1350.97 285.42 1327.84 283.103C1259.72 276.014 1207.47 311.057 1153.78 348.168C1113.72 375.853 1073.5 410.845 1027.24 450.431C1012.61 462.946 998.148 475.736 983.449 488.336C951.586 515.654 915.848 543.724 877.404 551.525C838.488 559.415 807.143 547.825 776.2 539.5C740.086 529.84 700.221 522.223 655.444 522.247C639.826 522.276 623.557 523.328 607.058 525.589C576.354 529.715 544.614 537.768 515.051 550.775C479.596 566.381 448.853 588.014 420.194 607.821C361.705 647.92 310.52 683.051 266.448 727.22C253.288 740.399 240.781 754.32 229.062 769.416" stroke="white" stroke-opacity="0.6" stroke-width="0.387078" stroke-miterlimit="10"/>
<path d="M1588.19 392.954C1572.77 352.417 1517.96 357.497 1416.6 315.763C1409.95 313.023 1403.47 309.938 1396.9 307.174C1374.63 297.805 1351.93 289.34 1329.13 286.771C1261.83 279.196 1209.8 310.831 1155.56 346.696C1115.74 373.031 1075.52 406.976 1029.07 446.014C1014.49 458.263 1000.1 470.814 985.496 483.195C953.834 510.039 918.599 537.672 880.84 546.331C842.617 555.088 811.517 545.61 780.767 539.15C744.871 531.67 705.426 526.05 661.272 527.44C645.868 527.942 629.841 529.39 613.585 531.942C583.348 536.613 552.049 544.838 522.739 557.547C487.593 572.794 456.793 593.452 427.932 612.087C368.998 649.816 316.998 681.666 271.598 722.888C258.044 735.187 245.094 748.254 232.895 762.561" stroke="white" stroke-opacity="0.6" stroke-width="0.387078" stroke-miterlimit="10"/>
<path d="M1588.94 388.109C1574.54 350.275 1520.13 360.058 1417.06 318.912C1410.44 316.273 1404.01 313.287 1397.49 310.604C1375.35 301.5 1352.92 293.212 1330.43 290.439C1263.97 282.237 1212.15 310.617 1157.36 345.223C1117.78 370.219 1077.55 403.109 1030.92 441.6C1016.4 453.586 1002.07 465.894 987.556 478.058C956.093 504.425 921.357 531.625 884.289 541.144C846.764 550.771 815.907 543.401 785.345 538.809C749.666 533.51 710.641 529.887 667.107 532.638C651.919 533.617 636.132 535.457 620.119 538.301C590.348 543.513 559.493 551.917 530.436 564.327C495.601 579.212 464.747 598.902 435.681 616.366C376.303 651.729 323.483 680.296 276.761 718.565C262.808 729.984 249.423 742.195 236.744 755.709" stroke="white" stroke-opacity="0.6" stroke-width="0.387078" stroke-miterlimit="10"/>
<path d="M1589.68 383.263C1576.31 348.128 1522.32 362.591 1417.5 322.06C1410.93 319.52 1404.54 316.631 1398.07 314.036C1376.06 305.201 1353.89 297.085 1331.71 294.105C1266.09 285.282 1214.5 310.424 1159.14 343.745C1119.82 367.415 1079.56 399.242 1032.74 437.177C1018.28 448.9 1004.02 460.963 989.598 472.911C958.337 498.804 924.104 525.57 887.719 535.944C850.891 546.437 820.276 541.18 789.903 538.455C754.444 535.331 715.836 533.706 672.924 537.823C657.951 539.278 642.409 541.509 626.635 544.646C597.325 550.4 566.914 558.98 538.114 571.09C503.591 585.615 472.679 604.331 443.409 620.624C383.585 653.617 329.949 678.9 281.904 714.224C267.556 724.762 253.729 736.12 240.569 748.841" stroke="white" stroke-opacity="0.6" stroke-width="0.387078" stroke-miterlimit="10"/>
<path d="M1590.42 378.415C1578.09 345.982 1524.51 365.091 1417.95 325.202C1411.41 322.758 1405.07 319.972 1398.66 317.46C1376.78 308.888 1354.87 300.95 1333.01 297.765C1268.23 288.315 1216.88 310.241 1160.93 342.265C1121.87 364.624 1081.59 395.378 1034.58 432.757C1020.17 444.217 1005.98 456.037 991.652 467.762C960.59 493.178 926.858 519.512 891.162 530.742C855.03 542.102 824.654 538.954 794.473 538.1C759.232 537.156 721.044 537.528 678.757 543.009C663.999 544.937 648.699 547.564 633.17 550.995C604.325 557.291 574.357 566.046 545.815 577.86C511.604 592.026 480.631 609.768 451.159 624.888C390.891 655.516 336.44 677.514 287.065 709.888C272.323 719.546 258.053 730.049 244.413 741.978" stroke="white" stroke-opacity="0.6" stroke-width="0.387078" stroke-miterlimit="10"/>
<path d="M1591.17 373.572C1579.86 343.843 1526.71 367.566 1418.39 328.352C1411.9 326.004 1405.6 323.32 1399.24 320.893C1377.5 312.591 1355.84 304.826 1334.31 301.432C1270.35 291.357 1219.27 310.089 1162.72 340.788C1123.93 361.849 1083.62 391.517 1036.42 428.336C1022.06 439.534 1007.94 451.11 993.699 462.617C962.838 487.56 929.604 513.457 894.601 525.543C859.167 537.773 829.031 536.734 799.04 537.746C764.017 538.982 726.245 541.353 684.582 548.194C670.039 550.599 654.984 553.616 639.694 557.341C611.316 564.181 581.791 573.113 553.5 584.624C519.601 598.427 488.572 615.197 458.897 629.151C398.183 657.408 342.917 676.126 292.216 705.548C277.076 714.326 262.368 723.975 248.25 735.11" stroke="white" stroke-opacity="0.6" stroke-width="0.387078" stroke-miterlimit="10"/>
<path d="M1591.91 368.725C1581.63 341.699 1528.92 370.01 1418.84 331.5C1412.39 329.243 1406.12 326.663 1399.82 324.323C1378.21 316.29 1356.82 308.655 1335.6 305.1C1272.5 294.274 1221.66 309.963 1164.51 339.316C1125.99 359.096 1085.65 387.663 1038.25 423.922C1023.95 434.861 1009.9 446.191 995.748 457.479C965.088 481.944 932.357 507.407 898.039 520.351C863.302 533.447 833.407 534.522 803.61 537.399C768.808 540.814 731.452 545.183 690.411 553.39C676.085 556.272 661.27 559.681 646.223 563.697C618.307 571.08 589.228 580.185 561.192 591.402C527.602 604.847 496.515 620.642 466.635 633.425C405.477 659.316 349.395 674.749 297.37 701.223C281.835 709.121 266.683 717.912 252.087 728.261" stroke="white" stroke-opacity="0.6" stroke-width="0.387078" stroke-miterlimit="10"/>
<path d="M1592.66 363.881C1583.4 339.557 1531.14 372.425 1419.29 334.649C1412.88 332.488 1406.66 330.012 1400.41 327.756C1378.93 319.992 1357.8 312.53 1336.9 308.766C1274.63 297.313 1224.06 309.861 1166.3 337.84C1128.07 356.358 1087.69 383.813 1040.09 419.502C1025.85 430.182 1011.86 441.266 997.8 452.336C967.341 476.328 935.109 501.354 901.479 515.156C867.438 529.118 837.784 532.305 808.179 537.049C773.594 542.645 736.658 549.011 696.238 558.579C682.122 561.935 667.555 565.734 652.749 570.046C625.298 577.97 596.659 587.253 568.884 598.172C535.606 611.258 504.462 626.078 474.377 637.689C412.774 661.211 355.877 673.363 302.522 696.886C286.589 703.905 270.999 711.842 255.925 721.397" stroke="white" stroke-opacity="0.6" stroke-width="0.387078" stroke-miterlimit="10"/>
<path d="M1593.4 359.035C1585.18 337.413 1533.36 374.803 1419.73 337.792C1413.37 335.721 1407.18 333.352 1401 331.181C1379.64 323.686 1358.78 316.395 1338.19 312.429C1276.76 300.354 1226.48 309.786 1168.09 336.36C1130.14 353.631 1089.72 379.957 1041.92 415.081C1027.74 425.502 1013.81 436.336 999.847 447.191C969.588 470.705 937.859 495.298 904.915 509.957C871.572 524.79 842.16 530.081 812.742 536.697C778.375 544.473 741.86 552.836 702.065 563.768C688.164 567.601 673.838 571.792 659.277 576.399C632.288 584.865 604.096 594.326 576.573 604.943C543.607 617.666 512.406 631.514 482.116 641.955C420.069 663.111 362.357 671.978 307.676 692.553C291.349 698.692 275.316 705.775 259.762 714.537" stroke="white" stroke-opacity="0.6" stroke-width="0.387078" stroke-miterlimit="10"/>
<path d="M1594.14 354.187C1586.95 335.268 1535.6 377.145 1420.18 340.938C1413.86 338.955 1407.71 336.709 1401.58 334.611C1380.34 327.424 1359.75 320.268 1339.48 316.096C1278.89 303.399 1228.9 309.743 1169.88 334.886C1132.22 350.926 1091.76 376.12 1043.76 410.663C1029.64 420.827 1015.77 431.413 1001.9 442.048C971.841 465.089 940.61 489.245 908.355 504.761C875.709 520.46 846.538 527.864 817.31 536.347C783.163 546.298 747.066 556.663 707.891 568.957C694.206 573.266 680.121 577.849 665.802 582.748C639.28 591.759 611.53 601.392 584.262 611.714C551.608 624.078 520.346 636.952 489.857 646.224C427.364 665.01 368.836 670.597 312.83 688.22C296.104 693.479 279.633 699.707 263.598 707.677" stroke="white" stroke-opacity="0.6" stroke-width="0.387078" stroke-miterlimit="10"/>
<path d="M1594.89 349.344C1588.72 333.128 1537.83 379.458 1420.63 344.088C1414.35 342.196 1408.24 340.058 1402.16 338.04C1381.06 331.12 1360.73 324.14 1340.78 319.758C1281.02 306.438 1231.33 309.732 1171.66 333.404C1134.3 348.233 1093.8 372.275 1045.59 406.24C1031.53 416.149 1017.73 426.485 1003.95 436.898C974.09 459.461 943.364 483.187 911.792 499.558C879.843 516.123 850.913 525.64 821.876 535.989C787.946 548.12 752.269 560.483 713.715 574.138C700.244 578.921 686.405 583.898 672.326 589.09C646.269 598.642 618.96 608.456 591.947 618.474C559.605 630.479 528.286 642.378 497.591 650.478C434.655 666.899 375.311 669.201 317.977 683.878C300.856 688.256 283.943 693.631 267.432 700.809" stroke="white" stroke-opacity="0.6" stroke-width="0.387078" stroke-miterlimit="10"/>
<path d="M1595.63 344.496C1590.49 330.983 1540.07 381.731 1421.08 347.233C1414.84 345.429 1408.77 343.4 1402.75 341.468C1381.77 334.814 1361.7 328.011 1342.07 323.424C1283.15 309.482 1233.75 309.758 1173.45 331.931C1136.37 345.565 1095.84 368.444 1047.43 401.821C1033.42 411.478 1019.69 421.561 1006 431.756C976.339 453.845 946.112 477.135 915.23 494.367C883.978 511.797 855.288 523.428 826.446 535.642C792.737 549.952 757.476 564.313 719.544 579.334C706.289 584.593 692.69 589.963 678.854 595.446C653.259 605.541 626.397 615.529 599.641 625.251C567.611 636.892 536.232 647.821 505.336 654.75C441.954 668.801 381.794 667.818 323.135 679.546C305.62 683.044 288.265 687.565 271.273 693.951" stroke="white" stroke-opacity="0.6" stroke-width="0.387078" stroke-miterlimit="10"/>
<path d="M1596.38 339.653C1592.27 328.842 1542.32 383.969 1421.52 350.385C1415.34 348.666 1409.3 346.749 1403.33 344.902C1382.49 338.516 1362.68 331.886 1343.37 327.091C1285.28 312.522 1236.19 309.82 1175.25 330.456C1138.45 342.914 1097.9 364.616 1049.27 397.407C1035.33 406.81 1021.65 416.641 1008.05 426.617C978.592 448.229 948.869 471.085 918.672 489.174C888.118 507.475 859.667 521.211 831.016 535.296C797.524 551.787 762.681 568.146 725.372 584.526C712.333 590.263 698.979 596.023 685.378 601.8C660.249 612.436 633.829 622.6 607.327 632.023C575.605 643.307 544.172 653.26 513.073 659.02C449.247 670.705 388.271 666.439 328.286 675.215C310.373 677.834 292.578 681.5 275.106 687.093" stroke="white" stroke-opacity="0.6" stroke-width="0.387078" stroke-miterlimit="10"/>
<path d="M1597.12 334.805C1594.04 326.697 1544.57 386.165 1421.97 353.527C1415.82 351.892 1409.83 350.089 1403.92 348.327C1383.21 342.206 1363.65 335.753 1344.66 330.753C1287.41 315.563 1238.62 309.916 1177.03 328.974C1140.53 340.272 1099.95 360.787 1051.1 392.981C1037.22 402.132 1023.61 411.705 1010.1 421.466C980.843 442.605 951.618 465.024 922.114 483.97C892.255 503.137 864.046 518.986 835.585 534.937C802.311 553.608 767.888 571.964 731.204 589.709C718.38 595.918 705.268 602.074 691.911 608.146C667.249 619.327 641.268 629.668 615.023 638.791C583.612 649.712 552.123 658.693 520.816 663.285C456.546 672.604 394.754 665.052 333.44 670.882C315.133 672.62 296.895 675.429 278.947 680.231" stroke="white" stroke-opacity="0.6" stroke-width="0.387078" stroke-miterlimit="10"/>
<path d="M1597.87 329.959C1595.81 324.554 1546.82 388.323 1422.42 356.673C1416.32 355.12 1410.36 353.433 1404.5 351.756C1383.93 345.902 1364.63 339.625 1345.96 334.416C1289.54 318.603 1241.05 310.051 1178.82 327.497C1142.6 337.654 1101.99 356.971 1052.94 388.562C1039.12 397.464 1025.57 406.781 1012.15 416.323C983.095 436.985 954.373 458.97 925.554 478.773C896.393 498.807 868.424 516.768 840.154 534.586C807.101 555.436 773.094 575.791 737.031 594.897C724.422 601.584 711.555 608.13 698.438 614.495C674.237 626.218 648.703 636.734 622.716 645.561C591.617 656.123 560.067 664.13 528.558 667.549C463.843 674.498 401.236 663.666 338.597 666.543C319.891 667.403 301.214 669.356 282.787 673.369" stroke="white" stroke-opacity="0.6" stroke-width="0.387078" stroke-miterlimit="10"/>
<path d="M1598.61 325.116C1597.58 322.413 1549.07 390.441 1422.86 359.825C1416.8 358.356 1410.89 356.783 1405.08 355.191C1384.64 349.602 1365.6 343.503 1347.25 338.088C1291.67 321.652 1243.46 310.235 1180.61 326.025C1144.65 335.058 1104.08 353.223 1054.77 384.146C1041.02 392.817 1027.52 401.86 1014.2 411.183C985.34 431.371 957.117 452.92 928.987 473.58C900.523 494.483 872.798 514.553 844.714 534.239C811.879 557.269 778.292 579.621 742.851 600.093C730.458 607.256 717.831 614.194 704.957 620.851C681.222 633.115 656.131 643.807 630.397 652.335C599.61 662.537 568.005 669.573 536.291 671.821C471.131 676.404 407.708 662.288 343.745 662.217C324.644 662.195 305.525 663.295 286.62 666.514" stroke="white" stroke-opacity="0.6" stroke-width="0.387078" stroke-miterlimit="10"/>
<path d="M1599.36 320.268C1599.36 320.268 1551.33 392.517 1423.31 362.97C1295.28 333.424 1231.34 272.5 1056.61 379.726C935.864 453.824 835.702 558.839 711.491 627.197C660.386 655.322 602.639 674.105 544.038 676.083C478.432 678.297 414.195 660.9 348.902 657.879C329.403 656.978 309.849 657.222 290.46 659.649" stroke="white" stroke-opacity="0.6" stroke-width="0.387078" stroke-miterlimit="10"/>
</svg>
