<svg width="1512" height="548" viewBox="0 0 1512 548" fill="none" xmlns="http://www.w3.org/2000/svg">
<g opacity="0.75">
<path d="M-78 196.706C-35.9389 176.387 154.194 -0.0870975 767.334 183.36C1380.47 366.806 1562.41 303.25 1659 127.856" stroke="url(#paint0_linear_111_2607)" stroke-width="0.829117" stroke-miterlimit="10"/>
<path d="M-76.8307 189.899C-36.7761 170.547 156.566 4.42902 764.259 190.051C1371.95 375.672 1561.21 288.855 1653.21 121.817" stroke="url(#paint1_linear_111_2607)" stroke-width="0.829117" stroke-miterlimit="10"/>
<path d="M-75.6617 183.102C-37.6136 164.719 158.945 8.94761 761.191 196.76C1363.44 384.573 1560.04 274.478 1647.43 115.788" stroke="url(#paint2_linear_111_2607)" stroke-width="0.829117" stroke-miterlimit="10"/>
<path d="M-74.4927 176.299C-38.4427 158.883 161.316 13.4674 758.123 203.463C1354.93 393.459 1558.86 260.094 1641.65 109.761" stroke="url(#paint3_linear_111_2607)" stroke-width="0.829117" stroke-miterlimit="10"/>
<path d="M-73.3238 169.493C-39.2803 153.044 163.696 17.9764 755.055 210.155C1346.41 402.334 1557.68 245.699 1635.88 103.714" stroke="url(#paint4_linear_111_2607)" stroke-width="0.829117" stroke-miterlimit="10"/>
<path d="M-72.1629 162.698C-40.1175 147.216 166.067 22.5038 751.971 216.866C1337.87 411.227 1556.49 231.323 1630.08 97.6945" stroke="url(#paint5_linear_111_2607)" stroke-width="0.829117" stroke-miterlimit="10"/>
<path d="M-70.9939 155.891C-40.955 141.377 168.447 27.0198 748.903 223.565C1329.36 420.109 1555.31 216.936 1624.3 91.6552" stroke="url(#paint6_linear_111_2607)" stroke-width="0.829117" stroke-miterlimit="10"/>
<path d="M-69.8246 149.087C-41.7839 135.541 170.827 31.531 745.836 230.259C1320.84 428.987 1554.13 202.543 1618.52 85.619" stroke="url(#paint7_linear_111_2607)" stroke-width="0.829117" stroke-miterlimit="10"/>
<path d="M-68.6559 142.281C-42.6217 129.703 173.197 36.0481 742.768 236.959C1312.34 437.87 1552.95 188.157 1612.75 79.5808" stroke="url(#paint8_linear_111_2607)" stroke-width="0.829117" stroke-miterlimit="10"/>
<path d="M-67.4867 135.484C-43.4506 123.874 175.577 40.5666 739.692 243.668C1303.81 446.77 1551.76 173.779 1606.96 73.5599" stroke="url(#paint9_linear_111_2607)" stroke-width="0.829117" stroke-miterlimit="10"/>
<path d="M-66.3177 128.68C-44.2881 118.037 177.957 45.0851 736.624 250.362C1295.29 455.639 1550.58 159.386 1601.19 67.5151" stroke="url(#paint10_linear_111_2607)" stroke-width="0.829117" stroke-miterlimit="10"/>
<path d="M-65.1568 121.875C-45.1336 112.199 180.32 49.5949 733.548 257.063C1286.78 464.531 1549.4 145.001 1595.4 61.4856" stroke="url(#paint11_linear_111_2607)" stroke-width="0.829117" stroke-miterlimit="10"/>
<path d="M-63.9878 115.077C-45.9628 106.369 182.699 54.1205 730.48 263.772C1278.26 473.423 1548.22 130.623 1589.62 55.4559" stroke="url(#paint12_linear_111_2607)" stroke-width="0.829117" stroke-miterlimit="10"/>
<path d="M-62.8185 108.271C-46.8 100.53 185.079 58.6287 727.404 270.463C1269.73 482.297 1547.04 116.235 1583.83 49.4167" stroke="url(#paint13_linear_111_2607)" stroke-width="0.829117" stroke-miterlimit="10"/>
<path d="M-61.6498 101.467C-47.6295 94.6944 187.458 63.1483 724.336 277.165C1261.21 491.183 1545.85 101.851 1578.05 43.3811" stroke="url(#paint14_linear_111_2607)" stroke-width="0.829117" stroke-miterlimit="10"/>
<path d="M-60.4803 94.6687C-48.4664 88.8633 189.83 67.6647 721.269 283.873C1252.71 500.081 1544.67 87.4719 1572.27 37.3582" stroke="url(#paint15_linear_111_2607)" stroke-width="0.829117" stroke-miterlimit="10"/>
<path d="M-59.3116 87.865C-49.2959 83.0271 192.209 72.1839 718.201 290.575C1244.19 508.966 1543.49 73.0795 1566.49 31.322" stroke="url(#paint16_linear_111_2607)" stroke-width="0.829117" stroke-miterlimit="10"/>
<path d="M-58.151 81.0606C-50.1417 77.1903 194.58 76.7025 715.117 297.269C1235.65 517.835 1542.31 58.6945 1560.71 25.2853" stroke="url(#paint17_linear_111_2607)" stroke-width="0.829117" stroke-miterlimit="10"/>
<path d="M-56.9818 74.2554C-50.9707 71.3526 196.952 81.2123 712.049 303.97C1227.15 526.727 1541.12 44.3086 1554.92 19.2557" stroke="url(#paint18_linear_111_2607)" stroke-width="0.829117" stroke-miterlimit="10"/>
<path d="M-55.813 67.4575C-51.8084 65.5223 199.331 85.7374 708.981 310.678C1218.63 535.618 1539.95 29.9221 1549.14 13.2175" stroke="url(#paint19_linear_111_2607)" stroke-width="0.829117" stroke-miterlimit="10"/>
<path d="M-54.6432 60.6548C-52.6368 59.6873 201.711 90.2497 705.914 317.373C1210.12 544.496 1538.76 15.5389 1543.36 7.19055" stroke="url(#paint20_linear_111_2607)" stroke-width="0.829117" stroke-miterlimit="10"/>
<path d="M-53.475 53.8485C-53.475 53.8485 204.09 94.7663 702.837 324.073C1201.58 553.379 1537.58 1.15186 1537.58 1.15186" stroke="url(#paint21_linear_111_2607)" stroke-width="0.829117" stroke-miterlimit="10"/>
<path d="M-50.8795 66.6579C-49.9011 65.6183 213.617 86.2732 703.642 313.428C1193.67 540.584 1523.45 30.266 1536.85 26.6196" stroke="url(#paint22_linear_111_2607)" stroke-width="0.829117" stroke-miterlimit="10"/>
<path d="M-48.2849 79.4772C-46.3282 77.3981 223.151 77.798 704.445 302.802C1185.74 527.806 1509.33 59.3821 1536.13 52.0894" stroke="url(#paint23_linear_111_2607)" stroke-width="0.829117" stroke-miterlimit="10"/>
<path d="M-45.6889 92.289C-42.7538 89.1704 232.687 69.3152 705.242 292.16C1177.8 515.006 1495.2 88.4827 1535.41 77.5596" stroke="url(#paint24_linear_111_2607)" stroke-width="0.829117" stroke-miterlimit="10"/>
<path d="M-43.0941 105.096C-39.189 100.938 242.222 60.8197 706.046 281.522C1169.87 502.224 1481.06 117.595 1534.68 103.025" stroke="url(#paint25_linear_111_2607)" stroke-width="0.829117" stroke-miterlimit="10"/>
<path d="M-40.4993 117.909C-35.6158 112.711 251.756 52.3379 706.85 270.881C1161.94 489.424 1466.93 146.704 1533.96 128.488" stroke="url(#paint26_linear_111_2607)" stroke-width="0.829117" stroke-miterlimit="10"/>
<path d="M-37.8954 130.719C-32.0336 124.482 261.291 43.8455 707.655 260.246C1154.02 476.646 1452.82 175.819 1533.24 153.957" stroke="url(#paint27_linear_111_2607)" stroke-width="0.829117" stroke-miterlimit="10"/>
<path d="M-35.3009 143.527C-28.4607 136.251 270.826 35.3594 708.458 249.608C1146.09 463.857 1438.69 204.924 1532.52 179.423" stroke="url(#paint28_linear_111_2607)" stroke-width="0.829117" stroke-miterlimit="10"/>
<path d="M-32.7051 156.338C-24.8866 148.022 280.361 26.8678 709.263 238.966C1138.17 451.064 1424.56 234.032 1531.79 204.885" stroke="url(#paint29_linear_111_2607)" stroke-width="0.829117" stroke-miterlimit="10"/>
<path d="M-30.1104 169.156C-21.3134 159.8 289.896 18.3911 710.067 228.33C1130.24 438.269 1410.43 263.147 1531.07 230.353" stroke="url(#paint30_linear_111_2607)" stroke-width="0.829117" stroke-miterlimit="10"/>
<path d="M-27.5151 181.966C-17.7398 171.571 299.431 9.90677 710.863 217.695C1122.3 425.483 1396.3 292.262 1530.34 255.822" stroke="url(#paint31_linear_111_2607)" stroke-width="0.829117" stroke-miterlimit="10"/>
<path d="M-24.9198 194.778C-14.1662 183.343 308.966 1.41605 711.668 207.053C1114.37 412.69 1382.17 321.362 1529.62 281.284" stroke="url(#paint32_linear_111_2607)" stroke-width="0.829117" stroke-miterlimit="10"/>
<path d="M-22.3163 207.588C-10.5926 195.113 318.5 -7.06931 712.48 196.416C1106.46 399.902 1368.05 350.476 1528.9 306.76" stroke="url(#paint33_linear_111_2607)" stroke-width="0.829117" stroke-miterlimit="10"/>
<path d="M-19.7211 220.398C-7.019 206.884 328.035 -15.5611 713.276 185.774C1098.52 387.108 1353.92 379.584 1528.17 332.221" stroke="url(#paint34_linear_111_2607)" stroke-width="0.829117" stroke-miterlimit="10"/>
<path d="M-17.1266 233.211C-3.44616 218.658 337.57 -24.0429 714.08 175.141C1090.59 374.324 1339.8 408.701 1527.45 357.692" stroke="url(#paint35_linear_111_2607)" stroke-width="0.829117" stroke-miterlimit="10"/>
<path d="M-14.5308 246.019C0.128027 230.426 347.105 -32.5296 714.885 164.495C1082.66 361.52 1325.67 437.798 1526.73 383.15" stroke="url(#paint36_linear_111_2607)" stroke-width="0.829117" stroke-miterlimit="10"/>
<path d="M-11.9352 258.829C3.7019 242.197 356.64 -41.0216 715.681 153.86C1074.72 348.742 1311.53 466.913 1526 408.619" stroke="url(#paint37_linear_111_2607)" stroke-width="0.829117" stroke-miterlimit="10"/>
<path d="M-9.3407 271.649C7.27481 253.976 366.166 -49.497 716.485 143.226C1066.8 335.948 1297.41 496.029 1525.28 434.089" stroke="url(#paint38_linear_111_2607)" stroke-width="0.829117" stroke-miterlimit="10"/>
<path d="M-6.73682 284.458C10.857 265.746 375.71 -57.9905 717.298 132.589C1058.89 323.169 1283.29 525.143 1524.56 459.556" stroke="url(#paint39_linear_111_2607)" stroke-width="0.829117" stroke-miterlimit="10"/>
<path d="M-4.14203 297.269C14.4219 277.518 385.244 -66.4735 718.093 121.947C1050.94 310.367 1269.16 554.243 1523.83 485.018" stroke="url(#paint40_linear_111_2607)" stroke-width="0.829117" stroke-miterlimit="10"/>
<path d="M-1.54724 310.079C17.995 289.288 394.779 -74.9582 718.897 111.311C1043.02 297.581 1255.03 583.358 1523.11 510.486" stroke="url(#paint41_linear_111_2607)" stroke-width="0.829117" stroke-miterlimit="10"/>
<path d="M1.04779 322.889C21.5684 301.059 404.314 -83.451 719.701 100.667C1035.09 284.786 1240.9 612.464 1522.39 535.954" stroke="url(#paint42_linear_111_2607)" stroke-width="0.829117" stroke-miterlimit="10"/>
</g>
<defs>
<linearGradient id="paint0_linear_111_2607" x1="-12.3885" y1="-60.7804" x2="1586.71" y2="377.114" gradientUnits="userSpaceOnUse">
<stop stop-color="white"/>
<stop offset="1" stop-color="white" stop-opacity="0.819"/>
</linearGradient>
<linearGradient id="paint1_linear_111_2607" x1="-11.482" y1="-57.0611" x2="1580.09" y2="380.963" gradientUnits="userSpaceOnUse">
<stop stop-color="white"/>
<stop offset="1" stop-color="white" stop-opacity="0.819"/>
</linearGradient>
<linearGradient id="paint2_linear_111_2607" x1="-10.5755" y1="-54.3832" x2="1574.55" y2="381.973" gradientUnits="userSpaceOnUse">
<stop stop-color="white"/>
<stop offset="1" stop-color="white" stop-opacity="0.819"/>
</linearGradient>
<linearGradient id="paint3_linear_111_2607" x1="-9.66891" y1="-52.746" x2="1570.03" y2="380.227" gradientUnits="userSpaceOnUse">
<stop stop-color="white"/>
<stop offset="1" stop-color="white" stop-opacity="0.819"/>
</linearGradient>
<linearGradient id="paint4_linear_111_2607" x1="-8.76242" y1="-60.1597" x2="1571.24" y2="359.545" gradientUnits="userSpaceOnUse">
<stop stop-color="white"/>
<stop offset="1" stop-color="white" stop-opacity="0.819"/>
</linearGradient>
<linearGradient id="paint5_linear_111_2607" x1="-7.86428" y1="-73.5176" x2="1575.24" y2="327.349" gradientUnits="userSpaceOnUse">
<stop stop-color="white"/>
<stop offset="1" stop-color="white" stop-opacity="0.819"/>
</linearGradient>
<linearGradient id="paint6_linear_111_2607" x1="-6.95771" y1="-87.251" x2="1578.44" y2="295.363" gradientUnits="userSpaceOnUse">
<stop stop-color="white"/>
<stop offset="1" stop-color="white" stop-opacity="0.819"/>
</linearGradient>
<linearGradient id="paint7_linear_111_2607" x1="-6.05092" y1="-101.283" x2="1580.81" y2="263.798" gradientUnits="userSpaceOnUse">
<stop stop-color="white"/>
<stop offset="1" stop-color="white" stop-opacity="0.819"/>
</linearGradient>
<linearGradient id="paint8_linear_111_2607" x1="-5.14435" y1="-115.596" x2="1582.42" y2="232.724" gradientUnits="userSpaceOnUse">
<stop stop-color="white"/>
<stop offset="1" stop-color="white" stop-opacity="0.819"/>
</linearGradient>
<linearGradient id="paint9_linear_111_2607" x1="-4.23786" y1="-130.127" x2="1583.28" y2="202.25" gradientUnits="userSpaceOnUse">
<stop stop-color="white"/>
<stop offset="1" stop-color="white" stop-opacity="0.819"/>
</linearGradient>
<linearGradient id="paint10_linear_111_2607" x1="-3.3313" y1="-144.893" x2="1583.47" y2="172.371" gradientUnits="userSpaceOnUse">
<stop stop-color="white"/>
<stop offset="1" stop-color="white" stop-opacity="0.819"/>
</linearGradient>
<linearGradient id="paint11_linear_111_2607" x1="-2.43285" y1="-159.827" x2="1583.02" y2="143.147" gradientUnits="userSpaceOnUse">
<stop stop-color="white"/>
<stop offset="1" stop-color="white" stop-opacity="0.819"/>
</linearGradient>
<linearGradient id="paint12_linear_111_2607" x1="-1.52629" y1="-174.928" x2="1582.03" y2="114.552" gradientUnits="userSpaceOnUse">
<stop stop-color="white"/>
<stop offset="1" stop-color="white" stop-opacity="0.819"/>
</linearGradient>
<linearGradient id="paint13_linear_111_2607" x1="-0.619803" y1="-190.177" x2="1580.53" y2="86.5829" gradientUnits="userSpaceOnUse">
<stop stop-color="white"/>
<stop offset="1" stop-color="white" stop-opacity="0.819"/>
</linearGradient>
<linearGradient id="paint14_linear_111_2607" x1="0.286453" y1="-205.556" x2="1578.59" y2="59.2145" gradientUnits="userSpaceOnUse">
<stop stop-color="white"/>
<stop offset="1" stop-color="white" stop-opacity="0.819"/>
</linearGradient>
<linearGradient id="paint15_linear_111_2607" x1="1.19351" y1="-221.031" x2="1576.24" y2="32.4482" gradientUnits="userSpaceOnUse">
<stop stop-color="white"/>
<stop offset="1" stop-color="white" stop-opacity="0.819"/>
</linearGradient>
<linearGradient id="paint16_linear_111_2607" x1="2.0995" y1="-236.625" x2="1573.53" y2="6.21289" gradientUnits="userSpaceOnUse">
<stop stop-color="white"/>
<stop offset="1" stop-color="white" stop-opacity="0.819"/>
</linearGradient>
<linearGradient id="paint17_linear_111_2607" x1="2.99796" y1="-252.302" x2="1570.51" y2="-19.4806" gradientUnits="userSpaceOnUse">
<stop stop-color="white"/>
<stop offset="1" stop-color="white" stop-opacity="0.819"/>
</linearGradient>
<linearGradient id="paint18_linear_111_2607" x1="3.90446" y1="-268.057" x2="1567.19" y2="-44.6867" gradientUnits="userSpaceOnUse">
<stop stop-color="white"/>
<stop offset="1" stop-color="white" stop-opacity="0.819"/>
</linearGradient>
<linearGradient id="paint19_linear_111_2607" x1="4.81077" y1="-283.905" x2="1563.64" y2="-69.4534" gradientUnits="userSpaceOnUse">
<stop stop-color="white"/>
<stop offset="1" stop-color="white" stop-opacity="0.819"/>
</linearGradient>
<linearGradient id="paint20_linear_111_2607" x1="5.71806" y1="-299.788" x2="1559.85" y2="-93.7429" gradientUnits="userSpaceOnUse">
<stop stop-color="white"/>
<stop offset="1" stop-color="white" stop-opacity="0.819"/>
</linearGradient>
<linearGradient id="paint21_linear_111_2607" x1="6.62357" y1="-315.756" x2="1555.86" y2="-117.661" gradientUnits="userSpaceOnUse">
<stop stop-color="white"/>
<stop offset="1" stop-color="white" stop-opacity="0.819"/>
</linearGradient>
<linearGradient id="paint22_linear_111_2607" x1="9.09382" y1="-262.155" x2="1550.16" y2="-46.3594" gradientUnits="userSpaceOnUse">
<stop stop-color="white"/>
<stop offset="1" stop-color="white" stop-opacity="0.819"/>
</linearGradient>
<linearGradient id="paint23_linear_111_2607" x1="11.5631" y1="-208.859" x2="1542.95" y2="27.9527" gradientUnits="userSpaceOnUse">
<stop stop-color="white"/>
<stop offset="1" stop-color="white" stop-opacity="0.819"/>
</linearGradient>
<linearGradient id="paint24_linear_111_2607" x1="14.0338" y1="-155.903" x2="1533.55" y2="106.188" gradientUnits="userSpaceOnUse">
<stop stop-color="white"/>
<stop offset="1" stop-color="white" stop-opacity="0.819"/>
</linearGradient>
<linearGradient id="paint25_linear_111_2607" x1="16.503" y1="-109.614" x2="1522.41" y2="179.564" gradientUnits="userSpaceOnUse">
<stop stop-color="white"/>
<stop offset="1" stop-color="white" stop-opacity="0.819"/>
</linearGradient>
<linearGradient id="paint26_linear_111_2607" x1="18.9725" y1="-92.0208" x2="1515.98" y2="210.511" gradientUnits="userSpaceOnUse">
<stop stop-color="white"/>
<stop offset="1" stop-color="white" stop-opacity="0.819"/>
</linearGradient>
<linearGradient id="paint27_linear_111_2607" x1="21.4508" y1="-79.252" x2="1510.39" y2="234.046" gradientUnits="userSpaceOnUse">
<stop stop-color="white"/>
<stop offset="1" stop-color="white" stop-opacity="0.819"/>
</linearGradient>
<linearGradient id="paint28_linear_111_2607" x1="23.9201" y1="-70.9459" x2="1506.03" y2="249.937" gradientUnits="userSpaceOnUse">
<stop stop-color="white"/>
<stop offset="1" stop-color="white" stop-opacity="0.819"/>
</linearGradient>
<linearGradient id="paint29_linear_111_2607" x1="26.3903" y1="-66.8517" x2="1503.3" y2="257.827" gradientUnits="userSpaceOnUse">
<stop stop-color="white"/>
<stop offset="1" stop-color="white" stop-opacity="0.819"/>
</linearGradient>
<linearGradient id="paint30_linear_111_2607" x1="28.8598" y1="-66.8752" x2="1502.59" y2="257.22" gradientUnits="userSpaceOnUse">
<stop stop-color="white"/>
<stop offset="1" stop-color="white" stop-opacity="0.819"/>
</linearGradient>
<linearGradient id="paint31_linear_111_2607" x1="31.3295" y1="-71.1981" x2="1504.16" y2="247.314" gradientUnits="userSpaceOnUse">
<stop stop-color="white"/>
<stop offset="1" stop-color="white" stop-opacity="0.819"/>
</linearGradient>
<linearGradient id="paint32_linear_111_2607" x1="33.7995" y1="-80.2116" x2="1508.1" y2="227.289" gradientUnits="userSpaceOnUse">
<stop stop-color="white"/>
<stop offset="1" stop-color="white" stop-opacity="0.819"/>
</linearGradient>
<linearGradient id="paint33_linear_111_2607" x1="36.2777" y1="-94.4749" x2="1514.09" y2="196.61" gradientUnits="userSpaceOnUse">
<stop stop-color="white"/>
<stop offset="1" stop-color="white" stop-opacity="0.819"/>
</linearGradient>
<linearGradient id="paint34_linear_111_2607" x1="38.7474" y1="-114.246" x2="1521.27" y2="156.203" gradientUnits="userSpaceOnUse">
<stop stop-color="white"/>
<stop offset="1" stop-color="white" stop-opacity="0.819"/>
</linearGradient>
<linearGradient id="paint35_linear_111_2607" x1="41.2166" y1="-138.829" x2="1528.41" y2="109.251" gradientUnits="userSpaceOnUse">
<stop stop-color="white"/>
<stop offset="1" stop-color="white" stop-opacity="0.819"/>
</linearGradient>
<linearGradient id="paint36_linear_111_2607" x1="43.6871" y1="-166.831" x2="1534.58" y2="59.6407" gradientUnits="userSpaceOnUse">
<stop stop-color="white"/>
<stop offset="1" stop-color="white" stop-opacity="0.819"/>
</linearGradient>
<linearGradient id="paint37_linear_111_2607" x1="46.1571" y1="-197.059" x2="1539.51" y2="9.81211" gradientUnits="userSpaceOnUse">
<stop stop-color="white"/>
<stop offset="1" stop-color="white" stop-opacity="0.819"/>
</linearGradient>
<linearGradient id="paint38_linear_111_2607" x1="48.6263" y1="-228.765" x2="1543.31" y2="-39.1942" gradientUnits="userSpaceOnUse">
<stop stop-color="white"/>
<stop offset="1" stop-color="white" stop-opacity="0.819"/>
</linearGradient>
<linearGradient id="paint39_linear_111_2607" x1="51.1046" y1="-261.582" x2="1546.19" y2="-87.1677" gradientUnits="userSpaceOnUse">
<stop stop-color="white"/>
<stop offset="1" stop-color="white" stop-opacity="0.819"/>
</linearGradient>
<linearGradient id="paint40_linear_111_2607" x1="53.5738" y1="-295.239" x2="1548.34" y2="-134.093" gradientUnits="userSpaceOnUse">
<stop stop-color="white"/>
<stop offset="1" stop-color="white" stop-opacity="0.819"/>
</linearGradient>
<linearGradient id="paint41_linear_111_2607" x1="56.0434" y1="-329.596" x2="1549.95" y2="-180.106" gradientUnits="userSpaceOnUse">
<stop stop-color="white"/>
<stop offset="1" stop-color="white" stop-opacity="0.819"/>
</linearGradient>
<linearGradient id="paint42_linear_111_2607" x1="58.5131" y1="-364.549" x2="1551.11" y2="-225.347" gradientUnits="userSpaceOnUse">
<stop stop-color="white"/>
<stop offset="1" stop-color="white" stop-opacity="0.819"/>
</linearGradient>
</defs>
</svg>
