<svg width="136" height="136" viewBox="0 0 136 136" fill="none" xmlns="http://www.w3.org/2000/svg">
<g filter="url(#filter0_d_111_2348)">
<path d="M22.6966 56.7075L22.6966 56.7072C28.9321 31.6853 54.2752 16.4575 79.2927 22.6951L79.2928 22.6952C104.316 28.9328 119.543 54.2774 113.304 79.2979C107.066 104.317 81.7231 119.543 56.6979 113.304C31.6834 107.067 16.4553 81.7249 22.6966 56.7075Z" fill="#F7931A" stroke="white" stroke-width="2.59459"/>
<path d="M89.1655 61.1617C90.1211 54.7748 85.2576 51.3413 78.6074 49.0509L80.7646 40.3989L75.4975 39.0864L73.3973 47.5104C72.0127 47.1654 70.5905 46.8399 69.1773 46.5174L71.2926 38.038L66.0285 36.7255L63.8698 45.3744C62.7237 45.1134 61.5985 44.8554 60.5064 44.5839L60.5124 44.5569L53.2487 42.7434L51.8475 48.3683C51.8475 48.3683 55.7554 49.2638 55.6729 49.3193C57.8062 49.8518 58.1917 51.2633 58.1272 52.3823L55.6699 62.2387C55.8169 62.2762 56.0075 62.3302 56.2175 62.4142C56.042 62.3707 55.8545 62.3227 55.6609 62.2762L52.2165 76.0836C51.9555 76.7316 51.294 77.7035 49.8028 77.3346C49.8553 77.411 45.9744 76.3791 45.9744 76.3791L43.3596 82.4075L50.2138 84.116C51.489 84.4355 52.7386 84.77 53.9687 85.085L51.789 93.8359L57.0501 95.1484L59.2088 86.4905C60.646 86.8805 62.0411 87.2405 63.4063 87.5795L61.255 96.1969L66.5221 97.5094L68.7018 88.775C77.6833 90.4744 84.437 89.7889 87.2798 81.6665C89.5705 75.1266 87.1658 71.3541 82.4403 68.8942C85.8816 68.1007 88.4739 65.8372 89.1655 61.1617ZM77.1312 78.0351C75.5035 84.575 64.4909 81.0395 60.9205 80.153L63.8128 68.5596C67.3832 69.4506 78.8324 71.2146 77.1312 78.0351ZM78.7604 61.0672C77.2752 67.0162 68.1092 63.9937 65.1359 63.2527L67.7582 52.7378C70.7315 53.4788 80.307 54.8618 78.7604 61.0672Z" fill="white"/>
</g>
<defs>
<filter id="filter0_d_111_2348" x="-1.90735e-06" y="-1.90735e-06" width="136" height="136" filterUnits="userSpaceOnUse" color-interpolation-filters="sRGB">
<feFlood flood-opacity="0" result="BackgroundImageFix"/>
<feColorMatrix in="SourceAlpha" type="matrix" values="0 0 0 0 0 0 0 0 0 0 0 0 0 0 0 0 0 0 127 0" result="hardAlpha"/>
<feOffset/>
<feGaussianBlur stdDeviation="10"/>
<feComposite in2="hardAlpha" operator="out"/>
<feColorMatrix type="matrix" values="0 0 0 0 0.968627 0 0 0 0 0.576471 0 0 0 0 0.101961 0 0 0 1 0"/>
<feBlend mode="normal" in2="BackgroundImageFix" result="effect1_dropShadow_111_2348"/>
<feBlend mode="normal" in="SourceGraphic" in2="effect1_dropShadow_111_2348" result="shape"/>
</filter>
</defs>
</svg>
